<svg width="24" height="24" viewBox="0 0 24 24" fill="none" xmlns="http://www.w3.org/2000/svg">
<path d="M20.7072 14.7035C20.592 13.9031 19.974 13.2791 19.1784 13.0931C16.086 12.3683 15.3108 10.5875 15.18 8.6123C14.6316 8.5103 13.656 8.3999 12 8.3999C10.344 8.3999 9.36843 8.5103 8.82003 8.6123C8.68923 10.5875 7.91403 12.3683 4.82163 13.0931C4.02603 13.2803 3.40803 13.9031 3.29283 14.7035L2.69643 18.8339C2.48643 20.2883 3.55443 21.5999 5.04003 21.5999H18.96C20.4444 21.5999 21.5136 20.2883 21.3036 18.8339L20.7072 14.7035ZM12 18.5903C10.326 18.5903 8.96883 17.2463 8.96883 15.5903C8.96883 13.9343 10.326 12.5903 12 12.5903C13.674 12.5903 15.0312 13.9343 15.0312 15.5903C15.0312 17.2463 13.6728 18.5903 12 18.5903ZM23.94 7.1999C23.9112 5.3999 19.3296 2.4011 12 2.3999C4.66923 2.4011 0.0876344 5.3999 0.0600344 7.1999C0.0324344 8.9999 0.0852345 11.3423 3.10203 10.9523C6.63123 10.4951 6.41403 9.2627 6.41403 7.5011C6.41403 6.2723 9.28443 5.9759 12 5.9759C14.7156 5.9759 17.5848 6.2723 17.586 7.5011C17.586 9.2627 17.3688 10.4951 20.898 10.9523C23.9136 11.3423 23.9676 8.9999 23.94 7.1999Z" fill="white"/>
</svg>
