<svg width="24" height="24" viewBox="0 0 24 24" fill="none" xmlns="http://www.w3.org/2000/svg">
<g clip-path="url(#clip0_131_839)">
<path d="M18.3281 14.6094C18.3281 14.0885 18.2266 13.612 18.0234 13.1797C17.8203 12.7474 17.5677 12.3906 17.2656 12.1094C16.9635 11.8281 16.5833 11.5729 16.125 11.3438C15.6667 11.1146 15.237 10.9375 14.8359 10.8125C14.4349 10.6875 13.9792 10.5677 13.4688 10.4531L11.8438 10.0781C11.5312 10.0052 11.3021 9.95052 11.1562 9.91406C11.0104 9.8776 10.8281 9.81771 10.6094 9.73438C10.3906 9.65104 10.2344 9.56771 10.1406 9.48438C10.0469 9.40104 9.96094 9.29167 9.88281 9.15625C9.80469 9.02083 9.76562 8.86458 9.76562 8.6875C9.76562 7.88542 10.5156 7.48438 12.0156 7.48438C12.4635 7.48438 12.8646 7.54688 13.2188 7.67188C13.5729 7.79688 13.8542 7.94531 14.0625 8.11719C14.2708 8.28906 14.4688 8.46354 14.6562 8.64062C14.8438 8.81771 15.0521 8.96875 15.2812 9.09375C15.5104 9.21875 15.7604 9.28125 16.0312 9.28125C16.5208 9.28125 16.9141 9.11458 17.2109 8.78125C17.5078 8.44792 17.6562 8.04688 17.6562 7.57812C17.6562 7.00521 17.3646 6.48698 16.7812 6.02344C16.1979 5.5599 15.4583 5.20833 14.5625 4.96875C13.6667 4.72917 12.7188 4.60938 11.7188 4.60938C11.0104 4.60938 10.3229 4.6901 9.65625 4.85156C8.98958 5.01302 8.36719 5.25781 7.78906 5.58594C7.21094 5.91406 6.7474 6.36719 6.39844 6.94531C6.04948 7.52344 5.875 8.19271 5.875 8.95312C5.875 9.58854 5.97396 10.1432 6.17188 10.6172C6.36979 11.0911 6.66146 11.4844 7.04688 11.7969C7.43229 12.1094 7.84896 12.362 8.29688 12.5547C8.74479 12.7474 9.28125 12.9167 9.90625 13.0625L12.1875 13.625C13.125 13.8542 13.7083 14.0417 13.9375 14.1875C14.2708 14.3958 14.4375 14.7083 14.4375 15.125C14.4375 15.5312 14.2292 15.8672 13.8125 16.1328C13.3958 16.3984 12.849 16.5312 12.1719 16.5312C11.6406 16.5312 11.1641 16.4479 10.7422 16.2812C10.3203 16.1146 9.98177 15.9141 9.72656 15.6797C9.47135 15.4453 9.23438 15.2109 9.01562 14.9766C8.79688 14.7422 8.55729 14.5417 8.29688 14.375C8.03646 14.2083 7.75521 14.125 7.45312 14.125C6.93229 14.125 6.53906 14.2812 6.27344 14.5938C6.00781 14.9062 5.875 15.2969 5.875 15.7656C5.875 16.724 6.51042 17.5443 7.78125 18.2266C9.05208 18.9089 10.5677 19.25 12.3281 19.25C13.0885 19.25 13.8177 19.1536 14.5156 18.9609C15.2135 18.7682 15.8516 18.4896 16.4297 18.125C17.0078 17.7604 17.4688 17.2734 17.8125 16.6641C18.1562 16.0547 18.3281 15.3698 18.3281 14.6094ZM24 18C24 19.6562 23.4141 21.0703 22.2422 22.2422C21.0703 23.4141 19.6562 24 18 24C16.6458 24 15.4271 23.5833 14.3438 22.75C13.5417 22.9167 12.7604 23 12 23C10.5104 23 9.08594 22.7109 7.72656 22.1328C6.36719 21.5547 5.19531 20.7734 4.21094 19.7891C3.22656 18.8047 2.44531 17.6328 1.86719 16.2734C1.28906 14.9141 1 13.4896 1 12C1 11.2396 1.08333 10.4583 1.25 9.65625C0.416667 8.57292 0 7.35417 0 6C0 4.34375 0.585938 2.92969 1.75781 1.75781C2.92969 0.585938 4.34375 0 6 0C7.35417 0 8.57292 0.416667 9.65625 1.25C10.4583 1.08333 11.2396 1 12 1C13.4896 1 14.9141 1.28906 16.2734 1.86719C17.6328 2.44531 18.8047 3.22656 19.7891 4.21094C20.7734 5.19531 21.5547 6.36719 22.1328 7.72656C22.7109 9.08594 23 10.5104 23 12C23 12.7604 22.9167 13.5417 22.75 14.3438C23.5833 15.4271 24 16.6458 24 18Z" fill="white"/>
</g>
<defs>
<clipPath id="clip0_131_839">
<rect width="24" height="24" fill="white"/>
</clipPath>
</defs>
</svg>
