<svg width="60" height="61" viewBox="0 0 60 61" fill="none" xmlns="http://www.w3.org/2000/svg">
<circle cx="30" cy="30.2284" r="30" fill="#161B22"/>
<g clip-path="url(#clip0_746_1012)">
<path fill-rule="evenodd" clip-rule="evenodd" d="M30.5 18.2284C23.5938 18.2284 18 23.8221 18 30.7284C18 36.2596 21.5781 40.9315 26.5469 42.5878C27.1719 42.6971 27.4062 42.3221 27.4062 41.994C27.4062 41.6971 27.3906 40.7128 27.3906 39.6659C24.25 40.244 23.4375 38.9003 23.1875 38.1971C23.0469 37.8378 22.4375 36.7284 21.9062 36.4315C21.4688 36.1971 20.8438 35.619 21.8906 35.6034C22.875 35.5878 23.5781 36.5096 23.8125 36.8846C24.9375 38.7753 26.7344 38.244 27.4531 37.9159C27.5625 37.1034 27.8906 36.5565 28.25 36.244C25.4688 35.9315 22.5625 34.8534 22.5625 30.0721C22.5625 28.7128 23.0469 27.5878 23.8438 26.7128C23.7188 26.4003 23.2812 25.119 23.9688 23.4003C23.9688 23.4003 25.0156 23.0721 27.4062 24.6815C28.4062 24.4003 29.4688 24.2596 30.5313 24.2596C31.5938 24.2596 32.6563 24.4003 33.6563 24.6815C36.0469 23.0565 37.0938 23.4003 37.0938 23.4003C37.7812 25.119 37.3438 26.4003 37.2188 26.7128C38.0156 27.5878 38.5 28.6971 38.5 30.0721C38.5 34.869 35.5781 35.9315 32.7969 36.244C33.25 36.6346 33.6406 37.3846 33.6406 38.5565C33.6406 40.2284 33.625 41.5721 33.625 41.994C33.625 42.3221 33.8594 42.7128 34.4844 42.5878C36.9659 41.75 39.1221 40.1552 40.6497 38.0278C42.1773 35.9004 42.9993 33.3475 43 30.7284C43 23.8221 37.4062 18.2284 30.5 18.2284Z" fill="white"/>
</g>
<defs>
<clipPath id="clip0_746_1012">
<rect width="25" height="25" fill="white" transform="translate(18 18.2284)"/>
</clipPath>
</defs>
</svg>
