<svg width="60" height="61" viewBox="0 0 60 61" fill="none" xmlns="http://www.w3.org/2000/svg">
<circle cx="30" cy="30.2284" r="30" fill="#161B22"/>
<path d="M41.2143 18.2284H19.7801C18.798 18.2284 18 19.0375 18 20.0308V41.4259C18 42.4192 18.798 43.2284 19.7801 43.2284H41.2143C42.1964 43.2284 43 42.4192 43 41.4259V20.0308C43 19.0375 42.1964 18.2284 41.2143 18.2284ZM25.5558 39.657H21.8504V27.7262H25.5614V39.657H25.5558ZM23.7031 26.0967C22.5145 26.0967 21.5547 25.1313 21.5547 23.9483C21.5547 22.7652 22.5145 21.7998 23.7031 21.7998C24.8862 21.7998 25.8516 22.7652 25.8516 23.9483C25.8516 25.1369 24.8917 26.0967 23.7031 26.0967ZM39.4453 39.657H35.74V33.8534C35.74 32.4695 35.7121 30.6893 33.8147 30.6893C31.8839 30.6893 31.5882 32.196 31.5882 33.7529V39.657H27.8828V27.7262H31.4375V29.3556H31.4877C31.9844 28.4181 33.1953 27.4304 34.9978 27.4304C38.7478 27.4304 39.4453 29.9025 39.4453 33.1168V39.657Z" fill="white"/>
</svg>
