<svg width="60" height="61" viewBox="0 0 60 61" fill="none" xmlns="http://www.w3.org/2000/svg">
<circle cx="30" cy="30.2284" r="30" fill="#161B22"/>
<path d="M33.2219 24.4292V28.7081L34.7187 29.6495C34.7728 29.6614 34.8288 29.6614 34.8828 29.6495L41.3187 25.3104C41.314 25.0999 41.237 24.8973 41.1006 24.7368C40.9641 24.5764 40.7766 24.4677 40.5695 24.4292H33.2219Z" fill="white"/>
<path d="M33.2219 30.3042L34.5867 31.2417C34.6506 31.2806 34.724 31.3012 34.7988 31.3012C34.8737 31.3012 34.947 31.2806 35.0109 31.2417C34.7766 31.3831 41.318 27.0401 41.318 27.0401V34.9042C41.335 35.0635 41.3171 35.2247 41.2653 35.3764C41.2136 35.528 41.1293 35.6666 41.0185 35.7823C40.9076 35.898 40.7728 35.9881 40.6234 36.0463C40.4741 36.1044 40.3138 36.1292 40.1539 36.119H33.2211V30.3042H33.2219ZM26.1563 28.3315C25.9295 28.3304 25.7066 28.3907 25.5113 28.5059C25.316 28.6212 25.1555 28.7871 25.0469 28.9862C24.7501 29.5138 24.6077 30.1143 24.6359 30.719C24.6051 31.3225 24.7477 31.9221 25.0469 32.4471C25.1551 32.638 25.3116 32.797 25.5008 32.9082C25.6899 33.0194 25.9049 33.0788 26.1243 33.0806C26.3437 33.0823 26.5597 33.0263 26.7506 32.9181C26.9415 32.8099 27.1005 32.6534 27.2117 32.4643C27.5076 31.9417 27.6473 31.3452 27.6141 30.7456C27.648 30.1271 27.5129 29.5111 27.2234 28.9635C27.12 28.771 26.9659 28.6103 26.7778 28.499C26.5898 28.3876 26.3748 28.3297 26.1563 28.3315Z" fill="white"/>
<path d="M19.682 22.2557V38.9956L32.4164 41.6659V19.7909L19.682 22.2557ZM28.2039 33.4557C27.9657 33.7916 27.6489 34.064 27.2813 34.2494C26.9136 34.4347 26.5062 34.5273 26.0945 34.519C25.6932 34.5261 25.2962 34.4363 24.9371 34.257C24.578 34.0777 24.2675 33.8144 24.032 33.4893C23.4736 32.7097 23.1942 31.7645 23.2391 30.8065C23.1916 29.8016 23.476 28.8089 24.0484 27.9815C24.2897 27.6393 24.6114 27.3616 24.9852 27.1731C25.3591 26.9845 25.7736 26.8908 26.1922 26.9003C26.5906 26.8923 26.9848 26.9822 27.3404 27.1621C27.6959 27.3421 28.0018 27.6065 28.2312 27.9323C28.7841 28.7289 29.0587 29.6856 29.0125 30.6542C29.0612 31.6519 28.7767 32.6374 28.2039 33.4557Z" fill="white"/>
</svg>
