<svg width="180" height="61" viewBox="0 0 180 61" fill="none" xmlns="http://www.w3.org/2000/svg">
<path d="M69.8438 32.5995H72.2852C72.207 33.5305 71.9466 34.3606 71.5039 35.0897C71.0612 35.8124 70.4395 36.382 69.6387 36.7987C68.8379 37.2154 67.8646 37.4237 66.7188 37.4237C65.8398 37.4237 65.0488 37.2675 64.3457 36.955C63.6426 36.6359 63.0404 36.1867 62.5391 35.6073C62.0378 35.0214 61.6536 34.315 61.3867 33.4882C61.1263 32.6613 60.9961 31.7369 60.9961 30.7147V29.5331C60.9961 28.5109 61.1296 27.5865 61.3965 26.7596C61.6699 25.9328 62.0605 25.2264 62.5684 24.6405C63.0762 24.0481 63.6849 23.5956 64.3945 23.2831C65.1107 22.9706 65.9147 22.8143 66.8066 22.8143C67.9395 22.8143 68.8965 23.0227 69.6777 23.4393C70.459 23.856 71.0645 24.4322 71.4941 25.1678C71.9303 25.9035 72.1973 26.7466 72.2949 27.6971H69.8535C69.7884 27.0852 69.6452 26.5611 69.4238 26.1249C69.209 25.6887 68.89 25.3566 68.4668 25.1288C68.0436 24.8944 67.4902 24.7772 66.8066 24.7772C66.2467 24.7772 65.7585 24.8814 65.3418 25.0897C64.9251 25.2981 64.5768 25.604 64.2969 26.0077C64.0169 26.4113 63.8053 26.9094 63.6621 27.5018C63.5254 28.0878 63.457 28.7583 63.457 29.5135V30.7147C63.457 31.4309 63.5189 32.0819 63.6426 32.6678C63.7728 33.2473 63.9681 33.7453 64.2285 34.162C64.4954 34.5787 64.834 34.9009 65.2441 35.1288C65.6543 35.3566 66.1458 35.4706 66.7188 35.4706C67.4154 35.4706 67.9785 35.3599 68.4082 35.1385C68.8444 34.9172 69.1732 34.5949 69.3945 34.1718C69.6224 33.7421 69.7721 33.218 69.8438 32.5995ZM81.9922 33.5663C81.9922 33.2733 81.9466 33.0129 81.8555 32.785C81.7708 32.5572 81.6178 32.3488 81.3965 32.16C81.1751 31.9712 80.8626 31.7889 80.459 31.6132C80.0618 31.4309 79.554 31.2453 78.9355 31.0565C78.2585 30.8482 77.6335 30.6171 77.0605 30.3632C76.4941 30.1027 75.9993 29.8033 75.5762 29.4647C75.153 29.1197 74.8242 28.7258 74.5898 28.2831C74.3555 27.8339 74.2383 27.3163 74.2383 26.7303C74.2383 26.1509 74.3587 25.6236 74.5996 25.1483C74.847 24.6731 75.1953 24.2629 75.6445 23.9178C76.1003 23.5663 76.6374 23.2961 77.2559 23.1073C77.8743 22.912 78.5579 22.8143 79.3066 22.8143C80.3613 22.8143 81.2695 23.0096 82.0312 23.4003C82.7995 23.7909 83.3887 24.315 83.7988 24.9725C84.2155 25.6301 84.4238 26.356 84.4238 27.1503H81.9922C81.9922 26.6815 81.8913 26.2681 81.6895 25.91C81.4941 25.5455 81.1947 25.259 80.791 25.0507C80.3939 24.8423 79.8893 24.7382 79.2773 24.7382C78.6979 24.7382 78.2161 24.826 77.832 25.0018C77.4479 25.1776 77.1615 25.4152 76.9727 25.7147C76.7839 26.0142 76.6895 26.3527 76.6895 26.7303C76.6895 26.9973 76.7513 27.2414 76.875 27.4628C76.9987 27.6776 77.1875 27.8794 77.4414 28.0682C77.6953 28.2505 78.0143 28.4231 78.3984 28.5858C78.7826 28.7486 79.235 28.9048 79.7559 29.0546C80.5436 29.2889 81.2305 29.5494 81.8164 29.8358C82.4023 30.1158 82.8906 30.4348 83.2812 30.7928C83.6719 31.1509 83.9648 31.5578 84.1602 32.0135C84.3555 32.4628 84.4531 32.9738 84.4531 33.5468C84.4531 34.1457 84.3327 34.6861 84.0918 35.1678C83.8509 35.6431 83.5059 36.05 83.0566 36.3885C82.6139 36.7206 82.0801 36.9777 81.4551 37.16C80.8366 37.3358 80.1465 37.4237 79.3848 37.4237C78.7012 37.4237 78.0273 37.3326 77.3633 37.1503C76.7057 36.968 76.1068 36.6913 75.5664 36.3202C75.026 35.9426 74.5964 35.4738 74.2773 34.9139C73.9583 34.3475 73.7988 33.6867 73.7988 32.9315H76.25C76.25 33.3938 76.3281 33.7876 76.4844 34.1132C76.6471 34.4387 76.8717 34.7056 77.1582 34.9139C77.4447 35.1158 77.7767 35.2655 78.1543 35.3632C78.5384 35.4608 78.9486 35.5096 79.3848 35.5096C79.9577 35.5096 80.4362 35.4283 80.8203 35.2655C81.2109 35.1027 81.5039 34.8749 81.6992 34.5819C81.8945 34.2889 81.9922 33.9504 81.9922 33.5663ZM94.1016 33.5663C94.1016 33.2733 94.056 33.0129 93.9648 32.785C93.8802 32.5572 93.7272 32.3488 93.5059 32.16C93.2845 31.9712 92.972 31.7889 92.5684 31.6132C92.1712 31.4309 91.6634 31.2453 91.0449 31.0565C90.3678 30.8482 89.7428 30.6171 89.1699 30.3632C88.6035 30.1027 88.1087 29.8033 87.6855 29.4647C87.2624 29.1197 86.9336 28.7258 86.6992 28.2831C86.4648 27.8339 86.3477 27.3163 86.3477 26.7303C86.3477 26.1509 86.4681 25.6236 86.709 25.1483C86.9564 24.6731 87.3047 24.2629 87.7539 23.9178C88.2096 23.5663 88.7467 23.2961 89.3652 23.1073C89.9837 22.912 90.6673 22.8143 91.416 22.8143C92.4707 22.8143 93.3789 23.0096 94.1406 23.4003C94.9089 23.7909 95.498 24.315 95.9082 24.9725C96.3249 25.6301 96.5332 26.356 96.5332 27.1503H94.1016C94.1016 26.6815 94.0007 26.2681 93.7988 25.91C93.6035 25.5455 93.304 25.259 92.9004 25.0507C92.5033 24.8423 91.9987 24.7382 91.3867 24.7382C90.8073 24.7382 90.3255 24.826 89.9414 25.0018C89.5573 25.1776 89.2708 25.4152 89.082 25.7147C88.8932 26.0142 88.7988 26.3527 88.7988 26.7303C88.7988 26.9973 88.8607 27.2414 88.9844 27.4628C89.1081 27.6776 89.2969 27.8794 89.5508 28.0682C89.8047 28.2505 90.1237 28.4231 90.5078 28.5858C90.8919 28.7486 91.3444 28.9048 91.8652 29.0546C92.653 29.2889 93.3398 29.5494 93.9258 29.8358C94.5117 30.1158 95 30.4348 95.3906 30.7928C95.7812 31.1509 96.0742 31.5578 96.2695 32.0135C96.4648 32.4628 96.5625 32.9738 96.5625 33.5468C96.5625 34.1457 96.4421 34.6861 96.2012 35.1678C95.9603 35.6431 95.6152 36.05 95.166 36.3885C94.7233 36.7206 94.1895 36.9777 93.5645 37.16C92.946 37.3358 92.2559 37.4237 91.4941 37.4237C90.8105 37.4237 90.1367 37.3326 89.4727 37.1503C88.8151 36.968 88.2161 36.6913 87.6758 36.3202C87.1354 35.9426 86.7057 35.4738 86.3867 34.9139C86.0677 34.3475 85.9082 33.6867 85.9082 32.9315H88.3594C88.3594 33.3938 88.4375 33.7876 88.5938 34.1132C88.7565 34.4387 88.9811 34.7056 89.2676 34.9139C89.554 35.1158 89.8861 35.2655 90.2637 35.3632C90.6478 35.4608 91.0579 35.5096 91.4941 35.5096C92.0671 35.5096 92.5456 35.4283 92.9297 35.2655C93.3203 35.1027 93.6133 34.8749 93.8086 34.5819C94.0039 34.2889 94.1016 33.9504 94.1016 33.5663ZM106.104 29.0546H107.51C108.057 29.0546 108.509 28.9602 108.867 28.7714C109.232 28.5826 109.502 28.3221 109.678 27.9901C109.854 27.6581 109.941 27.2772 109.941 26.8475C109.941 26.3983 109.86 26.0142 109.697 25.6952C109.541 25.3697 109.3 25.119 108.975 24.9432C108.656 24.7675 108.249 24.6796 107.754 24.6796C107.337 24.6796 106.96 24.7642 106.621 24.9335C106.289 25.0962 106.025 25.3306 105.83 25.6366C105.635 25.9361 105.537 26.2941 105.537 26.7108H103.174C103.174 25.9556 103.372 25.285 103.77 24.6991C104.167 24.1132 104.707 23.6542 105.391 23.3221C106.081 22.9836 106.855 22.8143 107.715 22.8143C108.633 22.8143 109.434 22.9673 110.117 23.2733C110.807 23.5728 111.344 24.022 111.729 24.621C112.113 25.2199 112.305 25.9621 112.305 26.8475C112.305 27.2512 112.21 27.6613 112.021 28.078C111.833 28.4947 111.553 28.8755 111.182 29.2206C110.811 29.5591 110.348 29.8358 109.795 30.0507C109.242 30.259 108.6 30.3632 107.871 30.3632H106.104V29.0546ZM106.104 30.8905V29.6014H107.871C108.704 29.6014 109.414 29.6991 110 29.8944C110.592 30.0897 111.074 30.3599 111.445 30.705C111.816 31.0435 112.087 31.4309 112.256 31.8671C112.432 32.3033 112.52 32.7655 112.52 33.2538C112.52 33.9178 112.399 34.5103 112.158 35.0311C111.924 35.5455 111.589 35.9816 111.152 36.3397C110.716 36.6978 110.205 36.968 109.619 37.1503C109.04 37.3326 108.408 37.4237 107.725 37.4237C107.113 37.4237 106.527 37.3391 105.967 37.1698C105.407 37.0005 104.906 36.7499 104.463 36.4178C104.02 36.0793 103.669 35.6594 103.408 35.1581C103.154 34.6503 103.027 34.0643 103.027 33.4003H105.381C105.381 33.8234 105.479 34.1978 105.674 34.5233C105.876 34.8423 106.156 35.093 106.514 35.2753C106.878 35.4576 107.295 35.5487 107.764 35.5487C108.258 35.5487 108.685 35.4608 109.043 35.285C109.401 35.1093 109.674 34.8488 109.863 34.5038C110.059 34.1587 110.156 33.7421 110.156 33.2538C110.156 32.7004 110.049 32.2512 109.834 31.9061C109.619 31.5611 109.313 31.3072 108.916 31.1444C108.519 30.9751 108.05 30.8905 107.51 30.8905H106.104Z" fill="white"/>
<path d="M17.3775 44.2296L14.57 12.7284H45.43L42.6188 44.2246L29.9813 47.7284L17.3775 44.2296Z" fill="#1572B6"/>
<path d="M30 45.0509L40.2125 42.2197L42.615 15.3047H30V45.0509Z" fill="#33A9DC"/>
<path d="M30 26.7172H35.1125L35.465 22.7609H30V18.8972H39.6875L39.595 19.9334L38.6462 30.5809H30V26.7172Z" fill="white"/>
<path d="M30.0238 36.7509L30.0063 36.7559L25.7038 35.5934L25.4288 32.5121H21.55L22.0913 38.5784L30.005 40.7759L30.0238 40.7709V36.7509Z" fill="#EBEBEB"/>
<path d="M34.7837 30.4171L34.3187 35.5909L30.01 36.7534V40.7734L37.93 38.5784L37.9887 37.9259L38.66 30.4171H34.7837Z" fill="white"/>
<path d="M30.0137 18.8972V22.7609H20.6812L20.6037 21.8922L20.4275 19.9334L20.335 18.8972H30.0137ZM30 26.7172V30.5809H25.7512L25.6737 29.7122L25.4987 27.7534L25.4062 26.7172H30Z" fill="#EBEBEB"/>
<rect x="1.5" y="1.72839" width="177" height="57" rx="6.5" stroke="#293548" stroke-width="3"/>
</svg>
