<svg width="180" height="61" viewBox="0 0 180 61" fill="none" xmlns="http://www.w3.org/2000/svg">
<path d="M65.5762 37.2284H62.5391L62.5586 35.285H65.5762C66.4551 35.285 67.1908 35.093 67.7832 34.7089C68.3822 34.3247 68.8314 33.7746 69.1309 33.0585C69.4368 32.3423 69.5898 31.4895 69.5898 30.4999V29.7284C69.5898 28.9602 69.502 28.2798 69.3262 27.6874C69.1569 27.0949 68.903 26.5969 68.5645 26.1932C68.2324 25.7896 67.8223 25.4836 67.334 25.2753C66.8522 25.0669 66.2956 24.9628 65.6641 24.9628H62.4805V23.0096H65.6641C66.6081 23.0096 67.4707 23.1691 68.252 23.4882C69.0332 23.8007 69.707 24.2531 70.2734 24.8456C70.8464 25.438 71.2858 26.1477 71.5918 26.9745C71.8978 27.8013 72.0508 28.7258 72.0508 29.7479V30.4999C72.0508 31.522 71.8978 32.4465 71.5918 33.2733C71.2858 34.1001 70.8464 34.8098 70.2734 35.4022C69.7005 35.9882 69.0169 36.4406 68.2227 36.7596C67.4349 37.0721 66.5527 37.2284 65.5762 37.2284ZM63.8965 23.0096V37.2284H61.4453V23.0096H63.8965ZM73.8281 32.0624V31.8378C73.8281 31.076 73.9388 30.3697 74.1602 29.7186C74.3815 29.0611 74.7005 28.4914 75.1172 28.0096C75.5404 27.5214 76.0547 27.1438 76.6602 26.8768C77.2721 26.6034 77.9622 26.4667 78.7305 26.4667C79.5052 26.4667 80.1953 26.6034 80.8008 26.8768C81.4128 27.1438 81.9303 27.5214 82.3535 28.0096C82.7767 28.4914 83.099 29.0611 83.3203 29.7186C83.5417 30.3697 83.6523 31.076 83.6523 31.8378V32.0624C83.6523 32.8241 83.5417 33.5305 83.3203 34.1815C83.099 34.8326 82.7767 35.4022 82.3535 35.8905C81.9303 36.3723 81.416 36.7499 80.8105 37.0233C80.2051 37.2902 79.5182 37.4237 78.75 37.4237C77.9753 37.4237 77.2819 37.2902 76.6699 37.0233C76.0645 36.7499 75.5501 36.3723 75.127 35.8905C74.7038 35.4022 74.3815 34.8326 74.1602 34.1815C73.9388 33.5305 73.8281 32.8241 73.8281 32.0624ZM76.1816 31.8378V32.0624C76.1816 32.5376 76.2305 32.9869 76.3281 33.41C76.4258 33.8332 76.5788 34.2043 76.7871 34.5233C76.9954 34.8423 77.2624 35.093 77.5879 35.2753C77.9134 35.4576 78.3008 35.5487 78.75 35.5487C79.1862 35.5487 79.5638 35.4576 79.8828 35.2753C80.2083 35.093 80.4753 34.8423 80.6836 34.5233C80.8919 34.2043 81.0449 33.8332 81.1426 33.41C81.2467 32.9869 81.2988 32.5376 81.2988 32.0624V31.8378C81.2988 31.369 81.2467 30.9263 81.1426 30.5096C81.0449 30.0865 80.8887 29.7121 80.6738 29.3866C80.4655 29.0611 80.1986 28.8072 79.873 28.6249C79.554 28.4361 79.1732 28.3417 78.7305 28.3417C78.2878 28.3417 77.9036 28.4361 77.5781 28.6249C77.2591 28.8072 76.9954 29.0611 76.7871 29.3866C76.5788 29.7121 76.4258 30.0865 76.3281 30.5096C76.2305 30.9263 76.1816 31.369 76.1816 31.8378ZM89.9414 35.5487C90.3255 35.5487 90.6706 35.4738 90.9766 35.3241C91.2891 35.1678 91.5397 34.953 91.7285 34.6796C91.9238 34.4061 92.0312 34.0904 92.0508 33.7323H94.2676C94.2546 34.4159 94.0527 35.0376 93.6621 35.5975C93.2715 36.1574 92.7539 36.6034 92.1094 36.9354C91.4648 37.2609 90.752 37.4237 89.9707 37.4237C89.1634 37.4237 88.4603 37.287 87.8613 37.0135C87.2624 36.7336 86.7643 36.3495 86.3672 35.8612C85.9701 35.3729 85.6706 34.8098 85.4688 34.1718C85.2734 33.5337 85.1758 32.8501 85.1758 32.121V31.7792C85.1758 31.05 85.2734 30.3664 85.4688 29.7284C85.6706 29.0839 85.9701 28.5175 86.3672 28.0292C86.7643 27.5409 87.2624 27.16 87.8613 26.8866C88.4603 26.6066 89.1602 26.4667 89.9609 26.4667C90.8073 26.4667 91.5495 26.6359 92.1875 26.9745C92.8255 27.3065 93.3268 27.772 93.6914 28.371C94.0625 28.9634 94.2546 29.6535 94.2676 30.4413H92.0508C92.0312 30.0507 91.9336 29.6991 91.7578 29.3866C91.5885 29.0676 91.3477 28.8137 91.0352 28.6249C90.7292 28.4361 90.3613 28.3417 89.9316 28.3417C89.4564 28.3417 89.0625 28.4393 88.75 28.6346C88.4375 28.8234 88.1934 29.0839 88.0176 29.4159C87.8418 29.7414 87.7148 30.1093 87.6367 30.5194C87.5651 30.9231 87.5293 31.343 87.5293 31.7792V32.121C87.5293 32.5572 87.5651 32.9803 87.6367 33.3905C87.7083 33.8007 87.832 34.1685 88.0078 34.494C88.1901 34.813 88.4375 35.0702 88.75 35.2655C89.0625 35.4543 89.4596 35.5487 89.9414 35.5487ZM98.4473 22.2284V37.2284H96.084V22.2284H98.4473ZM105.01 26.662L100.41 31.7596L97.8906 34.3378L97.2754 32.3456L99.1797 29.9921L102.168 26.662H105.01ZM102.676 37.2284L99.248 32.2675L100.732 30.6171L105.4 37.2284H102.676ZM110.967 37.4237C110.186 37.4237 109.479 37.2968 108.848 37.0428C108.223 36.7824 107.689 36.4211 107.246 35.9589C106.81 35.4966 106.475 34.953 106.24 34.328C106.006 33.703 105.889 33.0292 105.889 32.3065V31.9159C105.889 31.0891 106.009 30.3404 106.25 29.6698C106.491 28.9992 106.826 28.4263 107.256 27.951C107.686 27.4693 108.193 27.1014 108.779 26.8475C109.365 26.5936 110 26.4667 110.684 26.4667C111.439 26.4667 112.1 26.5936 112.666 26.8475C113.232 27.1014 113.701 27.4595 114.072 27.9218C114.45 28.3775 114.73 28.9211 114.912 29.5526C115.101 30.1841 115.195 30.8807 115.195 31.6425V32.6483H107.031V30.9589H112.871V30.7733C112.858 30.3501 112.773 29.953 112.617 29.5819C112.467 29.2108 112.236 28.9113 111.924 28.6835C111.611 28.4556 111.195 28.3417 110.674 28.3417C110.283 28.3417 109.935 28.4263 109.629 28.5956C109.329 28.7583 109.079 28.996 108.877 29.3085C108.675 29.621 108.519 29.9986 108.408 30.4413C108.304 30.8775 108.252 31.369 108.252 31.9159V32.3065C108.252 32.7688 108.314 33.1984 108.438 33.5956C108.568 33.9862 108.757 34.328 109.004 34.621C109.251 34.9139 109.551 35.1451 109.902 35.3143C110.254 35.4771 110.654 35.5585 111.104 35.5585C111.67 35.5585 112.174 35.4445 112.617 35.2167C113.06 34.9888 113.444 34.6665 113.77 34.2499L115.01 35.451C114.782 35.7831 114.486 36.1021 114.121 36.4081C113.757 36.7076 113.311 36.9517 112.783 37.1405C112.262 37.3293 111.657 37.4237 110.967 37.4237ZM119.395 28.6737V37.2284H117.041V26.662H119.287L119.395 28.6737ZM122.627 26.5936L122.607 28.7811C122.464 28.7551 122.308 28.7356 122.139 28.7225C121.976 28.7095 121.813 28.703 121.65 28.703C121.247 28.703 120.892 28.7616 120.586 28.8788C120.28 28.9895 120.023 29.1522 119.814 29.3671C119.613 29.5754 119.456 29.8293 119.346 30.1288C119.235 30.4283 119.17 30.7635 119.15 31.1346L118.613 31.1737C118.613 30.5096 118.678 29.8944 118.809 29.328C118.939 28.7616 119.134 28.2635 119.395 27.8339C119.661 27.4042 119.993 27.0689 120.391 26.828C120.794 26.5871 121.26 26.4667 121.787 26.4667C121.93 26.4667 122.083 26.4797 122.246 26.5057C122.415 26.5318 122.542 26.5611 122.627 26.5936Z" fill="white"/>
<path d="M49.1691 26.8115C48.2685 26.1866 46.2049 25.9523 44.5916 26.2647C44.4041 24.7027 43.5411 23.336 42.0402 22.1254L41.1774 21.5006L40.5769 22.3988C39.8266 23.5703 39.4514 25.2105 39.5639 26.7726C39.6014 27.3191 39.789 28.2954 40.3518 29.1546C39.8266 29.467 38.7385 29.8575 37.3128 29.8575H10.1859L10.111 30.1699C9.84821 31.7318 9.84821 36.6131 12.9249 40.3619C15.2511 43.2125 18.7029 44.6575 23.2428 44.6575C33.0729 44.6575 40.3518 39.9322 43.7662 31.3803C45.1169 31.4194 48.0059 31.3803 49.4693 28.4515C49.5068 28.3734 49.5817 28.2172 49.8443 27.6315L49.9944 27.3191L49.1691 26.8115ZM31.8723 15.7993H27.7453V19.7044H31.8723V15.7993ZM31.8723 20.4854H27.7453V24.3904H31.8723V20.4852V20.4854ZM26.9947 20.4854H22.8677V24.3904H26.9947V20.4852V20.4854ZM22.1172 20.4854H17.99V24.3904H22.1172V20.4852V20.4854ZM17.2396 25.1714H13.1125V29.0765H17.2394V25.1713L17.2396 25.1714ZM22.1172 25.1714H17.99V29.0765H22.1172V25.1713V25.1714ZM26.9947 25.1714H22.8677V29.0765H26.9947V25.1713V25.1714ZM31.8724 25.1714H27.7451V29.0765H31.8724V25.1713V25.1714ZM36.75 25.1714H32.6227V29.0765H36.75V25.1713V25.1714Z" fill="#2396ED"/>
<rect x="1.5" y="1.72839" width="177" height="57" rx="6.5" stroke="#293548" stroke-width="3"/>
</svg>
