<svg width="180" height="61" viewBox="0 0 180 61" fill="none" xmlns="http://www.w3.org/2000/svg">
<path d="M63.8965 23.0096V37.2284H61.4453V23.0096H63.8965ZM69.6973 29.2303V31.1737H63.2715V29.2303H69.6973ZM70.5078 23.0096V24.9628H63.2715V23.0096H70.5078ZM74.7461 26.662V37.2284H72.3828V26.662H74.7461ZM72.2266 23.8885C72.2266 23.5305 72.3438 23.2343 72.5781 22.9999C72.819 22.759 73.151 22.6385 73.5742 22.6385C73.9909 22.6385 74.3197 22.759 74.5605 22.9999C74.8014 23.2343 74.9219 23.5305 74.9219 23.8885C74.9219 24.2401 74.8014 24.5331 74.5605 24.7675C74.3197 25.0018 73.9909 25.119 73.5742 25.119C73.151 25.119 72.819 25.0018 72.5781 24.7675C72.3438 24.5331 72.2266 24.2401 72.2266 23.8885ZM84.0918 26.662H86.2305V36.9354C86.2305 37.8859 86.0286 38.6932 85.625 39.3573C85.2214 40.0214 84.6582 40.5259 83.9355 40.871C83.2129 41.2225 82.3763 41.3983 81.4258 41.3983C81.0221 41.3983 80.5729 41.3397 80.0781 41.2225C79.5898 41.1053 79.1146 40.9165 78.6523 40.6561C78.1966 40.4022 77.8158 40.0669 77.5098 39.6503L78.6133 38.2635C78.9909 38.7128 79.4076 39.0415 79.8633 39.2499C80.319 39.4582 80.7975 39.5624 81.2988 39.5624C81.8392 39.5624 82.2982 39.4615 82.6758 39.2596C83.0599 39.0643 83.3561 38.7746 83.5645 38.3905C83.7728 38.0064 83.877 37.5376 83.877 36.9843V29.0546L84.0918 26.662ZM76.9141 32.0624V31.8573C76.9141 31.0565 77.0117 30.3274 77.207 29.6698C77.4023 29.0057 77.6823 28.4361 78.0469 27.9608C78.4115 27.479 78.8542 27.1112 79.375 26.8573C79.8958 26.5969 80.485 26.4667 81.1426 26.4667C81.8262 26.4667 82.4089 26.5904 82.8906 26.8378C83.3789 27.0852 83.7858 27.44 84.1113 27.9022C84.4368 28.358 84.6908 28.9048 84.873 29.5428C85.0618 30.1744 85.2018 30.8775 85.293 31.6522V32.3065C85.2083 33.0617 85.0651 33.7518 84.8633 34.3768C84.6615 35.0018 84.3945 35.5422 84.0625 35.9979C83.7305 36.4537 83.3203 36.8052 82.832 37.0526C82.3503 37.3 81.7806 37.4237 81.123 37.4237C80.4785 37.4237 79.8958 37.2902 79.375 37.0233C78.8607 36.7564 78.418 36.382 78.0469 35.9003C77.6823 35.4185 77.4023 34.8521 77.207 34.201C77.0117 33.5435 76.9141 32.8306 76.9141 32.0624ZM79.2676 31.8573V32.0624C79.2676 32.5441 79.3132 32.9934 79.4043 33.41C79.502 33.8267 79.6484 34.1945 79.8438 34.5135C80.0456 34.826 80.2995 35.0734 80.6055 35.2557C80.918 35.4315 81.2858 35.5194 81.709 35.5194C82.2624 35.5194 82.7148 35.4022 83.0664 35.1678C83.4245 34.9335 83.6979 34.6177 83.8867 34.2206C84.082 33.8169 84.2188 33.3677 84.2969 32.8729V31.1053C84.2578 30.7212 84.1764 30.3632 84.0527 30.0311C83.9355 29.6991 83.776 29.4094 83.5742 29.162C83.3724 28.9081 83.1185 28.7128 82.8125 28.576C82.5065 28.4328 82.1452 28.3612 81.7285 28.3612C81.3053 28.3612 80.9375 28.4524 80.625 28.6346C80.3125 28.8169 80.0553 29.0676 79.8535 29.3866C79.6582 29.7056 79.5117 30.0767 79.4141 30.4999C79.3164 30.9231 79.2676 31.3755 79.2676 31.8573ZM91.0254 28.8104V37.2284H88.6719V26.662H90.8887L91.0254 28.8104ZM90.6445 31.5546L89.8438 31.5448C89.8438 30.8156 89.9349 30.1418 90.1172 29.5233C90.2995 28.9048 90.5664 28.3677 90.918 27.912C91.2695 27.4497 91.7057 27.0949 92.2266 26.8475C92.7539 26.5936 93.3626 26.4667 94.0527 26.4667C94.5345 26.4667 94.974 26.5383 95.3711 26.6815C95.7747 26.8182 96.123 27.0363 96.416 27.3358C96.7155 27.6353 96.9434 28.0194 97.0996 28.4882C97.2624 28.9569 97.3438 29.5233 97.3438 30.1874V37.2284H94.9902V30.3925C94.9902 29.8781 94.9121 29.4745 94.7559 29.1815C94.6061 28.8885 94.388 28.6802 94.1016 28.5565C93.8216 28.4263 93.4863 28.3612 93.0957 28.3612C92.653 28.3612 92.2754 28.4458 91.9629 28.6151C91.6569 28.7844 91.4062 29.0155 91.2109 29.3085C91.0156 29.6014 90.8724 29.94 90.7812 30.3241C90.6901 30.7082 90.6445 31.1184 90.6445 31.5546ZM97.1973 30.9296L96.0938 31.1737C96.0938 30.5357 96.1816 29.9335 96.3574 29.3671C96.5397 28.7941 96.8034 28.2928 97.1484 27.8632C97.5 27.427 97.9329 27.0852 98.4473 26.8378C98.9616 26.5904 99.5508 26.4667 100.215 26.4667C100.755 26.4667 101.237 26.5415 101.66 26.6913C102.09 26.8345 102.454 27.0624 102.754 27.3749C103.053 27.6874 103.281 28.0943 103.438 28.5956C103.594 29.0904 103.672 29.6893 103.672 30.3925V37.2284H101.309V30.3827C101.309 29.8488 101.23 29.4354 101.074 29.1425C100.924 28.8495 100.71 28.6477 100.43 28.537C100.15 28.4198 99.8145 28.3612 99.4238 28.3612C99.0592 28.3612 98.737 28.4296 98.457 28.5663C98.1836 28.6965 97.9525 28.882 97.7637 29.1229C97.5749 29.3573 97.4316 29.6275 97.334 29.9335C97.2428 30.2395 97.1973 30.5715 97.1973 30.9296ZM112.051 35.1093V30.0702C112.051 29.6926 111.982 29.3671 111.846 29.0936C111.709 28.8202 111.501 28.6086 111.221 28.4589C110.947 28.3091 110.602 28.2343 110.186 28.2343C109.801 28.2343 109.469 28.2994 109.189 28.4296C108.91 28.5598 108.691 28.7356 108.535 28.9569C108.379 29.1783 108.301 29.4289 108.301 29.7089H105.957C105.957 29.2922 106.058 28.8885 106.26 28.4979C106.462 28.1073 106.755 27.759 107.139 27.453C107.523 27.147 107.982 26.9061 108.516 26.7303C109.049 26.5546 109.648 26.4667 110.312 26.4667C111.107 26.4667 111.81 26.6001 112.422 26.8671C113.04 27.134 113.525 27.5376 113.877 28.078C114.235 28.6119 114.414 29.2824 114.414 30.0897V34.787C114.414 35.2688 114.447 35.7017 114.512 36.0858C114.583 36.4634 114.684 36.7922 114.814 37.0721V37.2284H112.402C112.292 36.9745 112.204 36.6522 112.139 36.2616C112.08 35.8645 112.051 35.4803 112.051 35.1093ZM112.393 30.8026L112.412 32.2577H110.723C110.286 32.2577 109.902 32.3 109.57 32.3846C109.238 32.4628 108.962 32.58 108.74 32.7362C108.519 32.8925 108.353 33.0813 108.242 33.3026C108.132 33.524 108.076 33.7746 108.076 34.0546C108.076 34.3345 108.141 34.5917 108.271 34.826C108.402 35.0539 108.59 35.233 108.838 35.3632C109.092 35.4934 109.398 35.5585 109.756 35.5585C110.238 35.5585 110.658 35.4608 111.016 35.2655C111.38 35.0637 111.667 34.8195 111.875 34.5331C112.083 34.2401 112.194 33.9634 112.207 33.703L112.969 34.7479C112.891 35.0149 112.757 35.3013 112.568 35.6073C112.38 35.9133 112.132 36.2063 111.826 36.4862C111.527 36.7596 111.165 36.9843 110.742 37.16C110.326 37.3358 109.844 37.4237 109.297 37.4237C108.607 37.4237 107.992 37.287 107.451 37.0135C106.911 36.7336 106.488 36.3593 106.182 35.8905C105.876 35.4152 105.723 34.8781 105.723 34.2792C105.723 33.7193 105.827 33.2245 106.035 32.7948C106.25 32.3586 106.562 31.994 106.973 31.701C107.389 31.4081 107.897 31.1867 108.496 31.037C109.095 30.8807 109.779 30.8026 110.547 30.8026H112.393Z" fill="white"/>
<g clip-path="url(#clip0_746_1056)">
<path d="M23.3333 50.2284C27.0133 50.2284 30 47.2417 30 43.5617V36.8951H23.3333C19.6533 36.8951 16.6667 39.8817 16.6667 43.5617C16.6667 47.2417 19.6533 50.2284 23.3333 50.2284Z" fill="#0ACF83"/>
<path d="M16.6667 30.2284C16.6667 26.5484 19.6533 23.5617 23.3333 23.5617H30V36.895H23.3333C19.6533 36.895 16.6667 33.9084 16.6667 30.2284Z" fill="#A259FF"/>
<path d="M16.6667 16.8951C16.6667 13.2151 19.6533 10.2284 23.3333 10.2284H30V23.5617H23.3333C19.6533 23.5617 16.6667 20.5751 16.6667 16.8951Z" fill="#F24E1E"/>
<path d="M30 10.2284H36.6667C40.3467 10.2284 43.3333 13.2151 43.3333 16.8951C43.3333 20.5751 40.3467 23.5617 36.6667 23.5617H30V10.2284Z" fill="#FF7262"/>
<path d="M43.3333 30.2284C43.3333 33.9084 40.3467 36.895 36.6667 36.895C32.9867 36.895 30 33.9084 30 30.2284C30 26.5484 32.9867 23.5617 36.6667 23.5617C40.3467 23.5617 43.3333 26.5484 43.3333 30.2284Z" fill="#1ABCFE"/>
</g>
<rect x="1.5" y="1.72839" width="177" height="57" rx="6.5" stroke="#293548" stroke-width="3"/>
<defs>
<clipPath id="clip0_746_1056">
<rect width="40" height="40" fill="white" transform="translate(10 10.2284)"/>
</clipPath>
</defs>
</svg>
