<svg width="180" height="61" viewBox="0 0 180 61" fill="none" xmlns="http://www.w3.org/2000/svg">
<path d="M72.3633 29.9628V35.3925C72.1615 35.6594 71.8457 35.9524 71.416 36.2714C70.9928 36.5839 70.4297 36.854 69.7266 37.0819C69.0234 37.3098 68.1478 37.4237 67.0996 37.4237C66.2077 37.4237 65.3906 37.274 64.6484 36.9745C63.9062 36.6685 63.265 36.2225 62.7246 35.6366C62.1908 35.0507 61.7773 34.3378 61.4844 33.4979C61.1914 32.6516 61.0449 31.688 61.0449 30.6073V29.621C61.0449 28.5468 61.1784 27.5897 61.4453 26.7499C61.7188 25.9035 62.1094 25.1874 62.6172 24.6014C63.125 24.0155 63.737 23.5728 64.4531 23.2733C65.1758 22.9673 65.9928 22.8143 66.9043 22.8143C68.0697 22.8143 69.0332 23.0096 69.7949 23.4003C70.5632 23.7844 71.1556 24.3182 71.5723 25.0018C71.9889 25.6854 72.2526 26.4667 72.3633 27.3456H69.9609C69.8828 26.8508 69.7298 26.4081 69.502 26.0175C69.2806 25.6268 68.9616 25.3208 68.5449 25.0995C68.1348 24.8716 67.6009 24.7577 66.9434 24.7577C66.377 24.7577 65.8789 24.8651 65.4492 25.08C65.0195 25.2948 64.6615 25.6106 64.375 26.0272C64.0951 26.4439 63.8835 26.9517 63.7402 27.5507C63.597 28.1496 63.5254 28.8332 63.5254 29.6014V30.6073C63.5254 31.3885 63.6068 32.0819 63.7695 32.6874C63.9388 33.2928 64.1797 33.8039 64.4922 34.2206C64.8112 34.6372 65.1986 34.953 65.6543 35.1678C66.11 35.3762 66.6243 35.4803 67.1973 35.4803C67.7572 35.4803 68.2161 35.4348 68.5742 35.3436C68.9323 35.246 69.2155 35.132 69.4238 35.0018C69.6387 34.8651 69.8047 34.7349 69.9219 34.6112V31.7889H66.9629V29.9628H72.3633ZM77.3633 26.662V37.2284H75V26.662H77.3633ZM74.8438 23.8885C74.8438 23.5305 74.9609 23.2343 75.1953 22.9999C75.4362 22.759 75.7682 22.6385 76.1914 22.6385C76.6081 22.6385 76.9368 22.759 77.1777 22.9999C77.4186 23.2343 77.5391 23.5305 77.5391 23.8885C77.5391 24.2401 77.4186 24.5331 77.1777 24.7675C76.9368 25.0018 76.6081 25.119 76.1914 25.119C75.7682 25.119 75.4362 25.0018 75.1953 24.7675C74.9609 24.5331 74.8438 24.2401 74.8438 23.8885ZM84.7852 26.662V28.3807H78.8281V26.662H84.7852ZM80.5469 24.0741H82.9004V34.3085C82.9004 34.634 82.946 34.8846 83.0371 35.0604C83.1348 35.2297 83.2682 35.3436 83.4375 35.4022C83.6068 35.4608 83.8053 35.4901 84.0332 35.4901C84.196 35.4901 84.3522 35.4803 84.502 35.4608C84.6517 35.4413 84.7721 35.4218 84.8633 35.4022L84.873 37.1991C84.6777 37.2577 84.4499 37.3098 84.1895 37.3553C83.9355 37.4009 83.6426 37.4237 83.3105 37.4237C82.7702 37.4237 82.2917 37.3293 81.875 37.1405C81.4583 36.9452 81.1328 36.6294 80.8984 36.1932C80.6641 35.757 80.5469 35.1776 80.5469 34.455V24.0741Z" fill="white"/>
<g clip-path="url(#clip0_746_1043)">
<path d="M49.2456 28.4462L31.7812 10.9828C30.7761 9.97698 29.1448 9.97698 28.1384 10.9828L24.5119 14.6093L29.1123 19.2098C30.1814 18.8485 31.4073 19.0909 32.2595 19.9431C33.1158 20.8007 33.3564 22.0371 32.9864 23.1096L37.42 27.5434C38.4927 27.1739 39.7303 27.4129 40.587 28.271C41.7844 29.4679 41.7844 31.4078 40.587 32.6054C39.3894 33.8032 37.4495 33.8032 36.2512 32.6054C35.3506 31.7039 35.1281 30.3812 35.5841 29.2717L31.4494 25.137L31.4489 36.0178C31.7486 36.166 32.0224 36.3617 32.2595 36.5974C33.4569 37.7943 33.4569 39.7343 32.2595 40.9329C31.0619 42.1301 29.1211 42.1301 27.9252 40.9329C26.7278 39.7343 26.7278 37.7945 27.9252 36.5976C28.2121 36.3105 28.5531 36.0832 28.9284 35.9287V24.9465C28.5525 24.7931 28.2114 24.5656 27.9252 24.2776C27.018 23.3717 26.7998 22.0406 27.2647 20.9267L22.7297 16.3912L10.7547 28.3654C9.74844 29.3721 9.74844 31.0035 10.7547 32.0095L28.2194 49.4732C29.2248 50.4792 30.8558 50.4792 31.8625 49.4732L49.2455 32.0906C50.2514 31.0843 50.2514 29.452 49.2455 28.4462" fill="#DE4C36"/>
</g>
<rect x="1.5" y="1.72839" width="177" height="57" rx="6.5" stroke="#293548" stroke-width="3"/>
<defs>
<clipPath id="clip0_746_1043">
<rect width="40" height="40" fill="white" transform="translate(10 10.2284)"/>
</clipPath>
</defs>
</svg>
