<svg width="180" height="61" viewBox="0 0 180 61" fill="none" xmlns="http://www.w3.org/2000/svg">
<path d="M70.8398 28.9471V30.8905H63.291V28.9471H70.8398ZM63.8965 23.0096V37.2284H61.4453V23.0096H63.8965ZM72.7246 23.0096V37.2284H70.2832V23.0096H72.7246ZM81.2012 23.0096V37.2284H78.7695V23.0096H81.2012ZM85.6641 23.0096V24.9628H74.3457V23.0096H85.6641ZM88.5352 23.0096H90.7227L94.834 33.9764L98.9355 23.0096H101.123L95.6934 37.2284H93.9551L88.5352 23.0096ZM87.5391 23.0096H89.6191L89.9805 32.5018V37.2284H87.5391V23.0096ZM100.039 23.0096H102.129V37.2284H99.6777V32.5018L100.039 23.0096ZM113.945 35.285V37.2284H106.807V35.285H113.945ZM107.49 23.0096V37.2284H105.039V23.0096H107.49ZM122.92 30.6171L121.045 30.1581L121.816 23.0096H129.482V25.0018H123.77L123.379 28.4882C123.6 28.358 123.906 28.231 124.297 28.1073C124.688 27.9771 125.133 27.912 125.635 27.912C126.305 27.912 126.904 28.0227 127.432 28.244C127.965 28.4589 128.418 28.7746 128.789 29.1913C129.16 29.6014 129.443 30.1027 129.639 30.6952C129.834 31.2811 129.932 31.9419 129.932 32.6776C129.932 33.3352 129.834 33.9504 129.639 34.5233C129.45 35.0962 129.163 35.6008 128.779 36.037C128.395 36.4732 127.91 36.815 127.324 37.0624C126.745 37.3033 126.058 37.4237 125.264 37.4237C124.671 37.4237 124.102 37.3391 123.555 37.1698C123.014 36.994 122.529 36.7369 122.1 36.3983C121.67 36.0533 121.325 35.6301 121.064 35.1288C120.804 34.621 120.654 34.0383 120.615 33.3807H122.92C122.979 33.843 123.105 34.2369 123.301 34.5624C123.503 34.8814 123.77 35.1255 124.102 35.2948C124.434 35.4641 124.818 35.5487 125.254 35.5487C125.651 35.5487 125.993 35.4803 126.279 35.3436C126.566 35.2004 126.803 34.9986 126.992 34.7382C127.188 34.4712 127.331 34.1587 127.422 33.8007C127.52 33.4426 127.568 33.0455 127.568 32.6093C127.568 32.1926 127.513 31.8117 127.402 31.4667C127.298 31.1216 127.139 30.8221 126.924 30.5682C126.715 30.3143 126.452 30.119 126.133 29.9823C125.814 29.8391 125.446 29.7675 125.029 29.7675C124.469 29.7675 124.04 29.8488 123.74 30.0116C123.447 30.1744 123.174 30.3762 122.92 30.6171Z" fill="white"/>
<path d="M17.3775 44.2296L14.5688 12.7284H45.4313L42.6188 44.2246L29.9813 47.7284L17.3775 44.2296Z" fill="#E44F26"/>
<path d="M30 45.0509L40.2125 42.2197L42.615 15.3047H30V45.0509Z" fill="#F1662A"/>
<path d="M30 26.9871H24.8875L24.535 23.0309H30V19.1671H20.3125L20.405 20.2046L21.3538 30.8509H30V26.9871ZM30 37.0209L29.9825 37.0259L25.68 35.8646L25.405 32.7834H21.5262L22.0675 38.8484L29.9825 41.0459L30 41.0409V37.0209Z" fill="#EBEBEB"/>
<path d="M29.9863 26.9871V30.8509H34.7438L34.2963 35.8621L29.9863 37.0246V41.0446L37.9075 38.8484L37.965 38.1959L38.8725 28.0246L38.9675 26.9871H29.9863ZM29.9863 19.1671V23.0309H39.3188L39.3963 22.1634L39.5725 20.2046L39.665 19.1671H29.9863Z" fill="white"/>
<rect x="1.5" y="1.72839" width="177" height="57" rx="6.5" stroke="#293548" stroke-width="3"/>
</svg>
