<svg width="180" height="61" viewBox="0 0 180 61" fill="none" xmlns="http://www.w3.org/2000/svg">
<path d="M67.2949 32.9608V23.0096H69.7363V32.9608C69.7363 33.9048 69.5345 34.7089 69.1309 35.3729C68.7272 36.037 68.1771 36.5448 67.4805 36.8964C66.7839 37.2479 65.9928 37.4237 65.1074 37.4237C64.2025 37.4237 63.3984 37.2707 62.6953 36.9647C61.9987 36.6587 61.4518 36.19 61.0547 35.5585C60.6576 34.927 60.459 34.1262 60.459 33.1561H62.9199C62.9199 33.716 63.0078 34.1685 63.1836 34.5135C63.3659 34.8521 63.6198 35.0995 63.9453 35.2557C64.2773 35.4055 64.6647 35.4803 65.1074 35.4803C65.5306 35.4803 65.9049 35.3859 66.2305 35.1971C66.5625 35.0018 66.8229 34.7186 67.0117 34.3475C67.2005 33.9699 67.2949 33.5077 67.2949 32.9608ZM78.2812 35.1093V30.0702C78.2812 29.6926 78.2129 29.3671 78.0762 29.0936C77.9395 28.8202 77.7311 28.6086 77.4512 28.4589C77.1777 28.3091 76.8327 28.2343 76.416 28.2343C76.0319 28.2343 75.6999 28.2994 75.4199 28.4296C75.14 28.5598 74.9219 28.7356 74.7656 28.9569C74.6094 29.1783 74.5312 29.4289 74.5312 29.7089H72.1875C72.1875 29.2922 72.2884 28.8885 72.4902 28.4979C72.6921 28.1073 72.985 27.759 73.3691 27.453C73.7533 27.147 74.2122 26.9061 74.7461 26.7303C75.2799 26.5546 75.8789 26.4667 76.543 26.4667C77.3372 26.4667 78.0404 26.6001 78.6523 26.8671C79.2708 27.134 79.7559 27.5376 80.1074 28.078C80.4655 28.6119 80.6445 29.2824 80.6445 30.0897V34.787C80.6445 35.2688 80.6771 35.7017 80.7422 36.0858C80.8138 36.4634 80.9147 36.7922 81.0449 37.0721V37.2284H78.6328C78.5221 36.9745 78.4342 36.6522 78.3691 36.2616C78.3105 35.8645 78.2812 35.4803 78.2812 35.1093ZM78.623 30.8026L78.6426 32.2577H76.9531C76.5169 32.2577 76.1328 32.3 75.8008 32.3846C75.4688 32.4628 75.1921 32.58 74.9707 32.7362C74.7493 32.8925 74.5833 33.0813 74.4727 33.3026C74.362 33.524 74.3066 33.7746 74.3066 34.0546C74.3066 34.3345 74.3717 34.5917 74.502 34.826C74.6322 35.0539 74.821 35.233 75.0684 35.3632C75.3223 35.4934 75.6283 35.5585 75.9863 35.5585C76.4681 35.5585 76.888 35.4608 77.2461 35.2655C77.6107 35.0637 77.8971 34.8195 78.1055 34.5331C78.3138 34.2401 78.4245 33.9634 78.4375 33.703L79.1992 34.7479C79.1211 35.0149 78.9876 35.3013 78.7988 35.6073C78.61 35.9133 78.3626 36.2063 78.0566 36.4862C77.7572 36.7596 77.3958 36.9843 76.9727 37.16C76.556 37.3358 76.0742 37.4237 75.5273 37.4237C74.8372 37.4237 74.222 37.287 73.6816 37.0135C73.1413 36.7336 72.7181 36.3593 72.4121 35.8905C72.1061 35.4152 71.9531 34.8781 71.9531 34.2792C71.9531 33.7193 72.0573 33.2245 72.2656 32.7948C72.4805 32.3586 72.793 31.994 73.2031 31.701C73.6198 31.4081 74.1276 31.1867 74.7266 31.037C75.3255 30.8807 76.0091 30.8026 76.7773 30.8026H78.623ZM86.3867 35.3632L88.9746 26.662H91.416L87.7441 37.2284H86.2207L86.3867 35.3632ZM84.4043 26.662L87.041 35.4022L87.168 37.2284H85.6445L81.9531 26.662H84.4043ZM98.6719 35.1093V30.0702C98.6719 29.6926 98.6035 29.3671 98.4668 29.0936C98.3301 28.8202 98.1217 28.6086 97.8418 28.4589C97.5684 28.3091 97.2233 28.2343 96.8066 28.2343C96.4225 28.2343 96.0905 28.2994 95.8105 28.4296C95.5306 28.5598 95.3125 28.7356 95.1562 28.9569C95 29.1783 94.9219 29.4289 94.9219 29.7089H92.5781C92.5781 29.2922 92.679 28.8885 92.8809 28.4979C93.0827 28.1073 93.3757 27.759 93.7598 27.453C94.1439 27.147 94.6029 26.9061 95.1367 26.7303C95.6706 26.5546 96.2695 26.4667 96.9336 26.4667C97.7279 26.4667 98.431 26.6001 99.043 26.8671C99.6615 27.134 100.146 27.5376 100.498 28.078C100.856 28.6119 101.035 29.2824 101.035 30.0897V34.787C101.035 35.2688 101.068 35.7017 101.133 36.0858C101.204 36.4634 101.305 36.7922 101.436 37.0721V37.2284H99.0234C98.9128 36.9745 98.8249 36.6522 98.7598 36.2616C98.7012 35.8645 98.6719 35.4803 98.6719 35.1093ZM99.0137 30.8026L99.0332 32.2577H97.3438C96.9076 32.2577 96.5234 32.3 96.1914 32.3846C95.8594 32.4628 95.5827 32.58 95.3613 32.7362C95.14 32.8925 94.974 33.0813 94.8633 33.3026C94.7526 33.524 94.6973 33.7746 94.6973 34.0546C94.6973 34.3345 94.7624 34.5917 94.8926 34.826C95.0228 35.0539 95.2116 35.233 95.459 35.3632C95.7129 35.4934 96.0189 35.5585 96.377 35.5585C96.8587 35.5585 97.2786 35.4608 97.6367 35.2655C98.0013 35.0637 98.2878 34.8195 98.4961 34.5331C98.7044 34.2401 98.8151 33.9634 98.8281 33.703L99.5898 34.7479C99.5117 35.0149 99.3783 35.3013 99.1895 35.6073C99.0007 35.9133 98.7533 36.2063 98.4473 36.4862C98.1478 36.7596 97.7865 36.9843 97.3633 37.16C96.9466 37.3358 96.4648 37.4237 95.918 37.4237C95.2279 37.4237 94.6126 37.287 94.0723 37.0135C93.5319 36.7336 93.1087 36.3593 92.8027 35.8905C92.4967 35.4152 92.3438 34.8781 92.3438 34.2792C92.3438 33.7193 92.4479 33.2245 92.6562 32.7948C92.8711 32.3586 93.1836 31.994 93.5938 31.701C94.0104 31.4081 94.5182 31.1867 95.1172 31.037C95.7161 30.8807 96.3997 30.8026 97.168 30.8026H99.0137ZM111.211 33.5663C111.211 33.2733 111.165 33.0129 111.074 32.785C110.99 32.5572 110.837 32.3488 110.615 32.16C110.394 31.9712 110.081 31.7889 109.678 31.6132C109.281 31.4309 108.773 31.2453 108.154 31.0565C107.477 30.8482 106.852 30.6171 106.279 30.3632C105.713 30.1027 105.218 29.8033 104.795 29.4647C104.372 29.1197 104.043 28.7258 103.809 28.2831C103.574 27.8339 103.457 27.3163 103.457 26.7303C103.457 26.1509 103.577 25.6236 103.818 25.1483C104.066 24.6731 104.414 24.2629 104.863 23.9178C105.319 23.5663 105.856 23.2961 106.475 23.1073C107.093 22.912 107.777 22.8143 108.525 22.8143C109.58 22.8143 110.488 23.0096 111.25 23.4003C112.018 23.7909 112.607 24.315 113.018 24.9725C113.434 25.6301 113.643 26.356 113.643 27.1503H111.211C111.211 26.6815 111.11 26.2681 110.908 25.91C110.713 25.5455 110.413 25.259 110.01 25.0507C109.613 24.8423 109.108 24.7382 108.496 24.7382C107.917 24.7382 107.435 24.826 107.051 25.0018C106.667 25.1776 106.38 25.4152 106.191 25.7147C106.003 26.0142 105.908 26.3527 105.908 26.7303C105.908 26.9973 105.97 27.2414 106.094 27.4628C106.217 27.6776 106.406 27.8794 106.66 28.0682C106.914 28.2505 107.233 28.4231 107.617 28.5858C108.001 28.7486 108.454 28.9048 108.975 29.0546C109.762 29.2889 110.449 29.5494 111.035 29.8358C111.621 30.1158 112.109 30.4348 112.5 30.7928C112.891 31.1509 113.184 31.5578 113.379 32.0135C113.574 32.4628 113.672 32.9738 113.672 33.5468C113.672 34.1457 113.551 34.6861 113.311 35.1678C113.07 35.6431 112.725 36.05 112.275 36.3885C111.833 36.7206 111.299 36.9777 110.674 37.16C110.055 37.3358 109.365 37.4237 108.604 37.4237C107.92 37.4237 107.246 37.3326 106.582 37.1503C105.924 36.968 105.326 36.6913 104.785 36.3202C104.245 35.9426 103.815 35.4738 103.496 34.9139C103.177 34.3475 103.018 33.6867 103.018 32.9315H105.469C105.469 33.3938 105.547 33.7876 105.703 34.1132C105.866 34.4387 106.09 34.7056 106.377 34.9139C106.663 35.1158 106.995 35.2655 107.373 35.3632C107.757 35.4608 108.167 35.5096 108.604 35.5096C109.176 35.5096 109.655 35.4283 110.039 35.2655C110.43 35.1027 110.723 34.8749 110.918 34.5819C111.113 34.2889 111.211 33.9504 111.211 33.5663ZM119.922 35.5487C120.306 35.5487 120.651 35.4738 120.957 35.3241C121.27 35.1678 121.52 34.953 121.709 34.6796C121.904 34.4061 122.012 34.0904 122.031 33.7323H124.248C124.235 34.4159 124.033 35.0376 123.643 35.5975C123.252 36.1574 122.734 36.6034 122.09 36.9354C121.445 37.2609 120.732 37.4237 119.951 37.4237C119.144 37.4237 118.441 37.287 117.842 37.0135C117.243 36.7336 116.745 36.3495 116.348 35.8612C115.951 35.3729 115.651 34.8098 115.449 34.1718C115.254 33.5337 115.156 32.8501 115.156 32.121V31.7792C115.156 31.05 115.254 30.3664 115.449 29.7284C115.651 29.0839 115.951 28.5175 116.348 28.0292C116.745 27.5409 117.243 27.16 117.842 26.8866C118.441 26.6066 119.141 26.4667 119.941 26.4667C120.788 26.4667 121.53 26.6359 122.168 26.9745C122.806 27.3065 123.307 27.772 123.672 28.371C124.043 28.9634 124.235 29.6535 124.248 30.4413H122.031C122.012 30.0507 121.914 29.6991 121.738 29.3866C121.569 29.0676 121.328 28.8137 121.016 28.6249C120.71 28.4361 120.342 28.3417 119.912 28.3417C119.437 28.3417 119.043 28.4393 118.73 28.6346C118.418 28.8234 118.174 29.0839 117.998 29.4159C117.822 29.7414 117.695 30.1093 117.617 30.5194C117.546 30.9231 117.51 31.343 117.51 31.7792V32.121C117.51 32.5572 117.546 32.9803 117.617 33.3905C117.689 33.8007 117.812 34.1685 117.988 34.494C118.171 34.813 118.418 35.0702 118.73 35.2655C119.043 35.4543 119.44 35.5487 119.922 35.5487ZM128.418 28.6737V37.2284H126.064V26.662H128.311L128.418 28.6737ZM131.65 26.5936L131.631 28.7811C131.488 28.7551 131.331 28.7356 131.162 28.7225C130.999 28.7095 130.837 28.703 130.674 28.703C130.27 28.703 129.915 28.7616 129.609 28.8788C129.303 28.9895 129.046 29.1522 128.838 29.3671C128.636 29.5754 128.48 29.8293 128.369 30.1288C128.258 30.4283 128.193 30.7635 128.174 31.1346L127.637 31.1737C127.637 30.5096 127.702 29.8944 127.832 29.328C127.962 28.7616 128.158 28.2635 128.418 27.8339C128.685 27.4042 129.017 27.0689 129.414 26.828C129.818 26.5871 130.283 26.4667 130.811 26.4667C130.954 26.4667 131.107 26.4797 131.27 26.5057C131.439 26.5318 131.566 26.5611 131.65 26.5936ZM135.645 26.662V37.2284H133.281V26.662H135.645ZM133.125 23.8885C133.125 23.5305 133.242 23.2343 133.477 22.9999C133.717 22.759 134.049 22.6385 134.473 22.6385C134.889 22.6385 135.218 22.759 135.459 22.9999C135.7 23.2343 135.82 23.5305 135.82 23.8885C135.82 24.2401 135.7 24.5331 135.459 24.7675C135.218 25.0018 134.889 25.119 134.473 25.119C134.049 25.119 133.717 25.0018 133.477 24.7675C133.242 24.5331 133.125 24.2401 133.125 23.8885ZM140.586 28.6932V41.2909H138.232V26.662H140.4L140.586 28.6932ZM147.471 31.8475V32.0526C147.471 32.8208 147.38 33.5337 147.197 34.1913C147.021 34.8423 146.758 35.412 146.406 35.9003C146.061 36.382 145.635 36.7564 145.127 37.0233C144.619 37.2902 144.033 37.4237 143.369 37.4237C142.712 37.4237 142.135 37.3033 141.641 37.0624C141.152 36.815 140.739 36.4667 140.4 36.0175C140.062 35.5682 139.788 35.0409 139.58 34.4354C139.378 33.8234 139.235 33.1529 139.15 32.4237V31.6327C139.235 30.858 139.378 30.1548 139.58 29.5233C139.788 28.8918 140.062 28.3482 140.4 27.8925C140.739 27.4367 141.152 27.0852 141.641 26.8378C142.129 26.5904 142.699 26.4667 143.35 26.4667C144.014 26.4667 144.603 26.5969 145.117 26.8573C145.632 27.1112 146.064 27.4758 146.416 27.951C146.768 28.4198 147.031 28.9862 147.207 29.6503C147.383 30.3078 147.471 31.0402 147.471 31.8475ZM145.117 32.0526V31.8475C145.117 31.3593 145.072 30.9068 144.98 30.4901C144.889 30.0669 144.746 29.6958 144.551 29.3768C144.355 29.0578 144.105 28.8104 143.799 28.6346C143.499 28.4524 143.138 28.3612 142.715 28.3612C142.298 28.3612 141.94 28.4328 141.641 28.576C141.341 28.7128 141.09 28.9048 140.889 29.1522C140.687 29.3996 140.531 29.6893 140.42 30.0214C140.309 30.3469 140.231 30.7017 140.186 31.0858V32.9803C140.264 33.4491 140.397 33.8788 140.586 34.2694C140.775 34.66 141.042 34.9725 141.387 35.2069C141.738 35.4348 142.188 35.5487 142.734 35.5487C143.158 35.5487 143.519 35.4576 143.818 35.2753C144.118 35.093 144.362 34.8423 144.551 34.5233C144.746 34.1978 144.889 33.8234 144.98 33.4003C145.072 32.9771 145.117 32.5279 145.117 32.0526ZM154.316 26.662V28.3807H148.359V26.662H154.316ZM150.078 24.0741H152.432V34.3085C152.432 34.634 152.477 34.8846 152.568 35.0604C152.666 35.2297 152.799 35.3436 152.969 35.4022C153.138 35.4608 153.337 35.4901 153.564 35.4901C153.727 35.4901 153.883 35.4803 154.033 35.4608C154.183 35.4413 154.303 35.4218 154.395 35.4022L154.404 37.1991C154.209 37.2577 153.981 37.3098 153.721 37.3553C153.467 37.4009 153.174 37.4237 152.842 37.4237C152.301 37.4237 151.823 37.3293 151.406 37.1405C150.99 36.9452 150.664 36.6294 150.43 36.1932C150.195 35.757 150.078 35.1776 150.078 34.455V24.0741Z" fill="white"/>
<g clip-path="url(#clip0_746_1120)">
<path d="M10 10.2284H50V50.2284H10V10.2284Z" fill="#F7DF1E"/>
<path d="M20.5175 43.6553L23.5784 41.8028C24.1691 42.8498 24.7063 43.7358 25.9948 43.7358C27.23 43.7358 28.0089 43.2526 28.0089 41.3733V28.5923H31.7678V41.4264C31.7678 45.3197 29.4856 47.0919 26.1559 47.0919C23.1489 47.0919 21.4034 45.5345 20.5173 43.655M33.8095 43.2525L36.8702 41.4804C37.6759 42.7962 38.7231 43.7628 40.5756 43.7628C42.1333 43.7628 43.1264 42.984 43.1264 41.91C43.1264 40.6212 42.1061 40.1647 40.3877 39.4131L39.4481 39.01C36.7361 37.8558 34.9372 36.4058 34.9372 33.3448C34.9372 30.5254 37.0852 28.3773 40.4416 28.3773C42.8313 28.3773 44.5497 29.2098 45.7847 31.3847L42.8578 33.2643C42.2133 32.1098 41.5155 31.6534 40.4414 31.6534C39.3405 31.6534 38.6424 32.3515 38.6424 33.2643C38.6424 34.392 39.3405 34.8487 40.9514 35.5468L41.8911 35.9495C45.0864 37.319 46.8853 38.7151 46.8853 41.8564C46.8853 45.2398 44.2272 47.0923 40.6561 47.0923C37.1656 47.0923 34.9102 45.4276 33.8094 43.2526" fill="black"/>
</g>
<rect x="1.5" y="1.72839" width="177" height="57" rx="6.5" stroke="#293548" stroke-width="3"/>
<defs>
<clipPath id="clip0_746_1120">
<rect width="40" height="40" fill="white" transform="translate(10 10.2284)"/>
</clipPath>
</defs>
</svg>
