<svg width="180" height="61" viewBox="0 0 180 61" fill="none" xmlns="http://www.w3.org/2000/svg">
<path d="M62.4414 23.0096H64.6289L68.7402 33.9764L72.8418 23.0096H75.0293L69.5996 37.2284H67.8613L62.4414 23.0096ZM61.4453 23.0096H63.5254L63.8867 32.5018V37.2284H61.4453V23.0096ZM73.9453 23.0096H76.0352V37.2284H73.584V32.5018L73.9453 23.0096ZM78.2617 32.0624V31.8378C78.2617 31.076 78.3724 30.3697 78.5938 29.7186C78.8151 29.0611 79.1341 28.4914 79.5508 28.0096C79.974 27.5214 80.4883 27.1438 81.0938 26.8768C81.7057 26.6034 82.3958 26.4667 83.1641 26.4667C83.9388 26.4667 84.6289 26.6034 85.2344 26.8768C85.8464 27.1438 86.3639 27.5214 86.7871 28.0096C87.2103 28.4914 87.5326 29.0611 87.7539 29.7186C87.9753 30.3697 88.0859 31.076 88.0859 31.8378V32.0624C88.0859 32.8241 87.9753 33.5305 87.7539 34.1815C87.5326 34.8326 87.2103 35.4022 86.7871 35.8905C86.3639 36.3723 85.8496 36.7499 85.2441 37.0233C84.6387 37.2902 83.9518 37.4237 83.1836 37.4237C82.4089 37.4237 81.7155 37.2902 81.1035 37.0233C80.498 36.7499 79.9837 36.3723 79.5605 35.8905C79.1374 35.4022 78.8151 34.8326 78.5938 34.1815C78.3724 33.5305 78.2617 32.8241 78.2617 32.0624ZM80.6152 31.8378V32.0624C80.6152 32.5376 80.6641 32.9869 80.7617 33.41C80.8594 33.8332 81.0124 34.2043 81.2207 34.5233C81.429 34.8423 81.696 35.093 82.0215 35.2753C82.347 35.4576 82.7344 35.5487 83.1836 35.5487C83.6198 35.5487 83.9974 35.4576 84.3164 35.2753C84.6419 35.093 84.9089 34.8423 85.1172 34.5233C85.3255 34.2043 85.4785 33.8332 85.5762 33.41C85.6803 32.9869 85.7324 32.5376 85.7324 32.0624V31.8378C85.7324 31.369 85.6803 30.9263 85.5762 30.5096C85.4785 30.0865 85.3223 29.7121 85.1074 29.3866C84.8991 29.0611 84.6322 28.8072 84.3066 28.6249C83.9876 28.4361 83.6068 28.3417 83.1641 28.3417C82.7214 28.3417 82.3372 28.4361 82.0117 28.6249C81.6927 28.8072 81.429 29.0611 81.2207 29.3866C81.0124 29.7121 80.8594 30.0865 80.7617 30.5096C80.6641 30.9263 80.6152 31.369 80.6152 31.8378ZM92.3926 28.9178V37.2284H90.0391V26.662H92.2559L92.3926 28.9178ZM91.9727 31.5546L91.2109 31.5448C91.2174 30.7961 91.3216 30.1093 91.5234 29.4843C91.7318 28.8593 92.0182 28.3221 92.3828 27.8729C92.7539 27.4237 93.1966 27.0787 93.7109 26.8378C94.2253 26.5904 94.7982 26.4667 95.4297 26.4667C95.9375 26.4667 96.3965 26.5383 96.8066 26.6815C97.2233 26.8182 97.5781 27.0428 97.8711 27.3553C98.1706 27.6678 98.3984 28.0747 98.5547 28.576C98.7109 29.0708 98.7891 29.6796 98.7891 30.4022V37.2284H96.4258V30.3925C96.4258 29.8846 96.3509 29.4843 96.2012 29.1913C96.0579 28.8918 95.8464 28.6802 95.5664 28.5565C95.293 28.4263 94.9512 28.3612 94.541 28.3612C94.1374 28.3612 93.776 28.4458 93.457 28.6151C93.138 28.7844 92.8678 29.0155 92.6465 29.3085C92.4316 29.6014 92.2656 29.94 92.1484 30.3241C92.0312 30.7082 91.9727 31.1184 91.9727 31.5546ZM107.959 26.662H110.098V36.9354C110.098 37.8859 109.896 38.6932 109.492 39.3573C109.089 40.0214 108.525 40.5259 107.803 40.871C107.08 41.2225 106.243 41.3983 105.293 41.3983C104.889 41.3983 104.44 41.3397 103.945 41.2225C103.457 41.1053 102.982 40.9165 102.52 40.6561C102.064 40.4022 101.683 40.0669 101.377 39.6503L102.48 38.2635C102.858 38.7128 103.275 39.0415 103.73 39.2499C104.186 39.4582 104.665 39.5624 105.166 39.5624C105.706 39.5624 106.165 39.4615 106.543 39.2596C106.927 39.0643 107.223 38.7746 107.432 38.3905C107.64 38.0064 107.744 37.5376 107.744 36.9843V29.0546L107.959 26.662ZM100.781 32.0624V31.8573C100.781 31.0565 100.879 30.3274 101.074 29.6698C101.27 29.0057 101.549 28.4361 101.914 27.9608C102.279 27.479 102.721 27.1112 103.242 26.8573C103.763 26.5969 104.352 26.4667 105.01 26.4667C105.693 26.4667 106.276 26.5904 106.758 26.8378C107.246 27.0852 107.653 27.44 107.979 27.9022C108.304 28.358 108.558 28.9048 108.74 29.5428C108.929 30.1744 109.069 30.8775 109.16 31.6522V32.3065C109.076 33.0617 108.932 33.7518 108.73 34.3768C108.529 35.0018 108.262 35.5422 107.93 35.9979C107.598 36.4537 107.188 36.8052 106.699 37.0526C106.217 37.3 105.648 37.4237 104.99 37.4237C104.346 37.4237 103.763 37.2902 103.242 37.0233C102.728 36.7564 102.285 36.382 101.914 35.9003C101.549 35.4185 101.27 34.8521 101.074 34.201C100.879 33.5435 100.781 32.8306 100.781 32.0624ZM103.135 31.8573V32.0624C103.135 32.5441 103.18 32.9934 103.271 33.41C103.369 33.8267 103.516 34.1945 103.711 34.5135C103.913 34.826 104.167 35.0734 104.473 35.2557C104.785 35.4315 105.153 35.5194 105.576 35.5194C106.13 35.5194 106.582 35.4022 106.934 35.1678C107.292 34.9335 107.565 34.6177 107.754 34.2206C107.949 33.8169 108.086 33.3677 108.164 32.8729V31.1053C108.125 30.7212 108.044 30.3632 107.92 30.0311C107.803 29.6991 107.643 29.4094 107.441 29.162C107.24 28.9081 106.986 28.7128 106.68 28.576C106.374 28.4328 106.012 28.3612 105.596 28.3612C105.173 28.3612 104.805 28.4524 104.492 28.6346C104.18 28.8169 103.923 29.0676 103.721 29.3866C103.525 29.7056 103.379 30.0767 103.281 30.4999C103.184 30.9231 103.135 31.3755 103.135 31.8573ZM112.09 32.0624V31.8378C112.09 31.076 112.201 30.3697 112.422 29.7186C112.643 29.0611 112.962 28.4914 113.379 28.0096C113.802 27.5214 114.316 27.1438 114.922 26.8768C115.534 26.6034 116.224 26.4667 116.992 26.4667C117.767 26.4667 118.457 26.6034 119.062 26.8768C119.674 27.1438 120.192 27.5214 120.615 28.0096C121.038 28.4914 121.361 29.0611 121.582 29.7186C121.803 30.3697 121.914 31.076 121.914 31.8378V32.0624C121.914 32.8241 121.803 33.5305 121.582 34.1815C121.361 34.8326 121.038 35.4022 120.615 35.8905C120.192 36.3723 119.678 36.7499 119.072 37.0233C118.467 37.2902 117.78 37.4237 117.012 37.4237C116.237 37.4237 115.544 37.2902 114.932 37.0233C114.326 36.7499 113.812 36.3723 113.389 35.8905C112.965 35.4022 112.643 34.8326 112.422 34.1815C112.201 33.5305 112.09 32.8241 112.09 32.0624ZM114.443 31.8378V32.0624C114.443 32.5376 114.492 32.9869 114.59 33.41C114.688 33.8332 114.84 34.2043 115.049 34.5233C115.257 34.8423 115.524 35.093 115.85 35.2753C116.175 35.4576 116.562 35.5487 117.012 35.5487C117.448 35.5487 117.826 35.4576 118.145 35.2753C118.47 35.093 118.737 34.8423 118.945 34.5233C119.154 34.2043 119.307 33.8332 119.404 33.41C119.508 32.9869 119.561 32.5376 119.561 32.0624V31.8378C119.561 31.369 119.508 30.9263 119.404 30.5096C119.307 30.0865 119.15 29.7121 118.936 29.3866C118.727 29.0611 118.46 28.8072 118.135 28.6249C117.816 28.4361 117.435 28.3417 116.992 28.3417C116.549 28.3417 116.165 28.4361 115.84 28.6249C115.521 28.8072 115.257 29.0611 115.049 29.3866C114.84 29.7121 114.688 30.0865 114.59 30.5096C114.492 30.9263 114.443 31.369 114.443 31.8378ZM128.252 37.2284H125.215L125.234 35.285H128.252C129.131 35.285 129.867 35.093 130.459 34.7089C131.058 34.3247 131.507 33.7746 131.807 33.0585C132.113 32.3423 132.266 31.4895 132.266 30.4999V29.7284C132.266 28.9602 132.178 28.2798 132.002 27.6874C131.833 27.0949 131.579 26.5969 131.24 26.1932C130.908 25.7896 130.498 25.4836 130.01 25.2753C129.528 25.0669 128.971 24.9628 128.34 24.9628H125.156V23.0096H128.34C129.284 23.0096 130.146 23.1691 130.928 23.4882C131.709 23.8007 132.383 24.2531 132.949 24.8456C133.522 25.438 133.962 26.1477 134.268 26.9745C134.574 27.8013 134.727 28.7258 134.727 29.7479V30.4999C134.727 31.522 134.574 32.4465 134.268 33.2733C133.962 34.1001 133.522 34.8098 132.949 35.4022C132.376 35.9882 131.693 36.4406 130.898 36.7596C130.111 37.0721 129.229 37.2284 128.252 37.2284ZM126.572 23.0096V37.2284H124.121V23.0096H126.572ZM142.52 30.8026H138.896L138.877 29.0155H142.041C142.575 29.0155 143.027 28.9374 143.398 28.7811C143.776 28.6184 144.062 28.3872 144.258 28.0878C144.453 27.7818 144.551 27.4139 144.551 26.9843C144.551 26.509 144.46 26.1216 144.277 25.8221C144.095 25.5227 143.815 25.3046 143.438 25.1678C143.066 25.0311 142.591 24.9628 142.012 24.9628H139.639V37.2284H137.188V23.0096H142.012C142.793 23.0096 143.49 23.0845 144.102 23.2343C144.72 23.384 145.244 23.6184 145.674 23.9374C146.11 24.2499 146.439 24.647 146.66 25.1288C146.888 25.6106 147.002 26.1835 147.002 26.8475C147.002 27.4335 146.862 27.9706 146.582 28.4589C146.302 28.9406 145.889 29.3345 145.342 29.6405C144.795 29.9465 144.115 30.1288 143.301 30.1874L142.52 30.8026ZM142.412 37.2284H138.125L139.229 35.285H142.412C142.965 35.285 143.428 35.1939 143.799 35.0116C144.17 34.8228 144.447 34.5656 144.629 34.2401C144.818 33.9081 144.912 33.5207 144.912 33.078C144.912 32.6158 144.831 32.2154 144.668 31.8768C144.505 31.5318 144.248 31.2681 143.896 31.0858C143.545 30.897 143.086 30.8026 142.52 30.8026H139.766L139.785 29.0155H143.369L143.926 29.6893C144.707 29.7154 145.348 29.8879 145.85 30.2069C146.357 30.5259 146.735 30.9393 146.982 31.4471C147.23 31.955 147.354 32.5018 147.354 33.0878C147.354 33.9927 147.155 34.7512 146.758 35.3632C146.367 35.9751 145.804 36.4406 145.068 36.7596C144.333 37.0721 143.447 37.2284 142.412 37.2284Z" fill="white"/>
<path d="M28.4084 15.4288L29.2753 17.057C29.4702 17.3575 29.6813 17.6234 29.93 17.8711C30.6591 18.5911 31.3387 19.3596 31.9642 20.1712C33.433 22.0999 34.4237 24.2417 35.1312 26.558C35.5555 27.9731 35.7859 29.4246 35.8032 30.8924C35.8742 35.2805 34.3699 39.0485 31.3369 42.18C30.8435 42.6765 30.3105 43.1321 29.7432 43.5422C29.4428 43.5422 29.3007 43.3118 29.1768 43.0996C28.9513 42.7062 28.8012 42.2742 28.7342 41.8257C28.6277 41.2948 28.5576 40.7639 28.5921 40.2158V39.9681C28.5678 39.9153 28.3028 15.5537 28.4084 15.4288Z" fill="#599636"/>
<path d="M28.4084 15.375C28.3729 15.304 28.3374 15.3578 28.3018 15.3923C28.3191 15.7475 28.1952 16.0642 28.0014 16.3667C27.7882 16.6672 27.506 16.8976 27.2228 17.1453C25.6495 18.5075 24.4111 20.1529 23.4193 21.9933C22.0998 24.47 21.4197 27.1244 21.2268 29.9189C21.1385 30.9269 21.5455 34.4837 21.8632 35.5099C22.7301 38.2344 24.2872 40.5173 26.3042 42.4987C26.7995 42.9757 27.3294 43.4183 27.8775 43.8436C28.0369 43.8436 28.0542 43.7015 28.0907 43.596C28.1606 43.3701 28.2138 43.1394 28.2501 42.9057L28.6053 40.2523L28.4084 15.375Z" fill="#6CAC48"/>
<path d="M29.2753 44.6202C29.3108 44.2141 29.5057 43.8771 29.7179 43.5411C29.5047 43.4528 29.3463 43.2772 29.2225 43.0813C29.1157 42.8958 29.0273 42.7003 28.9586 42.4977C28.7109 41.7546 28.6581 40.975 28.5871 40.2158V39.756C28.4988 39.827 28.4805 40.4279 28.4805 40.5173C28.4288 41.3197 28.3223 42.1178 28.1618 42.9057C28.109 43.2244 28.0734 43.5422 27.8775 43.8254C27.8775 43.8609 27.8775 43.8964 27.8948 43.9492C28.2135 44.8871 28.3008 45.8423 28.3546 46.8158V47.171C28.3546 47.5953 28.3374 47.506 28.6896 47.6481C28.8317 47.7009 28.99 47.7192 29.1322 47.8247C29.2387 47.8247 29.256 47.7364 29.256 47.6654L29.2032 47.0817V45.4535C29.186 45.1693 29.2387 44.8871 29.2743 44.6212L29.2753 44.6202Z" fill="#C2BFBF"/>
<rect x="1.5" y="1.72839" width="177" height="57" rx="6.5" stroke="#293548" stroke-width="3"/>
</svg>
