<svg width="180" height="61" viewBox="0 0 180 61" fill="none" xmlns="http://www.w3.org/2000/svg">
<path d="M62.4414 23.0096H64.6289L68.7402 33.9764L72.8418 23.0096H75.0293L69.5996 37.2284H67.8613L62.4414 23.0096ZM61.4453 23.0096H63.5254L63.8867 32.5018V37.2284H61.4453V23.0096ZM73.9453 23.0096H76.0352V37.2284H73.584V32.5018L73.9453 23.0096ZM86.4258 33.5663C86.4258 33.2733 86.3802 33.0129 86.2891 32.785C86.2044 32.5572 86.0514 32.3488 85.8301 32.16C85.6087 31.9712 85.2962 31.7889 84.8926 31.6132C84.4954 31.4309 83.9876 31.2453 83.3691 31.0565C82.6921 30.8482 82.0671 30.6171 81.4941 30.3632C80.9277 30.1027 80.4329 29.8033 80.0098 29.4647C79.5866 29.1197 79.2578 28.7258 79.0234 28.2831C78.7891 27.8339 78.6719 27.3163 78.6719 26.7303C78.6719 26.1509 78.7923 25.6236 79.0332 25.1483C79.2806 24.6731 79.6289 24.2629 80.0781 23.9178C80.5339 23.5663 81.071 23.2961 81.6895 23.1073C82.3079 22.912 82.9915 22.8143 83.7402 22.8143C84.7949 22.8143 85.7031 23.0096 86.4648 23.4003C87.2331 23.7909 87.8223 24.315 88.2324 24.9725C88.6491 25.6301 88.8574 26.356 88.8574 27.1503H86.4258C86.4258 26.6815 86.3249 26.2681 86.123 25.91C85.9277 25.5455 85.6283 25.259 85.2246 25.0507C84.8275 24.8423 84.3229 24.7382 83.7109 24.7382C83.1315 24.7382 82.6497 24.826 82.2656 25.0018C81.8815 25.1776 81.5951 25.4152 81.4062 25.7147C81.2174 26.0142 81.123 26.3527 81.123 26.7303C81.123 26.9973 81.1849 27.2414 81.3086 27.4628C81.4323 27.6776 81.6211 27.8794 81.875 28.0682C82.1289 28.2505 82.4479 28.4231 82.832 28.5858C83.2161 28.7486 83.6686 28.9048 84.1895 29.0546C84.9772 29.2889 85.6641 29.5494 86.25 29.8358C86.8359 30.1158 87.3242 30.4348 87.7148 30.7928C88.1055 31.1509 88.3984 31.5578 88.5938 32.0135C88.7891 32.4628 88.8867 32.9738 88.8867 33.5468C88.8867 34.1457 88.7663 34.6861 88.5254 35.1678C88.2845 35.6431 87.9395 36.05 87.4902 36.3885C87.0475 36.7206 86.5137 36.9777 85.8887 37.16C85.2702 37.3358 84.5801 37.4237 83.8184 37.4237C83.1348 37.4237 82.4609 37.3326 81.7969 37.1503C81.1393 36.968 80.5404 36.6913 80 36.3202C79.4596 35.9426 79.0299 35.4738 78.7109 34.9139C78.3919 34.3475 78.2324 33.6867 78.2324 32.9315H80.6836C80.6836 33.3938 80.7617 33.7876 80.918 34.1132C81.0807 34.4387 81.3053 34.7056 81.5918 34.9139C81.8783 35.1158 82.2103 35.2655 82.5879 35.3632C82.972 35.4608 83.3822 35.5096 83.8184 35.5096C84.3913 35.5096 84.8698 35.4283 85.2539 35.2655C85.6445 35.1027 85.9375 34.8749 86.1328 34.5819C86.3281 34.2889 86.4258 33.9504 86.4258 33.5663ZM98.5352 33.5663C98.5352 33.2733 98.4896 33.0129 98.3984 32.785C98.3138 32.5572 98.1608 32.3488 97.9395 32.16C97.7181 31.9712 97.4056 31.7889 97.002 31.6132C96.6048 31.4309 96.097 31.2453 95.4785 31.0565C94.8014 30.8482 94.1764 30.6171 93.6035 30.3632C93.0371 30.1027 92.5423 29.8033 92.1191 29.4647C91.696 29.1197 91.3672 28.7258 91.1328 28.2831C90.8984 27.8339 90.7812 27.3163 90.7812 26.7303C90.7812 26.1509 90.9017 25.6236 91.1426 25.1483C91.39 24.6731 91.7383 24.2629 92.1875 23.9178C92.6432 23.5663 93.1803 23.2961 93.7988 23.1073C94.4173 22.912 95.1009 22.8143 95.8496 22.8143C96.9043 22.8143 97.8125 23.0096 98.5742 23.4003C99.3424 23.7909 99.9316 24.315 100.342 24.9725C100.758 25.6301 100.967 26.356 100.967 27.1503H98.5352C98.5352 26.6815 98.4342 26.2681 98.2324 25.91C98.0371 25.5455 97.7376 25.259 97.334 25.0507C96.9368 24.8423 96.4323 24.7382 95.8203 24.7382C95.2409 24.7382 94.7591 24.826 94.375 25.0018C93.9909 25.1776 93.7044 25.4152 93.5156 25.7147C93.3268 26.0142 93.2324 26.3527 93.2324 26.7303C93.2324 26.9973 93.2943 27.2414 93.418 27.4628C93.5417 27.6776 93.7305 27.8794 93.9844 28.0682C94.2383 28.2505 94.5573 28.4231 94.9414 28.5858C95.3255 28.7486 95.778 28.9048 96.2988 29.0546C97.0866 29.2889 97.7734 29.5494 98.3594 29.8358C98.9453 30.1158 99.4336 30.4348 99.8242 30.7928C100.215 31.1509 100.508 31.5578 100.703 32.0135C100.898 32.4628 100.996 32.9738 100.996 33.5468C100.996 34.1457 100.876 34.6861 100.635 35.1678C100.394 35.6431 100.049 36.05 99.5996 36.3885C99.1569 36.7206 98.623 36.9777 97.998 37.16C97.3796 37.3358 96.6895 37.4237 95.9277 37.4237C95.2441 37.4237 94.5703 37.3326 93.9062 37.1503C93.2487 36.968 92.6497 36.6913 92.1094 36.3202C91.569 35.9426 91.1393 35.4738 90.8203 34.9139C90.5013 34.3475 90.3418 33.6867 90.3418 32.9315H92.793C92.793 33.3938 92.8711 33.7876 93.0273 34.1132C93.1901 34.4387 93.4147 34.7056 93.7012 34.9139C93.9876 35.1158 94.3197 35.2655 94.6973 35.3632C95.0814 35.4608 95.4915 35.5096 95.9277 35.5096C96.5007 35.5096 96.9792 35.4283 97.3633 35.2655C97.7539 35.1027 98.0469 34.8749 98.2422 34.5819C98.4375 34.2889 98.5352 33.9504 98.5352 33.5663ZM110.693 35.3339L114.434 38.3026L112.842 39.6991L109.17 36.7596L110.693 35.3339ZM114.463 29.7284V30.5096C114.463 31.5839 114.323 32.5474 114.043 33.4003C113.763 34.2531 113.363 34.979 112.842 35.578C112.321 36.177 111.699 36.6359 110.977 36.955C110.254 37.2675 109.453 37.4237 108.574 37.4237C107.702 37.4237 106.904 37.2675 106.182 36.955C105.465 36.6359 104.844 36.177 104.316 35.578C103.789 34.979 103.379 34.2531 103.086 33.4003C102.799 32.5474 102.656 31.5839 102.656 30.5096V29.7284C102.656 28.6542 102.799 27.6939 103.086 26.8475C103.372 25.9947 103.776 25.2688 104.297 24.6698C104.824 24.0643 105.446 23.6053 106.162 23.2928C106.885 22.9738 107.682 22.8143 108.555 22.8143C109.434 22.8143 110.234 22.9738 110.957 23.2928C111.686 23.6053 112.311 24.0643 112.832 24.6698C113.353 25.2688 113.753 25.9947 114.033 26.8475C114.32 27.6939 114.463 28.6542 114.463 29.7284ZM112.002 30.5096V29.7089C112.002 28.9146 111.924 28.2147 111.768 27.6093C111.618 26.9973 111.393 26.4862 111.094 26.076C110.801 25.6594 110.439 25.3469 110.01 25.1385C109.587 24.9237 109.102 24.8163 108.555 24.8163C108.021 24.8163 107.542 24.9237 107.119 25.1385C106.696 25.3469 106.335 25.6594 106.035 26.076C105.736 26.4862 105.508 26.9973 105.352 27.6093C105.195 28.2147 105.117 28.9146 105.117 29.7089V30.5096C105.117 31.3039 105.195 32.007 105.352 32.619C105.508 33.231 105.736 33.7486 106.035 34.1718C106.341 34.5884 106.706 34.9042 107.129 35.119C107.559 35.3274 108.04 35.4315 108.574 35.4315C109.121 35.4315 109.606 35.3274 110.029 35.119C110.452 34.9042 110.811 34.5884 111.104 34.1718C111.396 33.7486 111.618 33.231 111.768 32.619C111.924 32.007 112.002 31.3039 112.002 30.5096ZM125.859 35.285V37.2284H118.721V35.285H125.859ZM119.404 23.0096V37.2284H116.953V23.0096H119.404Z" fill="white"/>
<path d="M35.2547 28.9017L26.487 31.5175L18.8591 34.5933L16.7251 35.108C16.1817 35.5803 15.6118 36.0587 14.9955 36.543C14.3195 37.0758 13.6899 37.5603 13.2061 37.9114C12.6693 38.2989 11.874 39.0255 11.4698 39.4856C10.8667 40.1758 10.3896 40.9084 10.1841 41.4716C9.81959 42.4888 9.99861 43.5181 10.7011 44.4688C11.6024 45.6797 13.3984 46.9148 15.4925 47.7564C16.5595 48.1864 18.3554 48.7374 19.7073 49.0461C21.9539 49.5669 26.3014 50.13 28.6937 50.2148C29.1774 50.233 29.8269 50.233 29.8534 50.2148C29.9065 50.1844 30.2776 49.5366 30.7084 48.7314C32.1797 45.9885 33.24 43.4152 33.8165 41.2173C34.1611 39.8853 34.4328 38.1112 34.6116 36.0103C34.6581 35.423 34.6779 33.4551 34.6382 32.7891C34.5785 31.6992 34.4724 30.8153 34.3069 29.9494C34.2804 29.8222 34.2737 29.7072 34.287 29.7011C34.3134 29.683 34.3929 29.6588 35.4732 29.3741L35.2546 28.9019V28.9018H35.2547V28.9017ZM33.2533 29.9735C33.3328 29.9735 33.5448 31.8323 33.5978 33.007C33.6111 33.2552 33.6044 33.4187 33.5912 33.4187C33.5382 33.4187 32.4712 32.8436 31.7092 32.4076C31.0465 32.0261 29.7873 31.2632 29.5885 31.1179C29.5221 31.0755 29.5287 31.0695 30.0723 30.8999C30.9933 30.6153 33.1804 29.9735 33.2533 29.9735ZM28.7866 31.3177C28.8463 31.3177 28.9986 31.3963 29.3631 31.6022C30.7283 32.3833 32.5839 33.3279 33.3792 33.6428C33.6243 33.7397 33.6508 33.7033 33.0876 34.0545C31.8814 34.8053 30.377 35.5439 28.5346 36.2887C28.2099 36.4219 27.9383 36.5248 27.9317 36.5248C27.9185 36.5248 27.9581 36.3735 28.0111 36.1918C28.4551 34.6841 28.707 33.1583 28.7203 31.9352C28.7269 31.3297 28.7269 31.3297 28.7866 31.3116C28.7733 31.3177 28.7799 31.3177 28.7866 31.3177ZM27.8654 31.6386C27.9051 31.6748 27.8786 33.0312 27.8256 33.4005C27.7063 34.2845 27.5207 35.1079 27.216 36.0344C27.1431 36.2583 27.0767 36.4461 27.0636 36.4582C27.0369 36.4884 26.129 35.6771 25.8308 35.3623C25.3139 34.8173 24.9097 34.2724 24.6115 33.7396C24.459 33.4671 24.2205 32.9343 24.2403 32.9161C24.3464 32.8495 27.8389 31.6144 27.8654 31.6386ZM23.5312 33.1946C23.5378 33.1946 23.5444 33.1946 23.5511 33.2007C23.5643 33.2128 23.6108 33.3097 23.6506 33.4186C23.8626 33.9454 24.3396 34.7204 24.7506 35.2169C25.2013 35.7619 25.7912 36.3431 26.2814 36.7246C26.4406 36.8457 26.5863 36.9607 26.6061 36.9789C26.646 37.0152 26.6592 37.0091 25.5789 37.3846C24.3265 37.8205 22.9612 38.2564 21.3972 38.7166C21.0236 38.8266 20.6503 38.9376 20.2774 39.0496C20.2176 39.0678 20.2376 39.0375 20.4099 38.7893C21.1852 37.6812 22.3648 35.5076 23.0276 33.9696C23.1402 33.7032 23.2529 33.4368 23.2728 33.3763C23.2993 33.2915 23.3324 33.2612 23.4185 33.2188C23.4649 33.2068 23.5114 33.1946 23.5312 33.1946ZM22.2059 33.6972C22.2257 33.7094 21.8877 34.3572 21.5564 34.9505C20.9135 36.0949 20.211 37.2211 19.27 38.5895C19.111 38.8256 18.9586 39.0436 18.9387 39.0678C18.9056 39.1102 18.8922 39.0981 18.7862 38.9104C18.5609 38.5047 18.3753 37.984 18.2759 37.5056C18.1765 37.0333 18.1964 36.2099 18.3091 35.7013C18.3951 35.326 18.3886 35.332 18.5874 35.2412C19.4357 34.8476 22.1794 33.673 22.2059 33.6972ZM33.6377 34.1211V34.3754C33.6377 35.7256 33.4786 37.5783 33.2466 38.9286C33.2068 39.1647 33.1736 39.3584 33.1671 39.3646C33.1671 39.3646 32.9749 39.3162 32.7496 39.2555C31.7555 38.9709 30.6753 38.5531 29.7011 38.0628C29.0581 37.7419 28.1238 37.215 28.1503 37.1908C28.1569 37.1848 28.4353 37.0516 28.7599 36.8941C30.059 36.2766 31.3048 35.6106 32.3851 34.9506C32.7893 34.7023 33.3989 34.3028 33.5316 34.1937L33.6377 34.1211ZM17.2023 35.9132C17.2288 35.9132 17.2221 35.9616 17.1824 36.1796C17.1559 36.3371 17.1228 36.6277 17.1096 36.8274C17.0564 37.7115 17.2156 38.3654 17.6927 39.2615C17.8253 39.5098 17.9314 39.7156 17.9247 39.7216C17.8782 39.758 13.4912 40.9327 12.1126 41.2778C11.7018 41.3807 11.344 41.4715 11.3173 41.4775C11.271 41.4897 11.2644 41.4836 11.2842 41.3806C11.4366 40.4906 12.1789 39.3281 13.2127 38.3472C13.902 37.6933 14.452 37.3119 15.3931 36.8213C16.069 36.4702 17.1095 35.9435 17.189 35.9192C17.1891 35.9132 17.1957 35.9132 17.2023 35.9132ZM27.5407 37.6025C27.5473 37.5965 27.7063 37.6752 27.8985 37.7781C29.3167 38.5289 31.2916 39.2253 32.9748 39.5824L33.1273 39.6128L32.9152 39.7216C32.0338 40.1697 29.1378 41.2717 26.1755 42.2829C25.7446 42.4281 25.3206 42.5735 25.2409 42.6037C25.1614 42.634 25.0885 42.6522 25.0885 42.6462C25.0885 42.64 25.2079 42.4281 25.3602 42.1678C26.1886 40.751 27.0237 39.0254 27.4478 37.8265C27.5009 37.7115 27.5339 37.6086 27.5407 37.6025ZM26.487 37.9174C26.4937 37.9236 26.4406 38.0506 26.3743 38.1959C25.7978 39.4734 25.0422 40.8661 24.0746 42.4282C23.8295 42.8279 23.624 43.1488 23.6173 43.1488C23.6108 43.1488 23.4119 43.0398 23.1733 42.9066C21.7683 42.1194 20.5224 41.1507 19.7074 40.2122L19.588 40.079L20.191 39.9276C22.3515 39.3888 24.1872 38.8075 26.0097 38.0931C26.2682 37.9961 26.4804 37.9174 26.487 37.9174ZM33.0346 40.0063C33.0346 40.0063 33.0412 40.0123 33.0346 40.0063C33.0412 40.1456 32.7032 41.3929 32.4248 42.2949C32.1929 43.0518 31.994 43.6452 31.6296 44.6926C31.4705 45.1529 31.3315 45.5342 31.3247 45.5342C31.3181 45.5342 31.2784 45.5282 31.2386 45.5162C29.2704 45.1891 27.5075 44.735 25.8507 44.1296C25.3868 43.96 24.7241 43.6875 24.6844 43.6573C24.6712 43.6451 25.0688 43.4756 25.5724 43.2758C28.5878 42.0709 31.7158 40.7025 32.7893 40.1153C32.9152 40.0426 33.0147 40.0063 33.0346 40.0063ZM17.9181 40.4786C17.9313 40.4907 17.0897 41.5987 15.91 43.1063C15.4991 43.6331 15.022 44.2507 14.8431 44.4808C14.6641 44.7109 14.3924 45.0742 14.24 45.2921L13.9615 45.6857L13.6633 45.4556C13.312 45.1892 12.7024 44.6201 12.4307 44.3052C11.8607 43.6574 11.4764 42.9732 11.324 42.3496C11.2511 42.0589 11.2511 41.9135 11.3173 41.8955C11.4167 41.8713 13.1861 41.4898 14.843 41.1385C15.7642 40.9449 16.8311 40.7148 17.2155 40.63C17.5999 40.5451 17.9115 40.4786 17.9181 40.4786ZM18.7663 40.7753L18.9783 40.9932C19.9327 41.9681 20.9069 42.6887 22.0865 43.3183C22.2986 43.4273 22.4576 43.5241 22.4443 43.5303C22.398 43.5605 18.3487 44.8743 16.4733 45.4677C15.4196 45.8068 14.5514 46.0792 14.5449 46.0792C14.5383 46.0792 14.4786 46.0429 14.4122 46.0005L14.293 45.9218L14.4852 45.6675C15.1081 44.8441 15.8902 43.9419 17.5934 42.065L18.7663 40.7753ZM24.0548 44.2325C24.0614 44.2265 24.353 44.3233 24.7108 44.4445C25.5724 44.7412 26.2549 44.9288 27.1695 45.1408C28.2962 45.4012 29.9264 45.6555 30.8874 45.7281C31.0332 45.7402 31.1127 45.7523 31.0862 45.7705C31.0397 45.7947 30.0657 46.0914 29.3499 46.2973C28.2099 46.6242 24.7307 47.5627 21.8944 48.3075C21.3708 48.4467 20.9201 48.5618 20.8936 48.5678C20.8274 48.5799 20.6087 48.5254 20.6087 48.5012C20.6087 48.4891 20.7677 48.3014 20.9599 48.0955C21.9142 47.0541 22.8619 45.8916 23.6506 44.7896C23.8692 44.4868 24.0548 44.2386 24.0548 44.2325ZM22.8884 44.2629C22.895 44.2689 22.4245 44.9591 21.6028 46.1458C21.2515 46.6484 20.8605 47.2175 20.7213 47.4173C20.5887 47.6111 20.3899 47.9139 20.2773 48.0834L20.0851 48.3922L19.9857 48.368C19.7471 48.3074 18.0704 47.7685 17.6264 47.605C17.0763 47.4052 16.5064 47.1631 16.0822 46.9572C15.5521 46.6968 14.8894 46.3093 14.9424 46.2972C14.9556 46.2912 15.8636 46.0671 16.957 45.7947C19.8597 45.0741 21.4701 44.6564 22.5239 44.3536C22.7161 44.2991 22.8818 44.2567 22.8884 44.2629ZM31.1392 46.0308H31.1458C31.1723 46.0914 30.0988 48.816 29.7076 49.6758C29.6216 49.8695 29.5885 49.918 29.5421 49.9119C29.4294 49.9059 27.8721 49.7061 26.9243 49.5789C25.2742 49.3488 22.504 48.9068 21.8082 48.7615L21.6492 48.7313L22.6365 48.5253C24.7572 48.0893 25.7778 47.8532 26.8116 47.5626C28.1172 47.1993 29.4096 46.7452 30.715 46.1882C30.9205 46.1034 31.0928 46.0368 31.1392 46.0308Z" fill="url(#paint0_linear_746_1100)"/>
<path d="M26.2152 10.2287C26.0694 10.2106 23.7167 10.9856 22.1992 11.5487C20.1513 12.3117 18.5609 13.0383 17.58 13.6678C17.2156 13.9041 16.7582 14.3218 16.6854 14.4853C16.6589 14.5458 16.6456 14.6185 16.6456 14.6911L17.5337 15.4601L19.6477 16.0777L24.6777 16.9011L30.43 17.8033L30.4897 17.3492C30.4699 17.3492 30.4566 17.3432 30.4369 17.3432L29.6812 17.2342L29.5288 16.9859C28.7468 15.7265 27.8853 14.1644 27.3817 13.1108C26.9907 12.2934 26.6195 11.3489 26.4141 10.6708C26.3014 10.2591 26.2882 10.2348 26.2154 10.2288V10.2287H26.2152V10.2287ZM26.1091 10.5376H26.1159C26.1224 10.5436 26.1489 10.7132 26.1755 10.9129C26.288 11.7607 26.4936 12.578 26.8183 13.462C27.0635 14.1281 27.0635 14.0918 26.7785 14.013C26.1026 13.8435 23.074 13.3652 20.8804 13.0867C20.5292 13.0443 20.2309 13.0019 20.2309 12.9959C20.2044 12.9717 21.8148 12.2026 22.5239 11.9C23.4318 11.5184 25.9236 10.5678 26.1091 10.5376ZM19.7205 13.2501L19.9791 13.3287C21.384 13.7648 24.9161 14.3824 26.8646 14.5277C27.0833 14.5458 27.2689 14.564 27.2754 14.564C27.282 14.5701 27.0966 14.6609 26.8579 14.7638C25.917 15.1937 24.8831 15.7205 24.1674 16.1262C23.9554 16.2472 23.7631 16.3441 23.7366 16.3441C23.7101 16.3441 23.571 16.3199 23.4252 16.3017L23.1601 16.2654L22.4975 15.6719C21.3311 14.6366 20.4165 13.8374 20.0652 13.5346L19.7205 13.2501ZM19.4555 13.4378L20.39 14.5035C20.9002 15.0908 21.4171 15.6659 21.5299 15.793C21.6424 15.9203 21.7353 16.0233 21.7287 16.0293C21.7021 16.0474 20.3768 15.8112 19.6742 15.666C18.9519 15.5146 18.6537 15.4419 18.2097 15.3148L17.8451 15.2058V15.121C17.8517 14.7153 18.4151 14.1099 19.3694 13.4923L19.4555 13.4378ZM27.3948 14.8909C27.4214 14.8909 27.4544 14.9454 27.5339 15.1089C27.7593 15.563 28.4619 16.7861 28.634 17.0222C28.6872 17.101 28.7798 17.107 27.8455 16.9678C25.599 16.6347 24.8765 16.5258 24.8765 16.5137C24.8765 16.5077 24.9428 16.4652 25.0289 16.4228C25.7248 16.0717 26.4273 15.6236 27.0503 15.1453C27.2027 15.0302 27.3419 14.9212 27.3683 14.903C27.3749 14.8909 27.3882 14.8849 27.3948 14.8909Z" fill="url(#paint1_linear_746_1100)"/>
<path d="M16.7317 14.4005C16.7317 14.4005 16.586 14.6125 16.7251 14.9274C16.8114 15.121 17.0632 15.3571 17.3481 15.5994C17.3481 15.5994 20.2972 18.2271 20.655 18.6026C22.2853 20.3221 22.9944 22.0175 23.0607 24.3546C23.1004 25.8562 22.7889 27.1762 22.0136 28.708C20.6351 31.4569 17.7258 34.4904 13.2392 37.8569L13.8954 37.6571C14.3195 37.3664 14.8961 37.0577 16.248 36.3795C19.3693 34.8173 22.8817 33.3823 27.1894 31.905C33.3923 29.7736 43.5916 27.279 49.3968 26.4678L50 26.3829L49.9072 26.2497C49.3771 25.4989 49.0125 25.0327 48.575 24.5362C47.3027 23.0952 45.7587 21.9267 43.8699 20.9579C41.272 19.6319 37.9119 18.5966 33.6574 17.8276C32.8556 17.6822 31.0927 17.4037 29.6613 17.2039C26.626 16.7741 24.6644 16.4774 22.504 16.1383C21.7287 16.0172 20.5688 15.8356 19.8001 15.6842C19.4024 15.6054 18.6404 15.442 18.0439 15.2543C17.5668 15.0847 16.8775 14.9151 16.7317 14.4005ZM18.4416 15.9142C18.4482 15.9083 18.5542 15.9445 18.6934 15.9869C18.9453 16.0655 19.27 16.1564 19.6544 16.2533C19.9453 16.3264 20.2369 16.397 20.5292 16.4652C20.9268 16.556 21.2581 16.6408 21.2647 16.6408C21.3112 16.6832 21.9806 18.6387 22.2059 19.3896C22.2919 19.6742 22.3583 19.9164 22.3517 19.9164C22.3449 19.9225 22.2721 19.8195 22.186 19.6803C21.4106 18.4329 20.1845 17.1675 18.7663 16.1503C18.5808 16.0293 18.4416 15.9203 18.4416 15.9142ZM21.7022 16.7377C21.7353 16.7377 21.8811 16.7559 22.06 16.7922C23.1866 17.0222 25.2079 17.3734 26.5002 17.5733C26.7189 17.6035 26.8912 17.6399 26.8912 17.6519C26.8912 17.6641 26.8116 17.7064 26.7122 17.7549C26.4936 17.8578 25.6121 18.3361 25.3206 18.5178C24.5849 18.9658 23.9223 19.4502 23.4451 19.8861C23.2529 20.0617 23.0872 20.207 23.0872 20.207C23.0872 20.207 23.0475 20.1041 23.0142 19.9769C22.7758 19.1353 22.2787 17.888 21.828 17.0101C21.7551 16.8709 21.6954 16.7437 21.6954 16.7316C21.6954 16.7437 21.6954 16.7377 21.7022 16.7377ZM27.4412 17.7367C27.481 17.7488 27.5473 17.9547 27.6798 18.4088C27.925 19.2868 28.0377 20.2676 27.9979 21.1819C27.9846 21.4362 27.9714 21.6723 27.9581 21.7026L27.9383 21.7631L27.5937 21.6602C26.8845 21.4544 25.7315 21.1455 24.7441 20.8913C24.1807 20.752 23.7235 20.6248 23.7235 20.6128C23.7235 20.5764 24.5453 19.8256 24.8965 19.5411C25.5657 19.0021 27.3815 17.7185 27.4412 17.7367ZM27.8985 17.7972C27.9184 17.7791 30.6422 18.2089 31.8815 18.4269C32.8027 18.5904 34.1413 18.8447 34.2208 18.875C34.2606 18.8871 34.1214 18.9598 33.6773 19.1414C31.9278 19.862 30.6288 20.5097 29.3367 21.2969C28.9987 21.5028 28.7137 21.6723 28.7071 21.6723C28.7005 21.6723 28.6938 21.4968 28.6938 21.2848C28.6938 20.1344 28.442 18.9719 27.978 17.991C27.9316 17.8941 27.8919 17.8033 27.8985 17.7972ZM34.9431 19.0688C34.9631 19.0869 34.8769 19.5774 34.7973 19.868C34.5588 20.7702 33.916 22.1084 33.1274 23.3677C32.9881 23.5917 32.8623 23.7734 32.8489 23.7794C32.8358 23.7854 32.6568 23.6946 32.4513 23.5856C31.6826 23.1739 30.8079 22.7864 29.8535 22.4231C29.5885 22.3202 29.3565 22.2354 29.3499 22.2233C29.3034 22.187 31.4374 20.8973 32.564 20.2797C33.4587 19.7833 34.9166 19.0445 34.9431 19.0688ZM35.4468 19.1414C35.5065 19.1414 36.7126 19.4442 37.3421 19.6137C38.8995 20.0376 40.6888 20.637 41.8552 21.1213L42.3389 21.3212L42.001 21.3938C39.1514 21.9932 36.7126 22.6835 34.3599 23.5554C34.1677 23.6281 33.9954 23.6886 33.9823 23.6886C33.969 23.6886 34.0353 23.5494 34.1214 23.3798C34.8305 22.0054 35.2878 20.5704 35.4003 19.3472C35.4071 19.2322 35.4268 19.1414 35.4468 19.1414ZM23.4385 21.6602C23.4583 21.642 24.3795 21.8419 24.8766 21.9689C25.632 22.1628 27.2357 22.6531 27.2357 22.6895C27.2357 22.6955 27.0569 22.8348 26.8449 23.0044C25.9767 23.6644 25.1416 24.3606 24.1409 25.2446C23.8426 25.5051 23.5909 25.717 23.5777 25.717C23.5644 25.717 23.5578 25.6805 23.5644 25.6321C23.7168 24.6149 23.6837 23.3071 23.4716 21.9811C23.4517 21.8115 23.4318 21.6663 23.4385 21.6602ZM42.7964 21.6784C42.8095 21.6905 42.3722 22.3202 42.0938 22.6774C41.6963 23.1981 41.1129 23.8884 39.7941 25.4021C39.0984 26.2013 38.3163 27.1035 38.0579 27.4062C37.7927 27.7089 37.5741 27.9632 37.5674 27.9632C37.5608 27.9632 37.4748 27.8543 37.3819 27.7211C36.6397 26.7039 35.7516 25.8138 34.6979 25.0146C34.4991 24.8632 34.2805 24.6997 34.2076 24.6512C34.1346 24.6028 34.0749 24.5544 34.0749 24.5484C34.0749 24.5302 35.2015 24.0881 36.0565 23.7734C37.5543 23.2163 39.5952 22.5503 41.1262 22.1203C41.9281 21.8903 42.783 21.6663 42.7964 21.6784ZM43.3066 21.7995C43.333 21.7934 43.4922 21.8661 43.6844 21.9689C45.2948 22.8106 46.8719 23.8944 48.118 25.0085C48.4692 25.3234 49.3373 26.1469 49.324 26.1529C49.324 26.1529 49.0191 26.1771 48.6613 26.2013C45.8713 26.3951 42.2994 26.9339 38.8664 27.6907C38.6345 27.7391 38.4291 27.7815 38.4158 27.7815C38.4027 27.7815 38.661 27.5454 38.9858 27.2609C41.0004 25.4868 41.9217 24.3667 43.0084 22.3686C43.1608 22.072 43.2934 21.8177 43.3066 21.7995C43.3 21.7995 43.3 21.7995 43.3066 21.7995ZM28.5479 23.18C28.6408 23.1981 29.5023 23.5676 30.1517 23.8642C30.7482 24.1365 31.6429 24.5726 31.6893 24.6089C31.6959 24.6149 31.3777 24.7663 30.9869 24.9419C29.7409 25.511 28.6739 26.0499 27.5605 26.6675C27.2424 26.8431 26.9774 26.9885 26.9708 26.9885C26.9442 26.9885 26.9508 26.9641 27.1298 26.6675C27.7263 25.6746 28.2033 24.4878 28.4751 23.3313C28.5016 23.2405 28.5281 23.18 28.5479 23.18ZM27.6864 23.3253C27.7063 23.3435 27.481 24.0882 27.3419 24.4939C27.0701 25.2628 26.6128 26.2255 26.1689 26.9521C26.0627 27.1215 25.9037 27.3698 25.8176 27.5091L25.6519 27.7513L25.2808 27.4244C24.8501 27.0429 24.4988 26.8068 24.0482 26.5948C23.8692 26.5101 23.7301 26.4374 23.7301 26.4253C23.7301 26.3769 24.8633 25.4384 25.7314 24.7603C26.3544 24.2698 27.6666 23.3071 27.6864 23.3253ZM32.9551 25.3052L33.2799 25.4989C34.0219 25.941 34.8967 26.5283 35.5662 27.0429C35.9438 27.3274 36.6728 27.9269 36.8187 28.0722L36.8981 28.151L36.3614 28.2902C33.3261 29.0591 30.9801 29.7433 28.2431 30.6637C27.9383 30.7666 27.6798 30.8514 27.6599 30.8514C27.6202 30.8514 27.587 30.8816 28.2697 30.3064C30.0193 28.8352 31.5699 27.2124 32.7231 25.6321L32.9551 25.3052ZM31.57 25.6201C31.5832 25.6321 30.6753 26.8007 30.1318 27.4607C29.4824 28.2478 28.3292 29.5677 27.534 30.4274C27.2027 30.7848 26.9178 31.0814 26.9045 31.0875C26.8845 31.0935 26.8779 31.0027 26.8779 30.8635C26.8779 30.1308 26.6725 29.3497 26.3146 28.6837C26.1622 28.4052 26.1357 28.3386 26.1689 28.3084C26.2948 28.2054 28.2233 27.2003 29.4426 26.6009C30.2644 26.2013 31.5499 25.608 31.57 25.6201ZM23.1932 27.4971C23.2131 27.4971 23.3656 27.5697 23.5379 27.6545C23.962 27.8664 24.3398 28.1025 24.6777 28.3569C24.6909 28.3689 24.5187 28.4961 24.2934 28.6474C23.6638 29.0591 22.7095 29.7191 22.1529 30.1248C21.5696 30.5487 21.5498 30.5608 21.616 30.47C22.0535 29.8584 22.272 29.5133 22.5041 29.0713C22.7095 28.6778 22.9149 28.2116 23.0607 27.8059C23.1137 27.6303 23.18 27.4971 23.1932 27.4971ZM25.4266 29.0955C25.4597 29.0895 25.4996 29.1439 25.6784 29.3862C26.0561 29.9007 26.3478 30.5911 26.4208 31.1481L26.4339 31.2692L25.5261 31.5902C23.9023 32.1653 22.4047 32.7345 21.3906 33.1583C21.1057 33.2794 20.6087 33.4973 20.284 33.6427C19.9592 33.794 19.6941 33.9091 19.6941 33.903C19.6941 33.897 19.8995 33.7577 20.1514 33.5882C22.133 32.2743 23.8494 30.8332 25.135 29.3922C25.2742 29.2408 25.4002 29.1015 25.4133 29.0955L25.4266 29.0955ZM24.3994 29.3256C24.426 29.3498 23.6705 30.1308 23.1536 30.6092C21.8745 31.802 20.6087 32.7345 19.038 33.6427C18.8392 33.7577 18.6603 33.8606 18.6404 33.8728C18.594 33.897 18.6536 33.8364 19.3429 33.1522C19.7803 32.7223 20.1116 32.359 20.4894 31.9111C20.7412 31.6144 20.7876 31.572 21.1522 31.3358C22.1264 30.694 24.3729 29.3013 24.3994 29.3256Z" fill="url(#paint2_radial_746_1100)"/>
<rect x="1.5" y="1.72839" width="177" height="57" rx="6.5" stroke="#293548" stroke-width="3"/>
<defs>
<linearGradient id="paint0_linear_746_1100" x1="16.5963" y1="46.2716" x2="19.6122" y2="44.3211" gradientUnits="userSpaceOnUse">
<stop stop-color="#909CA9"/>
<stop offset="1" stop-color="#EDEDEE"/>
</linearGradient>
<linearGradient id="paint1_linear_746_1100" x1="16.6689" y1="14.0042" x2="19.2199" y2="14.0042" gradientUnits="userSpaceOnUse">
<stop stop-color="#939FAB"/>
<stop offset="1" stop-color="#DCDEE1"/>
</linearGradient>
<radialGradient id="paint2_radial_746_1100" cx="0" cy="0" r="1" gradientUnits="userSpaceOnUse" gradientTransform="translate(29.5412 24.6934) rotate(-172.186) scale(3.28293 6.02225)">
<stop stop-color="#EE352C"/>
<stop offset="1" stop-color="#A91D22"/>
</radialGradient>
</defs>
</svg>
