<svg width="180" height="61" viewBox="0 0 180 61" fill="none" xmlns="http://www.w3.org/2000/svg">
<path d="M72.7246 23.0096V37.2284H70.2734L63.8965 27.0428V37.2284H61.4453V23.0096H63.8965L70.293 33.2147V23.0096H72.7246ZM80.0684 37.4237C79.2871 37.4237 78.5807 37.2968 77.9492 37.0428C77.3242 36.7824 76.7904 36.4211 76.3477 35.9589C75.9115 35.4966 75.5762 34.953 75.3418 34.328C75.1074 33.703 74.9902 33.0292 74.9902 32.3065V31.9159C74.9902 31.0891 75.1107 30.3404 75.3516 29.6698C75.5924 28.9992 75.9277 28.4263 76.3574 27.951C76.7871 27.4693 77.2949 27.1014 77.8809 26.8475C78.4668 26.5936 79.1016 26.4667 79.7852 26.4667C80.5404 26.4667 81.2012 26.5936 81.7676 26.8475C82.334 27.1014 82.8027 27.4595 83.1738 27.9218C83.5514 28.3775 83.8314 28.9211 84.0137 29.5526C84.2025 30.1841 84.2969 30.8807 84.2969 31.6425V32.6483H76.1328V30.9589H81.9727V30.7733C81.9596 30.3501 81.875 29.953 81.7188 29.5819C81.569 29.2108 81.3379 28.9113 81.0254 28.6835C80.7129 28.4556 80.2962 28.3417 79.7754 28.3417C79.3848 28.3417 79.0365 28.4263 78.7305 28.5956C78.431 28.7583 78.1803 28.996 77.9785 29.3085C77.7767 29.621 77.6204 29.9986 77.5098 30.4413C77.4056 30.8775 77.3535 31.369 77.3535 31.9159V32.3065C77.3535 32.7688 77.4154 33.1984 77.5391 33.5956C77.6693 33.9862 77.8581 34.328 78.1055 34.621C78.3529 34.9139 78.6523 35.1451 79.0039 35.3143C79.3555 35.4771 79.7559 35.5585 80.2051 35.5585C80.7715 35.5585 81.276 35.4445 81.7188 35.2167C82.1615 34.9888 82.5456 34.6665 82.8711 34.2499L84.1113 35.451C83.8835 35.7831 83.5872 36.1021 83.2227 36.4081C82.8581 36.7076 82.4121 36.9517 81.8848 37.1405C81.3639 37.3293 80.7585 37.4237 80.0684 37.4237ZM92.0605 34.3671C92.0605 34.1327 92.002 33.9211 91.8848 33.7323C91.7676 33.537 91.543 33.3612 91.2109 33.205C90.8854 33.0487 90.4036 32.9055 89.7656 32.7753C89.2057 32.6516 88.6914 32.5051 88.2227 32.3358C87.7604 32.16 87.3633 31.9484 87.0312 31.701C86.6992 31.4537 86.4421 31.1607 86.2598 30.8221C86.0775 30.4836 85.9863 30.093 85.9863 29.6503C85.9863 29.2206 86.0807 28.8137 86.2695 28.4296C86.4583 28.0455 86.7285 27.7069 87.0801 27.4139C87.4316 27.121 87.8581 26.8899 88.3594 26.7206C88.8672 26.5513 89.4336 26.4667 90.0586 26.4667C90.944 26.4667 91.7025 26.6164 92.334 26.9159C92.972 27.2089 93.4603 27.6093 93.7988 28.1171C94.1374 28.6184 94.3066 29.1848 94.3066 29.8163H91.9531C91.9531 29.5363 91.8815 29.2759 91.7383 29.035C91.6016 28.7876 91.3932 28.5891 91.1133 28.4393C90.8333 28.2831 90.4818 28.205 90.0586 28.205C89.6549 28.205 89.3197 28.2701 89.0527 28.4003C88.7923 28.524 88.597 28.6867 88.4668 28.8885C88.3431 29.0904 88.2812 29.3117 88.2812 29.5526C88.2812 29.7284 88.3138 29.8879 88.3789 30.0311C88.4505 30.1678 88.5677 30.2948 88.7305 30.412C88.8932 30.5227 89.1146 30.6268 89.3945 30.7245C89.681 30.8221 90.0391 30.9165 90.4688 31.0077C91.276 31.177 91.9694 31.3951 92.5488 31.662C93.1348 31.9224 93.584 32.2609 93.8965 32.6776C94.209 33.0878 94.3652 33.6086 94.3652 34.2401C94.3652 34.7089 94.2643 35.1385 94.0625 35.5292C93.8672 35.9133 93.5807 36.2486 93.2031 36.535C92.8255 36.815 92.373 37.0331 91.8457 37.1893C91.3249 37.3456 90.7389 37.4237 90.0879 37.4237C89.1309 37.4237 88.3203 37.2544 87.6562 36.9159C86.9922 36.5708 86.4876 36.1314 86.1426 35.5975C85.804 35.0572 85.6348 34.4973 85.6348 33.9178H87.9102C87.9362 34.354 88.0566 34.7024 88.2715 34.9628C88.4928 35.2167 88.7663 35.4022 89.0918 35.5194C89.4238 35.6301 89.7656 35.6854 90.1172 35.6854C90.5404 35.6854 90.8952 35.6301 91.1816 35.5194C91.4681 35.4022 91.6862 35.246 91.8359 35.0507C91.9857 34.8488 92.0605 34.621 92.0605 34.3671ZM101.27 26.662V28.3807H95.3125V26.662H101.27ZM97.0312 24.0741H99.3848V34.3085C99.3848 34.634 99.4303 34.8846 99.5215 35.0604C99.6191 35.2297 99.7526 35.3436 99.9219 35.4022C100.091 35.4608 100.29 35.4901 100.518 35.4901C100.68 35.4901 100.837 35.4803 100.986 35.4608C101.136 35.4413 101.257 35.4218 101.348 35.4022L101.357 37.1991C101.162 37.2577 100.934 37.3098 100.674 37.3553C100.42 37.4009 100.127 37.4237 99.7949 37.4237C99.2546 37.4237 98.776 37.3293 98.3594 37.1405C97.9427 36.9452 97.6172 36.6294 97.3828 36.1932C97.1484 35.757 97.0312 35.1776 97.0312 34.455V24.0741ZM103.184 36.0565C103.184 35.6919 103.307 35.3859 103.555 35.1385C103.802 34.8846 104.137 34.7577 104.561 34.7577C104.99 34.7577 105.326 34.8846 105.566 35.1385C105.814 35.3859 105.938 35.6919 105.938 36.0565C105.938 36.4211 105.814 36.7271 105.566 36.9745C105.326 37.2219 104.99 37.3456 104.561 37.3456C104.137 37.3456 103.802 37.2219 103.555 36.9745C103.307 36.7271 103.184 36.4211 103.184 36.0565ZM114.736 32.9608V23.0096H117.178V32.9608C117.178 33.9048 116.976 34.7089 116.572 35.3729C116.169 36.037 115.618 36.5448 114.922 36.8964C114.225 37.2479 113.434 37.4237 112.549 37.4237C111.644 37.4237 110.84 37.2707 110.137 36.9647C109.44 36.6587 108.893 36.19 108.496 35.5585C108.099 34.927 107.9 34.1262 107.9 33.1561H110.361C110.361 33.716 110.449 34.1685 110.625 34.5135C110.807 34.8521 111.061 35.0995 111.387 35.2557C111.719 35.4055 112.106 35.4803 112.549 35.4803C112.972 35.4803 113.346 35.3859 113.672 35.1971C114.004 35.0018 114.264 34.7186 114.453 34.3475C114.642 33.9699 114.736 33.5077 114.736 32.9608ZM125.693 34.3671C125.693 34.1327 125.635 33.9211 125.518 33.7323C125.4 33.537 125.176 33.3612 124.844 33.205C124.518 33.0487 124.036 32.9055 123.398 32.7753C122.839 32.6516 122.324 32.5051 121.855 32.3358C121.393 32.16 120.996 31.9484 120.664 31.701C120.332 31.4537 120.075 31.1607 119.893 30.8221C119.71 30.4836 119.619 30.093 119.619 29.6503C119.619 29.2206 119.714 28.8137 119.902 28.4296C120.091 28.0455 120.361 27.7069 120.713 27.4139C121.064 27.121 121.491 26.8899 121.992 26.7206C122.5 26.5513 123.066 26.4667 123.691 26.4667C124.577 26.4667 125.335 26.6164 125.967 26.9159C126.605 27.2089 127.093 27.6093 127.432 28.1171C127.77 28.6184 127.939 29.1848 127.939 29.8163H125.586C125.586 29.5363 125.514 29.2759 125.371 29.035C125.234 28.7876 125.026 28.5891 124.746 28.4393C124.466 28.2831 124.115 28.205 123.691 28.205C123.288 28.205 122.952 28.2701 122.686 28.4003C122.425 28.524 122.23 28.6867 122.1 28.8885C121.976 29.0904 121.914 29.3117 121.914 29.5526C121.914 29.7284 121.947 29.8879 122.012 30.0311C122.083 30.1678 122.201 30.2948 122.363 30.412C122.526 30.5227 122.747 30.6268 123.027 30.7245C123.314 30.8221 123.672 30.9165 124.102 31.0077C124.909 31.177 125.602 31.3951 126.182 31.662C126.768 31.9224 127.217 32.2609 127.529 32.6776C127.842 33.0878 127.998 33.6086 127.998 34.2401C127.998 34.7089 127.897 35.1385 127.695 35.5292C127.5 35.9133 127.214 36.2486 126.836 36.535C126.458 36.815 126.006 37.0331 125.479 37.1893C124.958 37.3456 124.372 37.4237 123.721 37.4237C122.764 37.4237 121.953 37.2544 121.289 36.9159C120.625 36.5708 120.12 36.1314 119.775 35.5975C119.437 35.0572 119.268 34.4973 119.268 33.9178H121.543C121.569 34.354 121.689 34.7024 121.904 34.9628C122.126 35.2167 122.399 35.4022 122.725 35.5194C123.057 35.6301 123.398 35.6854 123.75 35.6854C124.173 35.6854 124.528 35.6301 124.814 35.5194C125.101 35.4022 125.319 35.246 125.469 35.0507C125.618 34.8488 125.693 34.621 125.693 34.3671Z" fill="white"/>
<path fill-rule="evenodd" clip-rule="evenodd" d="M33.1087 12.7284C32.8685 12.7318 32.6305 12.774 32.4037 12.8534C34.4225 14.1809 32.0412 16.1034 33.1537 17.7284C33.0771 17.1818 33.164 16.6248 33.4036 16.1276C33.6432 15.6304 34.0247 15.2153 34.5 14.9346C34.8562 14.6384 35.085 14.5321 35.0087 14.0421C34.885 13.2396 33.815 12.7284 33.1087 12.7284ZM35.9837 13.2459C35.705 14.6496 35.3587 14.7009 34.33 15.6046C33.9287 15.921 33.6456 16.3631 33.5261 16.8599C33.4066 17.3567 33.4577 17.8792 33.6712 18.3434C29.4212 16.6934 23.9737 15.6959 19.98 18.5509C18.5437 19.5771 17.6675 21.0509 15.8962 21.6521C14.7512 22.0446 13.6262 21.9284 12.9087 23.0634C12.6463 23.3911 12.5093 23.8016 12.5221 24.2213C12.5349 24.6409 12.6968 25.0423 12.9787 25.3534C13.1925 25.5721 13.6037 25.7121 13.7737 25.9346C13.8725 26.0596 13.87 26.1846 13.9637 26.3509C14.1294 26.7383 14.3689 27.0899 14.6687 27.3859C14.8525 27.5371 15.4837 27.6846 15.5912 27.8459C15.7262 28.0471 15.3762 28.8459 15.67 28.9709C15.8675 29.0621 16.4462 28.0409 16.5025 27.9509C16.3875 28.7546 16.2362 30.1809 17.14 28.9934C17.5687 28.4296 17.595 28.2434 18.3162 28.1184C18.7778 28.0382 19.2443 27.9898 19.7125 27.9734C22.3871 27.8798 24.9958 28.8157 27.0009 30.5883C29.006 32.3608 30.2548 34.835 30.49 37.5009C30.355 36.8759 29.5387 35.8759 28.7787 36.1134C28.455 36.2134 28.335 36.7721 28.1225 37.0959C27.8538 37.5064 27.5228 37.8725 27.1412 38.1809C27.2058 37.5749 27.1755 36.9625 27.0512 36.3659C26.8237 37.3009 26.3675 38.8521 25.2187 38.6009C24.8361 38.5425 24.4775 38.3777 24.184 38.1252C23.8905 37.8728 23.6738 37.543 23.5587 37.1734C23.41 36.2234 24.4137 35.1096 22.8 35.0309C19.5625 34.8721 20.3112 39.6334 22.2225 40.8746C21.7832 40.9232 21.3548 41.0427 20.9537 41.2284C22.1678 41.9335 23.5358 42.3312 24.9387 42.387C26.3415 42.4427 27.7368 42.1548 29.003 41.5483C30.2692 40.9419 31.368 40.0351 32.2038 38.9071C33.0397 37.779 33.5872 36.4638 33.7987 35.0759C34.0769 36.347 34.0705 37.6638 33.78 38.9321C33.6247 39.6061 33.3923 40.26 33.0875 40.8809C32.6743 41.7195 32.1252 42.484 31.4625 43.1434C31.07 43.5321 30.35 43.9234 30.1025 44.3196C31.6175 44.1188 33.0978 43.7117 34.5025 43.1096C33.0484 45.1013 31.112 46.6907 28.875 47.7284C31.2735 47.5587 33.592 46.7947 35.6215 45.5052C37.6509 44.2157 39.3275 42.4414 40.5 40.3421C40.1263 42.4416 39.2964 44.4335 38.0687 46.1771C39.7199 45.0717 41.1247 43.6369 42.1949 41.9627C43.265 40.2885 43.9775 38.4111 44.2875 36.4484C44.5953 37.8851 44.6834 39.3602 44.5487 40.8234C45.9051 38.9387 46.8214 36.7737 47.2301 34.4879C47.6387 32.2022 47.5293 29.8538 46.91 27.6159C46.4363 25.8762 45.7259 24.2098 44.7987 22.6634C44.4407 22.0608 44.0489 21.4791 43.625 20.9209C43.4587 20.7046 42.57 19.9134 42.57 19.6709C42.5625 19.6951 42.5562 19.6951 42.5512 19.6709C42.5512 23.7309 38.1762 26.3371 34.5125 25.2496C35.9056 25.1416 37.2223 24.5698 38.2524 23.6257C39.2824 22.6815 39.9664 21.4194 40.195 20.0409C40.3974 18.5947 40.0871 17.1233 39.3178 15.8821C38.5485 14.6408 37.3689 13.7081 35.9837 13.2459Z" fill="#E0234E"/>
<rect x="1.5" y="1.72839" width="177" height="57" rx="6.5" stroke="#293548" stroke-width="3"/>
</svg>
