<svg width="180" height="61" viewBox="0 0 180 61" fill="none" xmlns="http://www.w3.org/2000/svg">
<path d="M72.7246 23.0096V37.2284H70.2734L63.8965 27.0428V37.2284H61.4453V23.0096H63.8965L70.293 33.2147V23.0096H72.7246ZM74.9609 32.0624V31.8378C74.9609 31.076 75.0716 30.3697 75.293 29.7186C75.5143 29.0611 75.8333 28.4914 76.25 28.0096C76.6732 27.5214 77.1875 27.1438 77.793 26.8768C78.4049 26.6034 79.0951 26.4667 79.8633 26.4667C80.638 26.4667 81.3281 26.6034 81.9336 26.8768C82.5456 27.1438 83.0632 27.5214 83.4863 28.0096C83.9095 28.4914 84.2318 29.0611 84.4531 29.7186C84.6745 30.3697 84.7852 31.076 84.7852 31.8378V32.0624C84.7852 32.8241 84.6745 33.5305 84.4531 34.1815C84.2318 34.8326 83.9095 35.4022 83.4863 35.8905C83.0632 36.3723 82.5488 36.7499 81.9434 37.0233C81.3379 37.2902 80.651 37.4237 79.8828 37.4237C79.1081 37.4237 78.4147 37.2902 77.8027 37.0233C77.1973 36.7499 76.6829 36.3723 76.2598 35.8905C75.8366 35.4022 75.5143 34.8326 75.293 34.1815C75.0716 33.5305 74.9609 32.8241 74.9609 32.0624ZM77.3145 31.8378V32.0624C77.3145 32.5376 77.3633 32.9869 77.4609 33.41C77.5586 33.8332 77.7116 34.2043 77.9199 34.5233C78.1283 34.8423 78.3952 35.093 78.7207 35.2753C79.0462 35.4576 79.4336 35.5487 79.8828 35.5487C80.319 35.5487 80.6966 35.4576 81.0156 35.2753C81.3411 35.093 81.6081 34.8423 81.8164 34.5233C82.0247 34.2043 82.1777 33.8332 82.2754 33.41C82.3796 32.9869 82.4316 32.5376 82.4316 32.0624V31.8378C82.4316 31.369 82.3796 30.9263 82.2754 30.5096C82.1777 30.0865 82.0215 29.7121 81.8066 29.3866C81.5983 29.0611 81.3314 28.8072 81.0059 28.6249C80.6868 28.4361 80.306 28.3417 79.8633 28.3417C79.4206 28.3417 79.0365 28.4361 78.7109 28.6249C78.3919 28.8072 78.1283 29.0611 77.9199 29.3866C77.7116 29.7121 77.5586 30.0865 77.4609 30.5096C77.3633 30.9263 77.3145 31.369 77.3145 31.8378ZM93.2031 35.0409V22.2284H95.5664V37.2284H93.4277L93.2031 35.0409ZM86.3281 32.0624V31.8573C86.3281 31.0565 86.4225 30.3274 86.6113 29.6698C86.8001 29.0057 87.0736 28.4361 87.4316 27.9608C87.7897 27.479 88.2259 27.1112 88.7402 26.8573C89.2546 26.5969 89.834 26.4667 90.4785 26.4667C91.1165 26.4667 91.6764 26.5904 92.1582 26.8378C92.64 27.0852 93.0501 27.44 93.3887 27.9022C93.7272 28.358 93.9974 28.9048 94.1992 29.5428C94.401 30.1744 94.5443 30.8775 94.6289 31.6522V32.3065C94.5443 33.0617 94.401 33.7518 94.1992 34.3768C93.9974 35.0018 93.7272 35.5422 93.3887 35.9979C93.0501 36.4537 92.6367 36.8052 92.1484 37.0526C91.6667 37.3 91.1035 37.4237 90.459 37.4237C89.821 37.4237 89.2448 37.2902 88.7305 37.0233C88.2227 36.7564 87.7897 36.382 87.4316 35.9003C87.0736 35.4185 86.8001 34.8521 86.6113 34.201C86.4225 33.5435 86.3281 32.8306 86.3281 32.0624ZM88.6816 31.8573V32.0624C88.6816 32.5441 88.724 32.9934 88.8086 33.41C88.8997 33.8267 89.0397 34.1945 89.2285 34.5135C89.4173 34.826 89.6615 35.0734 89.9609 35.2557C90.2669 35.4315 90.6315 35.5194 91.0547 35.5194C91.5885 35.5194 92.028 35.4022 92.373 35.1678C92.7181 34.9335 92.9883 34.6177 93.1836 34.2206C93.3854 33.8169 93.5221 33.3677 93.5938 32.8729V31.1053C93.5547 30.7212 93.4733 30.3632 93.3496 30.0311C93.2324 29.6991 93.0729 29.4094 92.8711 29.162C92.6693 28.9081 92.4186 28.7128 92.1191 28.576C91.8262 28.4328 91.4779 28.3612 91.0742 28.3612C90.6445 28.3612 90.2799 28.4524 89.9805 28.6346C89.681 28.8169 89.4336 29.0676 89.2383 29.3866C89.0495 29.7056 88.9095 30.0767 88.8184 30.4999C88.7272 30.9231 88.6816 31.3755 88.6816 31.8573ZM102.686 37.4237C101.904 37.4237 101.198 37.2968 100.566 37.0428C99.9414 36.7824 99.4076 36.4211 98.9648 35.9589C98.5286 35.4966 98.1934 34.953 97.959 34.328C97.7246 33.703 97.6074 33.0292 97.6074 32.3065V31.9159C97.6074 31.0891 97.7279 30.3404 97.9688 29.6698C98.2096 28.9992 98.5449 28.4263 98.9746 27.951C99.4043 27.4693 99.9121 27.1014 100.498 26.8475C101.084 26.5936 101.719 26.4667 102.402 26.4667C103.158 26.4667 103.818 26.5936 104.385 26.8475C104.951 27.1014 105.42 27.4595 105.791 27.9218C106.169 28.3775 106.449 28.9211 106.631 29.5526C106.82 30.1841 106.914 30.8807 106.914 31.6425V32.6483H98.75V30.9589H104.59V30.7733C104.577 30.3501 104.492 29.953 104.336 29.5819C104.186 29.2108 103.955 28.9113 103.643 28.6835C103.33 28.4556 102.913 28.3417 102.393 28.3417C102.002 28.3417 101.654 28.4263 101.348 28.5956C101.048 28.7583 100.798 28.996 100.596 29.3085C100.394 29.621 100.238 29.9986 100.127 30.4413C100.023 30.8775 99.9707 31.369 99.9707 31.9159V32.3065C99.9707 32.7688 100.033 33.1984 100.156 33.5956C100.286 33.9862 100.475 34.328 100.723 34.621C100.97 34.9139 101.27 35.1451 101.621 35.3143C101.973 35.4771 102.373 35.5585 102.822 35.5585C103.389 35.5585 103.893 35.4445 104.336 35.2167C104.779 34.9888 105.163 34.6665 105.488 34.2499L106.729 35.451C106.501 35.7831 106.204 36.1021 105.84 36.4081C105.475 36.7076 105.029 36.9517 104.502 37.1405C103.981 37.3293 103.376 37.4237 102.686 37.4237ZM108.848 36.0565C108.848 35.6919 108.971 35.3859 109.219 35.1385C109.466 34.8846 109.801 34.7577 110.225 34.7577C110.654 34.7577 110.99 34.8846 111.23 35.1385C111.478 35.3859 111.602 35.6919 111.602 36.0565C111.602 36.4211 111.478 36.7271 111.23 36.9745C110.99 37.2219 110.654 37.3456 110.225 37.3456C109.801 37.3456 109.466 37.2219 109.219 36.9745C108.971 36.7271 108.848 36.4211 108.848 36.0565ZM120.4 32.9608V23.0096H122.842V32.9608C122.842 33.9048 122.64 34.7089 122.236 35.3729C121.833 36.037 121.283 36.5448 120.586 36.8964C119.889 37.2479 119.098 37.4237 118.213 37.4237C117.308 37.4237 116.504 37.2707 115.801 36.9647C115.104 36.6587 114.557 36.19 114.16 35.5585C113.763 34.927 113.564 34.1262 113.564 33.1561H116.025C116.025 33.716 116.113 34.1685 116.289 34.5135C116.471 34.8521 116.725 35.0995 117.051 35.2557C117.383 35.4055 117.77 35.4803 118.213 35.4803C118.636 35.4803 119.01 35.3859 119.336 35.1971C119.668 35.0018 119.928 34.7186 120.117 34.3475C120.306 33.9699 120.4 33.5077 120.4 32.9608ZM131.357 34.3671C131.357 34.1327 131.299 33.9211 131.182 33.7323C131.064 33.537 130.84 33.3612 130.508 33.205C130.182 33.0487 129.701 32.9055 129.062 32.7753C128.503 32.6516 127.988 32.5051 127.52 32.3358C127.057 32.16 126.66 31.9484 126.328 31.701C125.996 31.4537 125.739 31.1607 125.557 30.8221C125.374 30.4836 125.283 30.093 125.283 29.6503C125.283 29.2206 125.378 28.8137 125.566 28.4296C125.755 28.0455 126.025 27.7069 126.377 27.4139C126.729 27.121 127.155 26.8899 127.656 26.7206C128.164 26.5513 128.73 26.4667 129.355 26.4667C130.241 26.4667 130.999 26.6164 131.631 26.9159C132.269 27.2089 132.757 27.6093 133.096 28.1171C133.434 28.6184 133.604 29.1848 133.604 29.8163H131.25C131.25 29.5363 131.178 29.2759 131.035 29.035C130.898 28.7876 130.69 28.5891 130.41 28.4393C130.13 28.2831 129.779 28.205 129.355 28.205C128.952 28.205 128.617 28.2701 128.35 28.4003C128.089 28.524 127.894 28.6867 127.764 28.8885C127.64 29.0904 127.578 29.3117 127.578 29.5526C127.578 29.7284 127.611 29.8879 127.676 30.0311C127.747 30.1678 127.865 30.2948 128.027 30.412C128.19 30.5227 128.411 30.6268 128.691 30.7245C128.978 30.8221 129.336 30.9165 129.766 31.0077C130.573 31.177 131.266 31.3951 131.846 31.662C132.432 31.9224 132.881 32.2609 133.193 32.6776C133.506 33.0878 133.662 33.6086 133.662 34.2401C133.662 34.7089 133.561 35.1385 133.359 35.5292C133.164 35.9133 132.878 36.2486 132.5 36.535C132.122 36.815 131.67 37.0331 131.143 37.1893C130.622 37.3456 130.036 37.4237 129.385 37.4237C128.428 37.4237 127.617 37.2544 126.953 36.9159C126.289 36.5708 125.785 36.1314 125.439 35.5975C125.101 35.0572 124.932 34.4973 124.932 33.9178H127.207C127.233 34.354 127.354 34.7024 127.568 34.9628C127.79 35.2167 128.063 35.4022 128.389 35.5194C128.721 35.6301 129.062 35.6854 129.414 35.6854C129.837 35.6854 130.192 35.6301 130.479 35.5194C130.765 35.4022 130.983 35.246 131.133 35.0507C131.283 34.8488 131.357 34.621 131.357 34.3671Z" fill="white"/>
<g clip-path="url(#clip0_746_1072)">
<path d="M25.69 45.2734C24.6633 45.8684 24.4683 45.9384 23.5033 46.28C23.27 46.36 22.9167 46.5017 23.6367 46.915L28.47 49.8117C28.9317 50.0834 29.465 50.225 29.99 50.225L29.9933 50.2284C30.525 50.2284 31.05 50.085 31.5117 49.815L45.9817 41.3534C46.9217 40.7984 47.5017 39.7734 47.5017 38.6784V21.765C47.5017 20.6617 46.9233 19.6367 45.9817 19.09L31.5117 10.62C30.6033 10.0967 29.3883 10.0967 28.4717 10.62L14.0183 19.0817C13.08 19.63 12.5 20.6617 12.5 21.7567V38.67C12.5 39.7734 13.0783 40.7984 14.0183 41.345L17.81 43.56C19.6433 44.4817 20.3 44.4817 21.1383 44.4817C23.8567 44.4817 25.4233 42.815 25.4233 39.91V23.2034C25.4233 22.9667 25.2283 22.7834 25 22.7834H23.1667C22.9317 22.7834 22.7433 22.965 22.7433 23.2034V39.9017C22.7433 41.195 21.4267 42.4734 19.2717 41.3867L15.3083 39.0684C15.17 38.9967 15.0833 38.8384 15.0833 38.6784V21.765C15.0833 21.6 15.17 21.44 15.31 21.36L29.7633 12.8984C29.895 12.8184 30.0767 12.8184 30.21 12.8984L44.6717 21.3517C44.8117 21.4384 44.8983 21.59 44.8983 21.7567V38.6784C44.8983 38.835 44.8133 38.995 44.68 39.075L30.21 47.5367C30.085 47.6167 29.8967 47.6167 29.7633 47.5367L26.05 45.3067C25.94 45.235 25.8 45.21 25.69 45.2734Z" fill="#8CC03E"/>
<path d="M34.4567 36.01C30.6267 36.01 29.7867 35.0334 29.5067 33.105C29.475 32.8984 29.3033 32.7484 29.0917 32.7484H27.22C26.985 32.7484 26.805 32.9384 26.805 33.1684C26.805 35.6367 28.1283 38.5817 34.465 38.5817C39.0383 38.5734 41.6733 36.7417 41.6733 33.55L41.6683 33.5517C41.6683 30.385 39.5533 29.5434 35.1117 28.9484C30.615 28.345 30.1617 28.035 30.1617 26.9717C30.1617 26.0917 30.5467 24.9167 33.875 24.9167C36.845 24.9167 37.9417 25.5667 38.395 27.5984C38.4333 27.79 38.6067 27.9317 38.8033 27.9317H40.6833C40.8 27.9317 40.91 27.885 40.9883 27.7967C41.0667 27.7084 41.105 27.59 41.0983 27.4717C40.8083 23.9717 38.5133 22.345 33.875 22.345C29.7467 22.345 27.2867 24.1084 27.2867 27.0667C27.2867 30.2734 29.7383 31.1634 33.695 31.5584C38.435 32.0284 38.8017 32.7334 38.8017 33.6784C38.805 35.3134 37.505 36.01 34.4567 36.01Z" fill="#8CC03E"/>
</g>
<rect x="1.5" y="1.72839" width="177" height="57" rx="6.5" stroke="#293548" stroke-width="3"/>
<defs>
<clipPath id="clip0_746_1072">
<rect width="40" height="40" fill="white" transform="translate(10 10.2284)"/>
</clipPath>
</defs>
</svg>
