<svg width="180" height="61" viewBox="0 0 180 61" fill="none" xmlns="http://www.w3.org/2000/svg">
<path d="M66.8457 31.9257H63.1445V29.9823H66.8457C67.4902 29.9823 68.0111 29.8781 68.4082 29.6698C68.8053 29.4615 69.0951 29.175 69.2773 28.8104C69.4661 28.4393 69.5605 28.0162 69.5605 27.5409C69.5605 27.0917 69.4661 26.6718 69.2773 26.2811C69.0951 25.884 68.8053 25.565 68.4082 25.3241C68.0111 25.0832 67.4902 24.9628 66.8457 24.9628H63.8965V37.2284H61.4453V23.0096H66.8457C67.946 23.0096 68.8802 23.205 69.6484 23.5956C70.4232 23.9797 71.0124 24.5135 71.416 25.1971C71.8197 25.8742 72.0215 26.649 72.0215 27.5214C72.0215 28.4393 71.8197 29.2271 71.416 29.8846C71.0124 30.5422 70.4232 31.0468 69.6484 31.3983C68.8802 31.7499 67.946 31.9257 66.8457 31.9257ZM73.3984 32.0624V31.8378C73.3984 31.076 73.5091 30.3697 73.7305 29.7186C73.9518 29.0611 74.2708 28.4914 74.6875 28.0096C75.1107 27.5214 75.625 27.1438 76.2305 26.8768C76.8424 26.6034 77.5326 26.4667 78.3008 26.4667C79.0755 26.4667 79.7656 26.6034 80.3711 26.8768C80.9831 27.1438 81.5007 27.5214 81.9238 28.0096C82.347 28.4914 82.6693 29.0611 82.8906 29.7186C83.112 30.3697 83.2227 31.076 83.2227 31.8378V32.0624C83.2227 32.8241 83.112 33.5305 82.8906 34.1815C82.6693 34.8326 82.347 35.4022 81.9238 35.8905C81.5007 36.3723 80.9863 36.7499 80.3809 37.0233C79.7754 37.2902 79.0885 37.4237 78.3203 37.4237C77.5456 37.4237 76.8522 37.2902 76.2402 37.0233C75.6348 36.7499 75.1204 36.3723 74.6973 35.8905C74.2741 35.4022 73.9518 34.8326 73.7305 34.1815C73.5091 33.5305 73.3984 32.8241 73.3984 32.0624ZM75.752 31.8378V32.0624C75.752 32.5376 75.8008 32.9869 75.8984 33.41C75.9961 33.8332 76.1491 34.2043 76.3574 34.5233C76.5658 34.8423 76.8327 35.093 77.1582 35.2753C77.4837 35.4576 77.8711 35.5487 78.3203 35.5487C78.7565 35.5487 79.1341 35.4576 79.4531 35.2753C79.7786 35.093 80.0456 34.8423 80.2539 34.5233C80.4622 34.2043 80.6152 33.8332 80.7129 33.41C80.8171 32.9869 80.8691 32.5376 80.8691 32.0624V31.8378C80.8691 31.369 80.8171 30.9263 80.7129 30.5096C80.6152 30.0865 80.459 29.7121 80.2441 29.3866C80.0358 29.0611 79.7689 28.8072 79.4434 28.6249C79.1243 28.4361 78.7435 28.3417 78.3008 28.3417C77.8581 28.3417 77.474 28.4361 77.1484 28.6249C76.8294 28.8072 76.5658 29.0611 76.3574 29.3866C76.1491 29.7121 75.9961 30.0865 75.8984 30.5096C75.8008 30.9263 75.752 31.369 75.752 31.8378ZM91.123 34.3671C91.123 34.1327 91.0645 33.9211 90.9473 33.7323C90.8301 33.537 90.6055 33.3612 90.2734 33.205C89.9479 33.0487 89.4661 32.9055 88.8281 32.7753C88.2682 32.6516 87.7539 32.5051 87.2852 32.3358C86.8229 32.16 86.4258 31.9484 86.0938 31.701C85.7617 31.4537 85.5046 31.1607 85.3223 30.8221C85.14 30.4836 85.0488 30.093 85.0488 29.6503C85.0488 29.2206 85.1432 28.8137 85.332 28.4296C85.5208 28.0455 85.791 27.7069 86.1426 27.4139C86.4941 27.121 86.9206 26.8899 87.4219 26.7206C87.9297 26.5513 88.4961 26.4667 89.1211 26.4667C90.0065 26.4667 90.765 26.6164 91.3965 26.9159C92.0345 27.2089 92.5228 27.6093 92.8613 28.1171C93.1999 28.6184 93.3691 29.1848 93.3691 29.8163H91.0156C91.0156 29.5363 90.944 29.2759 90.8008 29.035C90.6641 28.7876 90.4557 28.5891 90.1758 28.4393C89.8958 28.2831 89.5443 28.205 89.1211 28.205C88.7174 28.205 88.3822 28.2701 88.1152 28.4003C87.8548 28.524 87.6595 28.6867 87.5293 28.8885C87.4056 29.0904 87.3438 29.3117 87.3438 29.5526C87.3438 29.7284 87.3763 29.8879 87.4414 30.0311C87.513 30.1678 87.6302 30.2948 87.793 30.412C87.9557 30.5227 88.1771 30.6268 88.457 30.7245C88.7435 30.8221 89.1016 30.9165 89.5312 31.0077C90.3385 31.177 91.0319 31.3951 91.6113 31.662C92.1973 31.9224 92.6465 32.2609 92.959 32.6776C93.2715 33.0878 93.4277 33.6086 93.4277 34.2401C93.4277 34.7089 93.3268 35.1385 93.125 35.5292C92.9297 35.9133 92.6432 36.2486 92.2656 36.535C91.888 36.815 91.4355 37.0331 90.9082 37.1893C90.3874 37.3456 89.8014 37.4237 89.1504 37.4237C88.1934 37.4237 87.3828 37.2544 86.7188 36.9159C86.0547 36.5708 85.5501 36.1314 85.2051 35.5975C84.8665 35.0572 84.6973 34.4973 84.6973 33.9178H86.9727C86.9987 34.354 87.1191 34.7024 87.334 34.9628C87.5553 35.2167 87.8288 35.4022 88.1543 35.5194C88.4863 35.6301 88.8281 35.6854 89.1797 35.6854C89.6029 35.6854 89.9577 35.6301 90.2441 35.5194C90.5306 35.4022 90.7487 35.246 90.8984 35.0507C91.0482 34.8488 91.123 34.621 91.123 34.3671ZM100.332 26.662V28.3807H94.375V26.662H100.332ZM96.0938 24.0741H98.4473V34.3085C98.4473 34.634 98.4928 34.8846 98.584 35.0604C98.6816 35.2297 98.8151 35.3436 98.9844 35.4022C99.1536 35.4608 99.3522 35.4901 99.5801 35.4901C99.7428 35.4901 99.8991 35.4803 100.049 35.4608C100.199 35.4413 100.319 35.4218 100.41 35.4022L100.42 37.1991C100.225 37.2577 99.9967 37.3098 99.7363 37.3553C99.4824 37.4009 99.1895 37.4237 98.8574 37.4237C98.3171 37.4237 97.8385 37.3293 97.4219 37.1405C97.0052 36.9452 96.6797 36.6294 96.4453 36.1932C96.2109 35.757 96.0938 35.1776 96.0938 34.455V24.0741ZM108.916 26.662H111.055V36.9354C111.055 37.8859 110.853 38.6932 110.449 39.3573C110.046 40.0214 109.482 40.5259 108.76 40.871C108.037 41.2225 107.201 41.3983 106.25 41.3983C105.846 41.3983 105.397 41.3397 104.902 41.2225C104.414 41.1053 103.939 40.9165 103.477 40.6561C103.021 40.4022 102.64 40.0669 102.334 39.6503L103.438 38.2635C103.815 38.7128 104.232 39.0415 104.688 39.2499C105.143 39.4582 105.622 39.5624 106.123 39.5624C106.663 39.5624 107.122 39.4615 107.5 39.2596C107.884 39.0643 108.18 38.7746 108.389 38.3905C108.597 38.0064 108.701 37.5376 108.701 36.9843V29.0546L108.916 26.662ZM101.738 32.0624V31.8573C101.738 31.0565 101.836 30.3274 102.031 29.6698C102.227 29.0057 102.507 28.4361 102.871 27.9608C103.236 27.479 103.678 27.1112 104.199 26.8573C104.72 26.5969 105.309 26.4667 105.967 26.4667C106.65 26.4667 107.233 26.5904 107.715 26.8378C108.203 27.0852 108.61 27.44 108.936 27.9022C109.261 28.358 109.515 28.9048 109.697 29.5428C109.886 30.1744 110.026 30.8775 110.117 31.6522V32.3065C110.033 33.0617 109.889 33.7518 109.688 34.3768C109.486 35.0018 109.219 35.5422 108.887 35.9979C108.555 36.4537 108.145 36.8052 107.656 37.0526C107.174 37.3 106.605 37.4237 105.947 37.4237C105.303 37.4237 104.72 37.2902 104.199 37.0233C103.685 36.7564 103.242 36.382 102.871 35.9003C102.507 35.4185 102.227 34.8521 102.031 34.201C101.836 33.5435 101.738 32.8306 101.738 32.0624ZM104.092 31.8573V32.0624C104.092 32.5441 104.137 32.9934 104.229 33.41C104.326 33.8267 104.473 34.1945 104.668 34.5135C104.87 34.826 105.124 35.0734 105.43 35.2557C105.742 35.4315 106.11 35.5194 106.533 35.5194C107.087 35.5194 107.539 35.4022 107.891 35.1678C108.249 34.9335 108.522 34.6177 108.711 34.2206C108.906 33.8169 109.043 33.3677 109.121 32.8729V31.1053C109.082 30.7212 109.001 30.3632 108.877 30.0311C108.76 29.6991 108.6 29.4094 108.398 29.162C108.197 28.9081 107.943 28.7128 107.637 28.576C107.331 28.4328 106.969 28.3612 106.553 28.3612C106.13 28.3612 105.762 28.4524 105.449 28.6346C105.137 28.8169 104.88 29.0676 104.678 29.3866C104.482 29.7056 104.336 30.0767 104.238 30.4999C104.141 30.9231 104.092 31.3755 104.092 31.8573ZM115.859 28.6737V37.2284H113.506V26.662H115.752L115.859 28.6737ZM119.092 26.5936L119.072 28.7811C118.929 28.7551 118.773 28.7356 118.604 28.7225C118.441 28.7095 118.278 28.703 118.115 28.703C117.712 28.703 117.357 28.7616 117.051 28.8788C116.745 28.9895 116.488 29.1522 116.279 29.3671C116.077 29.5754 115.921 29.8293 115.811 30.1288C115.7 30.4283 115.635 30.7635 115.615 31.1346L115.078 31.1737C115.078 30.5096 115.143 29.8944 115.273 29.328C115.404 28.7616 115.599 28.2635 115.859 27.8339C116.126 27.4042 116.458 27.0689 116.855 26.828C117.259 26.5871 117.725 26.4667 118.252 26.4667C118.395 26.4667 118.548 26.4797 118.711 26.5057C118.88 26.5318 119.007 26.5611 119.092 26.5936ZM125.029 37.4237C124.248 37.4237 123.542 37.2968 122.91 37.0428C122.285 36.7824 121.751 36.4211 121.309 35.9589C120.872 35.4966 120.537 34.953 120.303 34.328C120.068 33.703 119.951 33.0292 119.951 32.3065V31.9159C119.951 31.0891 120.072 30.3404 120.312 29.6698C120.553 28.9992 120.889 28.4263 121.318 27.951C121.748 27.4693 122.256 27.1014 122.842 26.8475C123.428 26.5936 124.062 26.4667 124.746 26.4667C125.501 26.4667 126.162 26.5936 126.729 26.8475C127.295 27.1014 127.764 27.4595 128.135 27.9218C128.512 28.3775 128.792 28.9211 128.975 29.5526C129.163 30.1841 129.258 30.8807 129.258 31.6425V32.6483H121.094V30.9589H126.934V30.7733C126.921 30.3501 126.836 29.953 126.68 29.5819C126.53 29.2108 126.299 28.9113 125.986 28.6835C125.674 28.4556 125.257 28.3417 124.736 28.3417C124.346 28.3417 123.997 28.4263 123.691 28.5956C123.392 28.7583 123.141 28.996 122.939 29.3085C122.738 29.621 122.581 29.9986 122.471 30.4413C122.367 30.8775 122.314 31.369 122.314 31.9159V32.3065C122.314 32.7688 122.376 33.1984 122.5 33.5956C122.63 33.9862 122.819 34.328 123.066 34.621C123.314 34.9139 123.613 35.1451 123.965 35.3143C124.316 35.4771 124.717 35.5585 125.166 35.5585C125.732 35.5585 126.237 35.4445 126.68 35.2167C127.122 34.9888 127.507 34.6665 127.832 34.2499L129.072 35.451C128.844 35.7831 128.548 36.1021 128.184 36.4081C127.819 36.7076 127.373 36.9517 126.846 37.1405C126.325 37.3293 125.719 37.4237 125.029 37.4237ZM138.809 33.5663C138.809 33.2733 138.763 33.0129 138.672 32.785C138.587 32.5572 138.434 32.3488 138.213 32.16C137.992 31.9712 137.679 31.7889 137.275 31.6132C136.878 31.4309 136.37 31.2453 135.752 31.0565C135.075 30.8482 134.45 30.6171 133.877 30.3632C133.311 30.1027 132.816 29.8033 132.393 29.4647C131.969 29.1197 131.641 28.7258 131.406 28.2831C131.172 27.8339 131.055 27.3163 131.055 26.7303C131.055 26.1509 131.175 25.6236 131.416 25.1483C131.663 24.6731 132.012 24.2629 132.461 23.9178C132.917 23.5663 133.454 23.2961 134.072 23.1073C134.691 22.912 135.374 22.8143 136.123 22.8143C137.178 22.8143 138.086 23.0096 138.848 23.4003C139.616 23.7909 140.205 24.315 140.615 24.9725C141.032 25.6301 141.24 26.356 141.24 27.1503H138.809C138.809 26.6815 138.708 26.2681 138.506 25.91C138.311 25.5455 138.011 25.259 137.607 25.0507C137.21 24.8423 136.706 24.7382 136.094 24.7382C135.514 24.7382 135.033 24.826 134.648 25.0018C134.264 25.1776 133.978 25.4152 133.789 25.7147C133.6 26.0142 133.506 26.3527 133.506 26.7303C133.506 26.9973 133.568 27.2414 133.691 27.4628C133.815 27.6776 134.004 27.8794 134.258 28.0682C134.512 28.2505 134.831 28.4231 135.215 28.5858C135.599 28.7486 136.051 28.9048 136.572 29.0546C137.36 29.2889 138.047 29.5494 138.633 29.8358C139.219 30.1158 139.707 30.4348 140.098 30.7928C140.488 31.1509 140.781 31.5578 140.977 32.0135C141.172 32.4628 141.27 32.9738 141.27 33.5468C141.27 34.1457 141.149 34.6861 140.908 35.1678C140.667 35.6431 140.322 36.05 139.873 36.3885C139.43 36.7206 138.896 36.9777 138.271 37.16C137.653 37.3358 136.963 37.4237 136.201 37.4237C135.518 37.4237 134.844 37.3326 134.18 37.1503C133.522 36.968 132.923 36.6913 132.383 36.3202C131.842 35.9426 131.413 35.4738 131.094 34.9139C130.775 34.3475 130.615 33.6867 130.615 32.9315H133.066C133.066 33.3938 133.145 33.7876 133.301 34.1132C133.464 34.4387 133.688 34.7056 133.975 34.9139C134.261 35.1158 134.593 35.2655 134.971 35.3632C135.355 35.4608 135.765 35.5096 136.201 35.5096C136.774 35.5096 137.253 35.4283 137.637 35.2655C138.027 35.1027 138.32 34.8749 138.516 34.5819C138.711 34.2889 138.809 33.9504 138.809 33.5663ZM150.967 35.3339L154.707 38.3026L153.115 39.6991L149.443 36.7596L150.967 35.3339ZM154.736 29.7284V30.5096C154.736 31.5839 154.596 32.5474 154.316 33.4003C154.036 34.2531 153.636 34.979 153.115 35.578C152.594 36.177 151.973 36.6359 151.25 36.955C150.527 37.2675 149.727 37.4237 148.848 37.4237C147.975 37.4237 147.178 37.2675 146.455 36.955C145.739 36.6359 145.117 36.177 144.59 35.578C144.062 34.979 143.652 34.2531 143.359 33.4003C143.073 32.5474 142.93 31.5839 142.93 30.5096V29.7284C142.93 28.6542 143.073 27.6939 143.359 26.8475C143.646 25.9947 144.049 25.2688 144.57 24.6698C145.098 24.0643 145.719 23.6053 146.436 23.2928C147.158 22.9738 147.956 22.8143 148.828 22.8143C149.707 22.8143 150.508 22.9738 151.23 23.2928C151.96 23.6053 152.585 24.0643 153.105 24.6698C153.626 25.2688 154.027 25.9947 154.307 26.8475C154.593 27.6939 154.736 28.6542 154.736 29.7284ZM152.275 30.5096V29.7089C152.275 28.9146 152.197 28.2147 152.041 27.6093C151.891 26.9973 151.667 26.4862 151.367 26.076C151.074 25.6594 150.713 25.3469 150.283 25.1385C149.86 24.9237 149.375 24.8163 148.828 24.8163C148.294 24.8163 147.816 24.9237 147.393 25.1385C146.969 25.3469 146.608 25.6594 146.309 26.076C146.009 26.4862 145.781 26.9973 145.625 27.6093C145.469 28.2147 145.391 28.9146 145.391 29.7089V30.5096C145.391 31.3039 145.469 32.007 145.625 32.619C145.781 33.231 146.009 33.7486 146.309 34.1718C146.615 34.5884 146.979 34.9042 147.402 35.119C147.832 35.3274 148.314 35.4315 148.848 35.4315C149.395 35.4315 149.88 35.3274 150.303 35.119C150.726 34.9042 151.084 34.5884 151.377 34.1718C151.67 33.7486 151.891 33.231 152.041 32.619C152.197 32.007 152.275 31.3039 152.275 30.5096ZM166.133 35.285V37.2284H158.994V35.285H166.133ZM159.678 23.0096V37.2284H157.227V23.0096H159.678Z" fill="white"/>
<path d="M46.8838 33.6947C46.7782 33.3875 46.5879 33.1164 46.3349 32.9127C46.0819 32.709 45.7764 32.581 45.4538 32.5434C45.0725 32.4976 44.6862 32.5192 44.3125 32.6072C43.7344 32.7349 43.1464 32.8122 42.555 32.8384C44.1365 30.1702 45.3445 27.2976 46.145 24.3009C47.3363 19.6897 46.7 17.5897 45.9562 16.6384C44.9686 15.3889 43.7045 14.3854 42.2635 13.707C40.8224 13.0285 39.2436 12.6936 37.6513 12.7284C36.1904 12.7147 34.7357 12.9186 33.335 13.3334C32.5007 13.1904 31.6564 13.1135 30.81 13.1034C29.2715 13.045 27.7477 13.4206 26.4125 14.1872C25.4 13.8448 24.3616 13.584 23.3075 13.4072C22.0787 13.1124 20.8038 13.0626 19.5557 13.2608C18.3076 13.459 17.1108 13.9012 16.0338 14.5622C13.8663 16.0922 12.8613 18.7522 13.0475 22.4684C13.381 25.2408 13.9693 27.9765 14.805 30.6409C15.2863 32.3052 15.9198 33.9216 16.6975 35.4697C17.2718 36.8819 18.3637 38.0216 19.75 38.6559C20.2582 38.8234 20.8019 38.8518 21.3247 38.7384C21.8476 38.625 22.3306 38.3738 22.7238 38.0109C22.9022 38.2222 23.1132 38.4036 23.3488 38.5484C23.7139 38.775 24.112 38.9437 24.5288 39.0484C25.8931 39.4284 27.3453 39.3404 28.6538 38.7984C28.6613 39.0122 28.6675 39.2172 28.6713 39.3947C28.6788 39.6809 28.6875 39.9622 28.6975 40.2259C28.6827 41.6202 28.8683 43.0094 29.2488 44.3509C29.2688 44.4047 29.295 44.4847 29.3225 44.5709C29.5421 45.392 29.9686 46.143 30.5613 46.7522C31.2718 47.4047 32.2095 47.7533 33.1738 47.7234C33.5845 47.7208 33.9938 47.6752 34.395 47.5872C35.1555 47.4917 35.8893 47.2448 36.5529 46.8612C37.2165 46.4775 37.7965 45.9649 38.2588 45.3534C39.2725 43.9097 39.7663 41.7359 39.855 38.3097L39.8875 38.0322L39.9088 37.8509L40.1475 37.8722H40.2088C41.5605 37.9294 42.9088 37.6958 44.1625 37.1872C44.9513 36.8209 47.48 35.4859 46.8838 33.6872" fill="black"/>
<path d="M44.6113 34.0446C40.6575 34.8596 40.3863 33.5222 40.3863 33.5222C44.56 27.3284 46.305 19.4659 44.7988 17.5421C40.6913 12.2921 33.58 14.7759 33.4613 14.8396L33.4225 14.8471C32.5539 14.6728 31.6709 14.5808 30.785 14.5721C29.2911 14.4972 27.8169 14.9386 26.61 15.8221C26.61 15.8221 13.925 10.5959 14.515 22.3946C14.64 24.9046 18.1125 41.3871 22.2538 36.4084C23.7675 34.5884 25.23 33.0484 25.23 33.0484C25.9666 33.5455 26.8528 33.7717 27.7375 33.6884L27.8088 33.6284C27.7878 33.8649 27.7975 34.1031 27.8375 34.3372C26.77 35.5297 27.0875 35.7384 24.9513 36.1772C22.7938 36.6222 24.0613 37.4134 24.8888 37.6209C25.768 37.9053 26.7145 37.9047 27.5934 37.6192C28.4722 37.3336 29.2384 36.7778 29.7825 36.0309L29.72 36.2809C30.1375 36.6159 30.4313 38.4584 30.3825 40.1297C30.2462 41.3726 30.3308 42.6299 30.6325 43.8434C30.9625 44.7397 31.29 46.7547 34.0938 46.1546C35.0908 46.0562 36.0181 45.5989 36.7032 44.868C37.3884 44.1371 37.7848 43.1822 37.8188 42.1809C37.9438 40.6384 38.21 40.8659 38.2263 39.4872L38.4438 38.8347C38.6938 36.7434 38.4838 36.0684 39.9263 36.3822L40.2775 36.4134C41.3935 36.4603 42.507 36.2729 43.5463 35.8634C45.3038 35.0484 46.345 33.6859 44.6125 34.0446" fill="#336791"/>
<path d="M27.3525 23.5172C27.0657 23.4568 26.7669 23.5012 26.51 23.6422C26.4765 23.6663 26.4482 23.6968 26.4268 23.732C26.4053 23.7672 26.3911 23.8064 26.385 23.8472C26.385 23.9913 26.4369 24.1307 26.5312 24.2397C26.699 24.47 26.9494 24.6264 27.23 24.6759C27.2673 24.6811 27.3049 24.6836 27.3425 24.6834C27.5282 24.6858 27.7102 24.6311 27.8638 24.5267C28.0174 24.4223 28.1352 24.2732 28.2012 24.0997C28.245 23.7897 27.7937 23.5822 27.3562 23.5209M39.1587 23.5309C39.125 23.2872 38.6912 23.2184 38.2837 23.2809C37.8762 23.3434 37.475 23.5234 37.5087 23.7672C37.5723 23.9201 37.68 24.0506 37.818 24.1421C37.956 24.2336 38.1182 24.2819 38.2837 24.2809C38.3185 24.2809 38.3531 24.2783 38.3875 24.2734C38.6043 24.2353 38.8024 24.1268 38.9512 23.9647C39.0757 23.8554 39.1517 23.7012 39.1625 23.5359" fill="white"/>
<path d="M45.9263 33.9522C45.775 33.4959 45.29 33.3497 44.4838 33.5159C42.09 34.0159 41.2338 33.6672 40.9513 33.4609C42.8468 30.551 44.2698 27.3595 45.1675 24.0047C45.5308 22.6776 45.7405 21.3133 45.7925 19.9384C45.8888 18.9767 45.6652 18.0101 45.1563 17.1884C44.2553 16.0546 43.1034 15.1455 41.7913 14.5327C40.4792 13.9199 39.0427 13.6202 37.595 13.6572C36.1079 13.6339 34.628 13.8669 33.22 14.3459C32.4147 14.1472 31.5894 14.0411 30.76 14.0297C29.2679 13.9641 27.793 14.3704 26.545 15.1909C25.4341 14.7847 24.2873 14.4842 23.12 14.2934C20.8885 13.7534 18.5341 14.115 16.5675 15.2997C14.6925 16.6297 13.8175 19.0072 13.9913 22.3659C14.3196 25.0578 14.8941 27.7139 15.7075 30.3009C17.045 34.6822 18.4988 37.1634 20.0288 37.6759C20.2265 37.7425 20.4338 37.7767 20.6425 37.7772C21.0309 37.7531 21.4087 37.6409 21.7472 37.449C22.0858 37.2571 22.3761 36.9906 22.5963 36.6697C23.4646 35.628 24.3625 34.6122 25.29 33.6222C25.8863 33.9449 26.5498 34.1234 27.2275 34.1434V34.1959C27.1108 34.3342 26.9971 34.4751 26.8863 34.6184C26.4175 35.2122 26.3213 35.3359 24.8138 35.6472C24.385 35.7359 23.2463 35.9709 23.23 36.7722C23.2125 37.6472 24.5763 38.0109 24.73 38.0497C25.2402 38.1809 25.7645 38.2489 26.2913 38.2522C27.4433 38.2734 28.5604 37.8561 29.4163 37.0847C29.2884 39.4635 29.4483 41.8491 29.8925 44.1897C30.0977 44.939 30.5419 45.6008 31.1576 46.0746C31.7733 46.5484 32.5269 46.8082 33.3038 46.8147C33.6892 46.8135 34.0734 46.7716 34.45 46.6897C35.4783 46.6009 36.4411 46.1474 37.1645 45.4112C37.8879 44.6749 38.3243 43.7044 38.395 42.6747C38.6163 41.3922 38.9963 38.3309 39.175 36.6884C39.6267 36.8126 40.0941 36.8703 40.5625 36.8597C41.6412 36.8674 42.711 36.6636 43.7113 36.2597C44.6013 35.8459 46.2113 34.8334 45.915 33.9522H45.9263ZM40.0638 22.8534C40.0477 23.3175 39.9993 23.7799 39.9188 24.2372C39.8258 24.7745 39.7674 25.3173 39.7438 25.8622C39.7395 26.4769 39.7813 27.0911 39.8688 27.6997C40.1388 28.9452 40.0393 30.2424 39.5825 31.4322C39.4855 31.2601 39.3991 31.0823 39.3238 30.8997C39.2513 30.7234 39.0925 30.4397 38.875 30.0484C38.025 28.5234 36.0325 24.9509 37.0525 23.4934C37.3563 23.0597 38.1275 22.6184 40.0625 22.8534H40.0638ZM37.7175 14.6422C38.997 14.616 40.2651 14.8871 41.4221 15.4341C42.579 15.9812 43.5933 16.7892 44.385 17.7947C45.6038 19.3509 44.26 26.4347 40.3787 32.5447L40.2613 32.3959L40.2125 32.3347C40.9836 30.8776 41.2079 29.1927 40.845 27.5847C40.7614 27.0252 40.7197 26.4603 40.72 25.8947C40.7427 25.3892 40.7973 24.8857 40.8838 24.3872C40.9962 23.7716 41.0477 23.1465 41.0375 22.5209C41.0579 22.435 41.0634 22.3462 41.0538 22.2584C40.6396 20.5846 39.8186 19.0389 38.6638 17.7584C37.626 16.5356 36.3282 15.5602 34.865 14.9034C35.802 14.708 36.758 14.6183 37.715 14.6359L37.7175 14.6422ZM21.8488 36.0459C21.065 36.9884 20.5225 36.8084 20.3488 36.7484C19.1888 36.3609 17.8413 33.9084 16.655 30.0184C15.8674 27.5075 15.3068 24.9309 14.98 22.3197C14.83 19.3197 15.5575 17.2272 17.1425 16.1022C19.7213 14.2734 23.9625 15.3684 25.6663 15.9234C25.6413 15.9472 25.6163 15.9697 25.5925 15.9947C22.7963 18.8184 22.8625 23.6434 22.87 23.9384C22.87 24.0522 22.8788 24.2134 22.8925 24.4384C22.995 25.7826 22.9611 27.1336 22.7913 28.4709C22.675 29.2366 22.7347 30.0187 22.9658 30.7579C23.1969 31.4971 23.5933 32.174 24.125 32.7372C24.2358 32.8522 24.3517 32.9613 24.4725 33.0647C23.5693 34.0332 22.694 35.0274 21.8475 36.0459H21.8488ZM24.8363 32.0584C24.4052 31.6027 24.0837 31.0546 23.8964 30.4559C23.709 29.8572 23.6606 29.2236 23.755 28.6034C23.9342 27.202 23.9706 25.786 23.8638 24.3772C23.8571 24.276 23.8513 24.1747 23.8463 24.0734C24.8933 23.2842 26.1928 22.905 27.5 23.0072C27.8008 23.0753 28.0728 23.2354 28.2785 23.4652C28.4841 23.6951 28.6131 23.9832 28.6475 24.2897C29.455 28.0259 28.7538 29.5822 28.1913 30.8334C28.075 31.0909 27.965 31.3334 27.8725 31.5834L27.8 31.7784C27.6204 32.2313 27.4668 32.6942 27.34 33.1647C26.8701 33.158 26.4063 33.0563 25.9767 32.8658C25.5471 32.6752 25.1604 32.3997 24.84 32.0559L24.8363 32.0584ZM24.9775 37.0959C24.7456 37.0388 24.5247 36.9438 24.3238 36.8147C24.5472 36.7192 24.7808 36.6496 25.02 36.6072C26.7925 36.2422 27.0663 35.9822 27.665 35.2259C27.8025 35.0522 27.9575 34.8509 28.1725 34.6147C28.4925 34.2559 28.64 34.3172 28.905 34.4272C29.0307 34.4954 29.1409 34.589 29.2287 34.7019C29.3164 34.8149 29.3799 34.9447 29.415 35.0834C29.4499 35.1841 29.4624 35.2912 29.4516 35.3972C29.4408 35.5032 29.407 35.6056 29.3525 35.6972C28.8679 36.3663 28.1822 36.863 27.3954 37.1149C26.6085 37.3667 25.7618 37.3605 24.9788 37.0972L24.9775 37.0959ZM34.2575 45.7284C33.9067 45.8504 33.5341 45.897 33.1641 45.8652C32.794 45.8334 32.4349 45.7239 32.11 45.5439C31.7851 45.3639 31.5019 45.1174 31.2787 44.8205C31.0556 44.5236 30.8976 44.183 30.815 43.8209C30.3748 40.988 30.2491 38.1152 30.44 35.2547C30.4413 35.2022 30.4341 35.1499 30.4188 35.0997C30.4056 35.0025 30.3856 34.9064 30.3588 34.8122C30.2847 34.531 30.1498 34.2695 29.9636 34.0462C29.7775 33.8228 29.5445 33.6431 29.2813 33.5197C28.9744 33.3675 28.6251 33.3234 28.29 33.3947C28.4084 32.9612 28.5512 32.5346 28.7175 32.1172L28.79 31.9209C28.8725 31.6997 28.975 31.4709 29.0838 31.2284C29.6725 29.9197 30.48 28.1259 29.6038 24.0759C29.5483 23.7314 29.4229 23.4019 29.2352 23.1078C29.0475 22.8136 28.8016 22.561 28.5125 22.3655C28.2235 22.17 27.8974 22.0358 27.5545 21.9712C27.2116 21.9066 26.8591 21.9128 26.5188 21.9897C25.6954 22.0965 24.8971 22.3465 24.16 22.7284C24.0625 22.7784 23.9725 22.8259 23.89 22.8722C23.9845 20.6009 24.8275 18.4246 26.2875 16.6822C26.8739 16.1083 27.5738 15.6633 28.3423 15.3757C29.1108 15.0881 29.9309 14.9643 30.75 15.0122C32.1338 15.0242 33.4981 15.3397 34.7467 15.9364C35.9953 16.5332 37.0977 17.3967 37.9763 18.4659C38.8336 19.4671 39.5035 20.6146 39.9538 21.8534C38.125 21.6672 36.8813 22.0284 36.2513 22.9297C34.8763 24.8897 37.0013 28.6947 38.0213 30.5234C38.2088 30.8584 38.37 31.1484 38.42 31.2734C38.6894 31.9022 39.0522 32.4868 39.4963 33.0072C39.5925 33.1322 39.6863 33.2434 39.7563 33.3459C39.2025 33.5059 38.2075 33.8747 38.2988 35.7209C38.2263 36.6459 37.7063 40.9772 37.4412 42.5084C37.0925 44.5297 36.3488 45.2834 34.2563 45.7322L34.2575 45.7284ZM43.31 35.3684C42.5405 35.6737 41.7237 35.8429 40.8962 35.8684C40.3457 35.9495 39.7834 35.8773 39.2713 35.6597C39.215 34.5109 39.6463 34.3909 40.0963 34.2634C40.1675 34.2434 40.2363 34.2234 40.3038 34.2009C40.3479 34.2365 40.3938 34.2699 40.4413 34.3009C41.24 34.8284 42.6663 34.8847 44.6788 34.4697H44.7013C44.2853 34.8395 43.8147 35.1431 43.3063 35.3697L43.31 35.3684Z" fill="white"/>
<rect x="1.5" y="1.72839" width="177" height="57" rx="6.5" stroke="#293548" stroke-width="3"/>
</svg>
