<svg width="180" height="61" viewBox="0 0 180 61" fill="none" xmlns="http://www.w3.org/2000/svg">
<path d="M61.4453 23.0096H66.4746C67.5553 23.0096 68.4766 23.1724 69.2383 23.4979C70 23.8234 70.5827 24.3052 70.9863 24.9432C71.3965 25.5747 71.6016 26.356 71.6016 27.287C71.6016 27.9966 71.4714 28.6216 71.2109 29.162C70.9505 29.7024 70.5827 30.1581 70.1074 30.5292C69.6322 30.8938 69.0658 31.177 68.4082 31.3788L67.666 31.7401H63.1445L63.125 29.7968H66.5137C67.0996 29.7968 67.5879 29.6926 67.9785 29.4843C68.3691 29.2759 68.6621 28.9927 68.8574 28.6346C69.0592 28.2701 69.1602 27.8599 69.1602 27.4042C69.1602 26.9094 69.0625 26.4797 68.8672 26.1151C68.6784 25.744 68.3854 25.4608 67.9883 25.2655C67.5911 25.0637 67.0866 24.9628 66.4746 24.9628H63.8965V37.2284H61.4453V23.0096ZM69.5605 37.2284L66.2207 30.8417L68.7891 30.8319L72.1777 37.1014V37.2284H69.5605ZM78.4668 37.4237C77.6855 37.4237 76.9792 37.2968 76.3477 37.0428C75.7227 36.7824 75.1888 36.4211 74.7461 35.9589C74.3099 35.4966 73.9746 34.953 73.7402 34.328C73.5059 33.703 73.3887 33.0292 73.3887 32.3065V31.9159C73.3887 31.0891 73.5091 30.3404 73.75 29.6698C73.9909 28.9992 74.3262 28.4263 74.7559 27.951C75.1855 27.4693 75.6934 27.1014 76.2793 26.8475C76.8652 26.5936 77.5 26.4667 78.1836 26.4667C78.9388 26.4667 79.5996 26.5936 80.166 26.8475C80.7324 27.1014 81.2012 27.4595 81.5723 27.9218C81.9499 28.3775 82.2298 28.9211 82.4121 29.5526C82.6009 30.1841 82.6953 30.8807 82.6953 31.6425V32.6483H74.5312V30.9589H80.3711V30.7733C80.3581 30.3501 80.2734 29.953 80.1172 29.5819C79.9674 29.2108 79.7363 28.9113 79.4238 28.6835C79.1113 28.4556 78.6947 28.3417 78.1738 28.3417C77.7832 28.3417 77.4349 28.4263 77.1289 28.5956C76.8294 28.7583 76.5788 28.996 76.377 29.3085C76.1751 29.621 76.0189 29.9986 75.9082 30.4413C75.804 30.8775 75.752 31.369 75.752 31.9159V32.3065C75.752 32.7688 75.8138 33.1984 75.9375 33.5956C76.0677 33.9862 76.2565 34.328 76.5039 34.621C76.7513 34.9139 77.0508 35.1451 77.4023 35.3143C77.7539 35.4771 78.1543 35.5585 78.6035 35.5585C79.1699 35.5585 79.6745 35.4445 80.1172 35.2167C80.5599 34.9888 80.944 34.6665 81.2695 34.2499L82.5098 35.451C82.2819 35.7831 81.9857 36.1021 81.6211 36.4081C81.2565 36.7076 80.8105 36.9517 80.2832 37.1405C79.7624 37.3293 79.1569 37.4237 78.4668 37.4237ZM90.4883 35.1093V30.0702C90.4883 29.6926 90.4199 29.3671 90.2832 29.0936C90.1465 28.8202 89.9382 28.6086 89.6582 28.4589C89.3848 28.3091 89.0397 28.2343 88.623 28.2343C88.2389 28.2343 87.9069 28.2994 87.627 28.4296C87.347 28.5598 87.1289 28.7356 86.9727 28.9569C86.8164 29.1783 86.7383 29.4289 86.7383 29.7089H84.3945C84.3945 29.2922 84.4954 28.8885 84.6973 28.4979C84.8991 28.1073 85.1921 27.759 85.5762 27.453C85.9603 27.147 86.4193 26.9061 86.9531 26.7303C87.487 26.5546 88.0859 26.4667 88.75 26.4667C89.5443 26.4667 90.2474 26.6001 90.8594 26.8671C91.4779 27.134 91.9629 27.5376 92.3145 28.078C92.6725 28.6119 92.8516 29.2824 92.8516 30.0897V34.787C92.8516 35.2688 92.8841 35.7017 92.9492 36.0858C93.0208 36.4634 93.1217 36.7922 93.252 37.0721V37.2284H90.8398C90.7292 36.9745 90.6413 36.6522 90.5762 36.2616C90.5176 35.8645 90.4883 35.4803 90.4883 35.1093ZM90.8301 30.8026L90.8496 32.2577H89.1602C88.724 32.2577 88.3398 32.3 88.0078 32.3846C87.6758 32.4628 87.3991 32.58 87.1777 32.7362C86.9564 32.8925 86.7904 33.0813 86.6797 33.3026C86.569 33.524 86.5137 33.7746 86.5137 34.0546C86.5137 34.3345 86.5788 34.5917 86.709 34.826C86.8392 35.0539 87.028 35.233 87.2754 35.3632C87.5293 35.4934 87.8353 35.5585 88.1934 35.5585C88.6751 35.5585 89.0951 35.4608 89.4531 35.2655C89.8177 35.0637 90.1042 34.8195 90.3125 34.5331C90.5208 34.2401 90.6315 33.9634 90.6445 33.703L91.4062 34.7479C91.3281 35.0149 91.1947 35.3013 91.0059 35.6073C90.8171 35.9133 90.5697 36.2063 90.2637 36.4862C89.9642 36.7596 89.6029 36.9843 89.1797 37.16C88.763 37.3358 88.2812 37.4237 87.7344 37.4237C87.0443 37.4237 86.429 37.287 85.8887 37.0135C85.3483 36.7336 84.9251 36.3593 84.6191 35.8905C84.3132 35.4152 84.1602 34.8781 84.1602 34.2792C84.1602 33.7193 84.2643 33.2245 84.4727 32.7948C84.6875 32.3586 85 31.994 85.4102 31.701C85.8268 31.4081 86.3346 31.1867 86.9336 31.037C87.5326 30.8807 88.2161 30.8026 88.9844 30.8026H90.8301ZM99.6289 35.5487C100.013 35.5487 100.358 35.4738 100.664 35.3241C100.977 35.1678 101.227 34.953 101.416 34.6796C101.611 34.4061 101.719 34.0904 101.738 33.7323H103.955C103.942 34.4159 103.74 35.0376 103.35 35.5975C102.959 36.1574 102.441 36.6034 101.797 36.9354C101.152 37.2609 100.439 37.4237 99.6582 37.4237C98.8509 37.4237 98.1478 37.287 97.5488 37.0135C96.9499 36.7336 96.4518 36.3495 96.0547 35.8612C95.6576 35.3729 95.3581 34.8098 95.1562 34.1718C94.9609 33.5337 94.8633 32.8501 94.8633 32.121V31.7792C94.8633 31.05 94.9609 30.3664 95.1562 29.7284C95.3581 29.0839 95.6576 28.5175 96.0547 28.0292C96.4518 27.5409 96.9499 27.16 97.5488 26.8866C98.1478 26.6066 98.8477 26.4667 99.6484 26.4667C100.495 26.4667 101.237 26.6359 101.875 26.9745C102.513 27.3065 103.014 27.772 103.379 28.371C103.75 28.9634 103.942 29.6535 103.955 30.4413H101.738C101.719 30.0507 101.621 29.6991 101.445 29.3866C101.276 29.0676 101.035 28.8137 100.723 28.6249C100.417 28.4361 100.049 28.3417 99.6191 28.3417C99.1439 28.3417 98.75 28.4393 98.4375 28.6346C98.125 28.8234 97.8809 29.0839 97.7051 29.4159C97.5293 29.7414 97.4023 30.1093 97.3242 30.5194C97.2526 30.9231 97.2168 31.343 97.2168 31.7792V32.121C97.2168 32.5572 97.2526 32.9803 97.3242 33.3905C97.3958 33.8007 97.5195 34.1685 97.6953 34.494C97.8776 34.813 98.125 35.0702 98.4375 35.2655C98.75 35.4543 99.1471 35.5487 99.6289 35.5487ZM110.605 26.662V28.3807H104.648V26.662H110.605ZM106.367 24.0741H108.721V34.3085C108.721 34.634 108.766 34.8846 108.857 35.0604C108.955 35.2297 109.089 35.3436 109.258 35.4022C109.427 35.4608 109.626 35.4901 109.854 35.4901C110.016 35.4901 110.173 35.4803 110.322 35.4608C110.472 35.4413 110.592 35.4218 110.684 35.4022L110.693 37.1991C110.498 37.2577 110.27 37.3098 110.01 37.3553C109.756 37.4009 109.463 37.4237 109.131 37.4237C108.59 37.4237 108.112 37.3293 107.695 37.1405C107.279 36.9452 106.953 36.6294 106.719 36.1932C106.484 35.757 106.367 35.1776 106.367 34.455V24.0741Z" fill="white"/>
<path d="M30 33.3209C31.7259 33.3209 33.125 31.9218 33.125 30.1959C33.125 28.47 31.7259 27.0709 30 27.0709C28.2741 27.0709 26.875 28.47 26.875 30.1959C26.875 31.9218 28.2741 33.3209 30 33.3209Z" fill="#00D8FF"/>
<path d="M30 37.3609C26.2439 37.4517 22.4972 36.9454 18.9 35.8609C17.2383 35.3341 15.6884 34.5043 14.3288 33.4134C13.8099 33.0407 13.3778 32.5602 13.0622 32.0048C12.7465 31.4494 12.5547 30.8323 12.5 30.1959C12.5 28.1296 14.77 26.1046 18.5725 24.7796C22.2659 23.6055 26.1249 23.0365 30 23.0946C33.8234 23.0412 37.6307 23.5999 41.2775 24.7496C42.8779 25.2598 44.3752 26.0495 45.7 27.0821C46.21 27.4374 46.6356 27.9005 46.9466 28.4386C47.2577 28.9767 47.4466 29.5766 47.5 30.1959C47.5 32.3434 44.9625 34.5196 40.875 35.8721C37.3474 36.9213 33.6798 37.4234 30 37.3609ZM30 24.5896C26.2926 24.5401 22.601 25.081 19.0637 26.1921C15.5638 27.4134 13.995 29.0834 13.995 30.1921C13.995 31.3521 15.6813 33.1759 19.3837 34.4421C22.8251 35.4744 26.4083 35.955 30 35.8659C33.5205 35.9288 37.0299 35.4525 40.4062 34.4534C44.25 33.1796 46 31.3534 46 30.1959C45.9369 29.7986 45.7922 29.4188 45.5749 29.0804C45.3576 28.742 45.0724 28.4523 44.7375 28.2296C43.5522 27.3135 42.2146 26.6137 40.7862 26.1621C37.2975 25.0668 33.6562 24.5359 30 24.5896Z" fill="#00D8FF"/>
<path d="M22.9 45.7821C22.3169 45.7955 21.7406 45.654 21.23 45.3721C19.44 44.3396 18.82 41.3621 19.5713 37.4059C20.3996 33.6198 21.8348 29.9925 23.8213 26.6646C25.6847 23.326 28.0702 20.307 30.8875 17.7221C32.129 16.5905 33.5611 15.6878 35.1175 15.0559C35.6805 14.7921 36.2945 14.6553 36.9163 14.6553C37.538 14.6553 38.1521 14.7921 38.715 15.0559C40.5763 16.1284 41.1925 19.4134 40.3238 23.6296C39.4699 27.2103 38.072 30.6389 36.1788 33.7959C34.3809 37.0951 32.0705 40.0878 29.3338 42.6621C28.0472 43.8381 26.5542 44.7658 24.93 45.3984C24.2798 45.6397 23.5935 45.7695 22.9 45.7821ZM25.1163 27.4071C23.2214 30.5938 21.8458 34.0618 21.0413 37.6809C20.35 41.3246 21.0138 43.5159 21.9788 44.0734C22.9788 44.6521 25.4062 44.1034 28.3538 41.5284C30.9663 39.0621 33.1715 36.1974 34.8875 33.0409C36.7012 30.0228 38.0421 26.7448 38.8638 23.3209C39.6812 19.3521 38.975 16.9221 37.9725 16.3446C37.5968 16.2007 37.1952 16.1362 36.7933 16.1554C36.3914 16.1745 35.9978 16.2769 35.6375 16.4559C34.2521 17.0276 32.9784 17.8392 31.875 18.8534C29.1833 21.3294 26.9046 24.2196 25.125 27.4146L25.1163 27.4071Z" fill="#00D8FF"/>
<path d="M37.0962 45.7984C35.4025 45.7984 33.2512 44.7734 31.0112 42.8471C28.1446 40.2387 25.7187 37.1839 23.8275 33.8009C21.8659 30.5188 20.4421 26.9441 19.61 23.2121C19.2491 21.5703 19.1823 19.8774 19.4125 18.2121C19.4657 17.5944 19.6538 16.9959 19.9635 16.4587C20.2733 15.9216 20.697 15.4589 21.205 15.1034C23.0638 14.0271 26.2175 15.1334 29.4362 17.9909C32.112 20.5186 34.3842 23.4418 36.1737 26.6584C38.1341 29.8638 39.5729 33.3603 40.4362 37.0171C40.8126 38.7193 40.8707 40.4764 40.6075 42.1996C40.5449 42.8352 40.3456 43.4496 40.0232 44.0009C39.7009 44.5521 39.2631 45.0272 38.74 45.3934C38.2377 45.6718 37.6704 45.8116 37.0962 45.7984ZM25.1213 33.0484C26.9355 36.2814 29.2529 39.2051 31.9862 41.7096C34.7975 44.1284 37.0275 44.6484 37.9862 44.0846C38.9862 43.5034 39.7237 41.1309 38.9637 37.2921C38.1311 33.8008 36.7511 30.4633 34.875 27.4034C33.1673 24.3248 30.9984 21.5257 28.4438 19.1034C25.4138 16.4134 22.9563 15.8121 21.955 16.3921C21.6429 16.6457 21.3868 16.9613 21.2029 17.3189C21.0189 17.6765 20.9111 18.0683 20.8863 18.4696C20.6875 19.9548 20.7522 21.4633 21.0775 22.9259C21.8779 26.4948 23.2434 29.9129 25.1225 33.0509L25.1213 33.0484Z" fill="#00D8FF"/>
<rect x="1.5" y="1.72839" width="177" height="57" rx="6.5" stroke="#293548" stroke-width="3"/>
</svg>
