<svg width="180" height="61" viewBox="0 0 180 61" fill="none" xmlns="http://www.w3.org/2000/svg">
<path d="M67.2949 23.0096V37.2284H64.8633V23.0096H67.2949ZM71.7578 23.0096V24.9628H60.4395V23.0096H71.7578ZM78.0469 35.1093V30.0702C78.0469 29.6926 77.9785 29.3671 77.8418 29.0936C77.7051 28.8202 77.4967 28.6086 77.2168 28.4589C76.9434 28.3091 76.5983 28.2343 76.1816 28.2343C75.7975 28.2343 75.4655 28.2994 75.1855 28.4296C74.9056 28.5598 74.6875 28.7356 74.5312 28.9569C74.375 29.1783 74.2969 29.4289 74.2969 29.7089H71.9531C71.9531 29.2922 72.054 28.8885 72.2559 28.4979C72.4577 28.1073 72.7507 27.759 73.1348 27.453C73.5189 27.147 73.9779 26.9061 74.5117 26.7303C75.0456 26.5546 75.6445 26.4667 76.3086 26.4667C77.1029 26.4667 77.806 26.6001 78.418 26.8671C79.0365 27.134 79.5215 27.5376 79.873 28.078C80.2311 28.6119 80.4102 29.2824 80.4102 30.0897V34.787C80.4102 35.2688 80.4427 35.7017 80.5078 36.0858C80.5794 36.4634 80.6803 36.7922 80.8105 37.0721V37.2284H78.3984C78.2878 36.9745 78.1999 36.6522 78.1348 36.2616C78.0762 35.8645 78.0469 35.4803 78.0469 35.1093ZM78.3887 30.8026L78.4082 32.2577H76.7188C76.2826 32.2577 75.8984 32.3 75.5664 32.3846C75.2344 32.4628 74.9577 32.58 74.7363 32.7362C74.515 32.8925 74.349 33.0813 74.2383 33.3026C74.1276 33.524 74.0723 33.7746 74.0723 34.0546C74.0723 34.3345 74.1374 34.5917 74.2676 34.826C74.3978 35.0539 74.5866 35.233 74.834 35.3632C75.0879 35.4934 75.3939 35.5585 75.752 35.5585C76.2337 35.5585 76.6536 35.4608 77.0117 35.2655C77.3763 35.0637 77.6628 34.8195 77.8711 34.5331C78.0794 34.2401 78.1901 33.9634 78.2031 33.703L78.9648 34.7479C78.8867 35.0149 78.7533 35.3013 78.5645 35.6073C78.3757 35.9133 78.1283 36.2063 77.8223 36.4862C77.5228 36.7596 77.1615 36.9843 76.7383 37.16C76.3216 37.3358 75.8398 37.4237 75.293 37.4237C74.6029 37.4237 73.9876 37.287 73.4473 37.0135C72.9069 36.7336 72.4837 36.3593 72.1777 35.8905C71.8717 35.4152 71.7188 34.8781 71.7188 34.2792C71.7188 33.7193 71.8229 33.2245 72.0312 32.7948C72.2461 32.3586 72.5586 31.994 72.9688 31.701C73.3854 31.4081 73.8932 31.1867 74.4922 31.037C75.0911 30.8807 75.7747 30.8026 76.543 30.8026H78.3887ZM85.3906 26.662V37.2284H83.0273V26.662H85.3906ZM82.8711 23.8885C82.8711 23.5305 82.9883 23.2343 83.2227 22.9999C83.4635 22.759 83.7956 22.6385 84.2188 22.6385C84.6354 22.6385 84.9642 22.759 85.2051 22.9999C85.446 23.2343 85.5664 23.5305 85.5664 23.8885C85.5664 24.2401 85.446 24.5331 85.2051 24.7675C84.9642 25.0018 84.6354 25.119 84.2188 25.119C83.7956 25.119 83.4635 25.0018 83.2227 24.7675C82.9883 24.5331 82.8711 24.2401 82.8711 23.8885ZM90.4883 22.2284V37.2284H88.125V22.2284H90.4883ZM95.9375 34.8846L98.3789 26.662H99.8828L99.4727 29.1229L97.0117 37.2284H95.6641L95.9375 34.8846ZM94.502 26.662L96.4062 34.9237L96.5625 37.2284H95.0586L92.1973 26.662H94.502ZM102.168 34.826L104.014 26.662H106.309L103.457 37.2284H101.953L102.168 34.826ZM100.137 26.662L102.549 34.787L102.852 37.2284H101.504L99.0137 29.1132L98.6035 26.662H100.137ZM110.43 26.662V37.2284H108.066V26.662H110.43ZM107.91 23.8885C107.91 23.5305 108.027 23.2343 108.262 22.9999C108.503 22.759 108.835 22.6385 109.258 22.6385C109.674 22.6385 110.003 22.759 110.244 22.9999C110.485 23.2343 110.605 23.5305 110.605 23.8885C110.605 24.2401 110.485 24.5331 110.244 24.7675C110.003 25.0018 109.674 25.119 109.258 25.119C108.835 25.119 108.503 25.0018 108.262 24.7675C108.027 24.5331 107.91 24.2401 107.91 23.8885ZM115.342 28.9178V37.2284H112.988V26.662H115.205L115.342 28.9178ZM114.922 31.5546L114.16 31.5448C114.167 30.7961 114.271 30.1093 114.473 29.4843C114.681 28.8593 114.967 28.3221 115.332 27.8729C115.703 27.4237 116.146 27.0787 116.66 26.8378C117.174 26.5904 117.747 26.4667 118.379 26.4667C118.887 26.4667 119.346 26.5383 119.756 26.6815C120.173 26.8182 120.527 27.0428 120.82 27.3553C121.12 27.6678 121.348 28.0747 121.504 28.576C121.66 29.0708 121.738 29.6796 121.738 30.4022V37.2284H119.375V30.3925C119.375 29.8846 119.3 29.4843 119.15 29.1913C119.007 28.8918 118.796 28.6802 118.516 28.5565C118.242 28.4263 117.9 28.3612 117.49 28.3612C117.087 28.3612 116.725 28.4458 116.406 28.6151C116.087 28.7844 115.817 29.0155 115.596 29.3085C115.381 29.6014 115.215 29.94 115.098 30.3241C114.98 30.7082 114.922 31.1184 114.922 31.5546ZM130.586 35.0409V22.2284H132.949V37.2284H130.811L130.586 35.0409ZM123.711 32.0624V31.8573C123.711 31.0565 123.805 30.3274 123.994 29.6698C124.183 29.0057 124.456 28.4361 124.814 27.9608C125.173 27.479 125.609 27.1112 126.123 26.8573C126.637 26.5969 127.217 26.4667 127.861 26.4667C128.499 26.4667 129.059 26.5904 129.541 26.8378C130.023 27.0852 130.433 27.44 130.771 27.9022C131.11 28.358 131.38 28.9048 131.582 29.5428C131.784 30.1744 131.927 30.8775 132.012 31.6522V32.3065C131.927 33.0617 131.784 33.7518 131.582 34.3768C131.38 35.0018 131.11 35.5422 130.771 35.9979C130.433 36.4537 130.02 36.8052 129.531 37.0526C129.049 37.3 128.486 37.4237 127.842 37.4237C127.204 37.4237 126.628 37.2902 126.113 37.0233C125.605 36.7564 125.173 36.382 124.814 35.9003C124.456 35.4185 124.183 34.8521 123.994 34.201C123.805 33.5435 123.711 32.8306 123.711 32.0624ZM126.064 31.8573V32.0624C126.064 32.5441 126.107 32.9934 126.191 33.41C126.283 33.8267 126.423 34.1945 126.611 34.5135C126.8 34.826 127.044 35.0734 127.344 35.2557C127.65 35.4315 128.014 35.5194 128.438 35.5194C128.971 35.5194 129.411 35.4022 129.756 35.1678C130.101 34.9335 130.371 34.6177 130.566 34.2206C130.768 33.8169 130.905 33.3677 130.977 32.8729V31.1053C130.938 30.7212 130.856 30.3632 130.732 30.0311C130.615 29.6991 130.456 29.4094 130.254 29.162C130.052 28.9081 129.801 28.7128 129.502 28.576C129.209 28.4328 128.861 28.3612 128.457 28.3612C128.027 28.3612 127.663 28.4524 127.363 28.6346C127.064 28.8169 126.816 29.0676 126.621 29.3866C126.432 29.7056 126.292 30.0767 126.201 30.4999C126.11 30.9231 126.064 31.3755 126.064 31.8573ZM144.043 32.5995H146.484C146.406 33.5305 146.146 34.3606 145.703 35.0897C145.26 35.8124 144.639 36.382 143.838 36.7987C143.037 37.2154 142.064 37.4237 140.918 37.4237C140.039 37.4237 139.248 37.2675 138.545 36.955C137.842 36.6359 137.24 36.1867 136.738 35.6073C136.237 35.0214 135.853 34.315 135.586 33.4882C135.326 32.6613 135.195 31.7369 135.195 30.7147V29.5331C135.195 28.5109 135.329 27.5865 135.596 26.7596C135.869 25.9328 136.26 25.2264 136.768 24.6405C137.275 24.0481 137.884 23.5956 138.594 23.2831C139.31 22.9706 140.114 22.8143 141.006 22.8143C142.139 22.8143 143.096 23.0227 143.877 23.4393C144.658 23.856 145.264 24.4322 145.693 25.1678C146.13 25.9035 146.396 26.7466 146.494 27.6971H144.053C143.988 27.0852 143.844 26.5611 143.623 26.1249C143.408 25.6887 143.089 25.3566 142.666 25.1288C142.243 24.8944 141.689 24.7772 141.006 24.7772C140.446 24.7772 139.958 24.8814 139.541 25.0897C139.124 25.2981 138.776 25.604 138.496 26.0077C138.216 26.4113 138.005 26.9094 137.861 27.5018C137.725 28.0878 137.656 28.7583 137.656 29.5135V30.7147C137.656 31.4309 137.718 32.0819 137.842 32.6678C137.972 33.2473 138.167 33.7453 138.428 34.162C138.695 34.5787 139.033 34.9009 139.443 35.1288C139.854 35.3566 140.345 35.4706 140.918 35.4706C141.615 35.4706 142.178 35.3599 142.607 35.1385C143.044 34.9172 143.372 34.5949 143.594 34.1718C143.822 33.7421 143.971 33.218 144.043 32.5995ZM156.191 33.5663C156.191 33.2733 156.146 33.0129 156.055 32.785C155.97 32.5572 155.817 32.3488 155.596 32.16C155.374 31.9712 155.062 31.7889 154.658 31.6132C154.261 31.4309 153.753 31.2453 153.135 31.0565C152.458 30.8482 151.833 30.6171 151.26 30.3632C150.693 30.1027 150.199 29.8033 149.775 29.4647C149.352 29.1197 149.023 28.7258 148.789 28.2831C148.555 27.8339 148.438 27.3163 148.438 26.7303C148.438 26.1509 148.558 25.6236 148.799 25.1483C149.046 24.6731 149.395 24.2629 149.844 23.9178C150.299 23.5663 150.837 23.2961 151.455 23.1073C152.074 22.912 152.757 22.8143 153.506 22.8143C154.561 22.8143 155.469 23.0096 156.23 23.4003C156.999 23.7909 157.588 24.315 157.998 24.9725C158.415 25.6301 158.623 26.356 158.623 27.1503H156.191C156.191 26.6815 156.09 26.2681 155.889 25.91C155.693 25.5455 155.394 25.259 154.99 25.0507C154.593 24.8423 154.089 24.7382 153.477 24.7382C152.897 24.7382 152.415 24.826 152.031 25.0018C151.647 25.1776 151.361 25.4152 151.172 25.7147C150.983 26.0142 150.889 26.3527 150.889 26.7303C150.889 26.9973 150.951 27.2414 151.074 27.4628C151.198 27.6776 151.387 27.8794 151.641 28.0682C151.895 28.2505 152.214 28.4231 152.598 28.5858C152.982 28.7486 153.434 28.9048 153.955 29.0546C154.743 29.2889 155.43 29.5494 156.016 29.8358C156.602 30.1158 157.09 30.4348 157.48 30.7928C157.871 31.1509 158.164 31.5578 158.359 32.0135C158.555 32.4628 158.652 32.9738 158.652 33.5468C158.652 34.1457 158.532 34.6861 158.291 35.1678C158.05 35.6431 157.705 36.05 157.256 36.3885C156.813 36.7206 156.279 36.9777 155.654 37.16C155.036 37.3358 154.346 37.4237 153.584 37.4237C152.9 37.4237 152.227 37.3326 151.562 37.1503C150.905 36.968 150.306 36.6913 149.766 36.3202C149.225 35.9426 148.796 35.4738 148.477 34.9139C148.158 34.3475 147.998 33.6867 147.998 32.9315H150.449C150.449 33.3938 150.527 33.7876 150.684 34.1132C150.846 34.4387 151.071 34.7056 151.357 34.9139C151.644 35.1158 151.976 35.2655 152.354 35.3632C152.738 35.4608 153.148 35.5096 153.584 35.5096C154.157 35.5096 154.635 35.4283 155.02 35.2655C155.41 35.1027 155.703 34.8749 155.898 34.5819C156.094 34.2889 156.191 33.9504 156.191 33.5663ZM168.301 33.5663C168.301 33.2733 168.255 33.0129 168.164 32.785C168.079 32.5572 167.926 32.3488 167.705 32.16C167.484 31.9712 167.171 31.7889 166.768 31.6132C166.37 31.4309 165.863 31.2453 165.244 31.0565C164.567 30.8482 163.942 30.6171 163.369 30.3632C162.803 30.1027 162.308 29.8033 161.885 29.4647C161.462 29.1197 161.133 28.7258 160.898 28.2831C160.664 27.8339 160.547 27.3163 160.547 26.7303C160.547 26.1509 160.667 25.6236 160.908 25.1483C161.156 24.6731 161.504 24.2629 161.953 23.9178C162.409 23.5663 162.946 23.2961 163.564 23.1073C164.183 22.912 164.867 22.8143 165.615 22.8143C166.67 22.8143 167.578 23.0096 168.34 23.4003C169.108 23.7909 169.697 24.315 170.107 24.9725C170.524 25.6301 170.732 26.356 170.732 27.1503H168.301C168.301 26.6815 168.2 26.2681 167.998 25.91C167.803 25.5455 167.503 25.259 167.1 25.0507C166.702 24.8423 166.198 24.7382 165.586 24.7382C165.007 24.7382 164.525 24.826 164.141 25.0018C163.757 25.1776 163.47 25.4152 163.281 25.7147C163.092 26.0142 162.998 26.3527 162.998 26.7303C162.998 26.9973 163.06 27.2414 163.184 27.4628C163.307 27.6776 163.496 27.8794 163.75 28.0682C164.004 28.2505 164.323 28.4231 164.707 28.5858C165.091 28.7486 165.544 28.9048 166.064 29.0546C166.852 29.2889 167.539 29.5494 168.125 29.8358C168.711 30.1158 169.199 30.4348 169.59 30.7928C169.98 31.1509 170.273 31.5578 170.469 32.0135C170.664 32.4628 170.762 32.9738 170.762 33.5468C170.762 34.1457 170.641 34.6861 170.4 35.1678C170.16 35.6431 169.814 36.05 169.365 36.3885C168.923 36.7206 168.389 36.9777 167.764 37.16C167.145 37.3358 166.455 37.4237 165.693 37.4237C165.01 37.4237 164.336 37.3326 163.672 37.1503C163.014 36.968 162.415 36.6913 161.875 36.3202C161.335 35.9426 160.905 35.4738 160.586 34.9139C160.267 34.3475 160.107 33.6867 160.107 32.9315H162.559C162.559 33.3938 162.637 33.7876 162.793 34.1132C162.956 34.4387 163.18 34.7056 163.467 34.9139C163.753 35.1158 164.085 35.2655 164.463 35.3632C164.847 35.4608 165.257 35.5096 165.693 35.5096C166.266 35.5096 166.745 35.4283 167.129 35.2655C167.52 35.1027 167.812 34.8749 168.008 34.5819C168.203 34.2889 168.301 33.9504 168.301 33.5663Z" fill="white"/>
<path d="M30 18.2284C24.6667 18.2284 21.3333 20.8951 20 26.2284C22 23.5617 24.3333 22.5617 27 23.2284C28.5214 23.6087 29.6089 24.7126 30.8127 25.9343C32.7736 27.9248 35.043 30.2284 40 30.2284C45.3333 30.2284 48.6667 27.5617 50 22.2284C48 24.8951 45.6667 25.8951 43 25.2284C41.4786 24.8481 40.3911 23.7442 39.1873 22.5225C37.2264 20.532 34.957 18.2284 30 18.2284ZM20 30.2284C14.6667 30.2284 11.3333 32.8951 10 38.2284C12 35.5617 14.3333 34.5617 17 35.2284C18.5214 35.6087 19.6089 36.7126 20.8127 37.9343C22.7736 39.9248 25.043 42.2284 30 42.2284C35.3333 42.2284 38.6667 39.5617 40 34.2284C38 36.8951 35.6667 37.8951 33 37.2284C31.4786 36.8481 30.3911 35.7442 29.1873 34.5225C27.2264 32.532 24.957 30.2284 20 30.2284Z" fill="url(#paint0_linear_746_1107)"/>
<rect x="1.5" y="1.72839" width="177" height="57" rx="6.5" stroke="#293548" stroke-width="3"/>
<defs>
<linearGradient id="paint0_linear_746_1107" x1="8.8888" y1="25.9084" x2="43.4353" y2="45.8273" gradientUnits="userSpaceOnUse">
<stop stop-color="#2298BD"/>
<stop offset="1" stop-color="#0ED7B5"/>
</linearGradient>
</defs>
</svg>
