<svg width="180" height="61" viewBox="0 0 180 61" fill="none" xmlns="http://www.w3.org/2000/svg">
<path d="M66.3184 34.6307L70.0586 23.0096H72.7637L67.666 37.2284H65.8398L66.3184 34.6307ZM62.8613 23.0096L66.5723 34.6307L67.0801 37.2284H65.2441L60.166 23.0096H62.8613ZM80.2051 34.7382V26.662H82.5684V37.2284H80.3418L80.2051 34.7382ZM80.5371 32.5409L81.3281 32.5214C81.3281 33.231 81.25 33.8853 81.0938 34.4843C80.9375 35.0767 80.6966 35.5943 80.3711 36.037C80.0456 36.4732 79.6289 36.815 79.1211 37.0624C78.6133 37.3033 78.0046 37.4237 77.2949 37.4237C76.7806 37.4237 76.3086 37.3488 75.8789 37.1991C75.4492 37.0494 75.0781 36.8182 74.7656 36.5057C74.4596 36.1932 74.222 35.7863 74.0527 35.285C73.8835 34.7837 73.7988 34.1848 73.7988 33.4882V26.662H76.1523V33.5077C76.1523 33.8918 76.1979 34.2141 76.2891 34.4745C76.3802 34.7284 76.5039 34.9335 76.6602 35.0897C76.8164 35.246 76.9987 35.3566 77.207 35.4218C77.4154 35.4869 77.6367 35.5194 77.8711 35.5194C78.5417 35.5194 79.069 35.3892 79.4531 35.1288C79.8438 34.8619 80.1204 34.5038 80.2832 34.0546C80.4525 33.6053 80.5371 33.1008 80.5371 32.5409ZM89.6387 37.4237C88.8574 37.4237 88.151 37.2968 87.5195 37.0428C86.8945 36.7824 86.3607 36.4211 85.918 35.9589C85.4818 35.4966 85.1465 34.953 84.9121 34.328C84.6777 33.703 84.5605 33.0292 84.5605 32.3065V31.9159C84.5605 31.0891 84.681 30.3404 84.9219 29.6698C85.1628 28.9992 85.498 28.4263 85.9277 27.951C86.3574 27.4693 86.8652 27.1014 87.4512 26.8475C88.0371 26.5936 88.6719 26.4667 89.3555 26.4667C90.1107 26.4667 90.7715 26.5936 91.3379 26.8475C91.9043 27.1014 92.373 27.4595 92.7441 27.9218C93.1217 28.3775 93.4017 28.9211 93.584 29.5526C93.7728 30.1841 93.8672 30.8807 93.8672 31.6425V32.6483H85.7031V30.9589H91.543V30.7733C91.5299 30.3501 91.4453 29.953 91.2891 29.5819C91.1393 29.2108 90.9082 28.9113 90.5957 28.6835C90.2832 28.4556 89.8665 28.3417 89.3457 28.3417C88.9551 28.3417 88.6068 28.4263 88.3008 28.5956C88.0013 28.7583 87.7507 28.996 87.5488 29.3085C87.347 29.621 87.1908 29.9986 87.0801 30.4413C86.9759 30.8775 86.9238 31.369 86.9238 31.9159V32.3065C86.9238 32.7688 86.9857 33.1984 87.1094 33.5956C87.2396 33.9862 87.4284 34.328 87.6758 34.621C87.9232 34.9139 88.2227 35.1451 88.5742 35.3143C88.9258 35.4771 89.3262 35.5585 89.7754 35.5585C90.3418 35.5585 90.8464 35.4445 91.2891 35.2167C91.7318 34.9888 92.1159 34.6665 92.4414 34.2499L93.6816 35.451C93.4538 35.7831 93.1576 36.1021 92.793 36.4081C92.4284 36.7076 91.9824 36.9517 91.4551 37.1405C90.9342 37.3293 90.3288 37.4237 89.6387 37.4237Z" fill="white"/>
<path d="M40.5 15.1346H47.5L30 45.3221L12.5 15.1346H25.8875L30 22.1346L34.025 15.1346H40.5Z" fill="#41B883"/>
<path d="M12.5 15.1346L30 45.3221L47.5 15.1346H40.5L30 33.2471L19.4125 15.1346H12.5Z" fill="#41B883"/>
<path d="M19.4125 15.1346L30 33.3346L40.5 15.1346H34.025L30 22.1346L25.8875 15.1346H19.4125Z" fill="#35495E"/>
<rect x="1.5" y="1.72839" width="177" height="57" rx="6.5" stroke="#293548" stroke-width="3"/>
</svg>
