<svg width="43" height="43" viewBox="0 0 43 43" fill="none" xmlns="http://www.w3.org/2000/svg">
<path d="M19.35 8.59996C17.7096 8.59996 16.1788 9.05791 14.8737 9.85556C14.7389 9.13405 14.493 8.43779 14.1449 7.79156C15.7817 6.88577 17.6265 6.42278 19.497 6.44836C21.3676 6.47394 23.199 6.9872 24.8104 7.9374C26.4218 8.88761 27.7574 10.2419 28.6851 11.8664C29.6128 13.4908 30.1005 15.3293 30.1 17.2H35.4772C36.3321 17.2005 37.1519 17.5406 37.7562 18.1453C38.3606 18.75 38.7001 19.57 38.7001 20.425V33.325C38.7001 34.1803 38.3603 35.0006 37.7555 35.6054C37.1507 36.2102 36.3304 36.55 35.475 36.55H22.5751C21.7197 36.55 20.8994 36.2102 20.2946 35.6054C19.6898 35.0006 19.35 34.1803 19.35 33.325V27.95C17.8545 27.9519 16.3751 27.6406 15.007 27.0362C15.035 26.3052 15.05 25.5377 15.05 24.725V24.6497C16.3142 25.3807 17.7827 25.8 19.35 25.8V20.425C19.35 19.5696 19.6898 18.7493 20.2946 18.1445C20.8994 17.5397 21.7197 17.2 22.5751 17.2H27.9501C27.9501 14.9191 27.044 12.7317 25.4312 11.1188C23.8184 9.50603 21.6309 8.59996 19.35 8.59996ZM29.885 19.35C29.4622 21.4152 28.4421 23.3107 26.9515 24.8014C25.4608 26.292 23.5653 27.3121 21.5 27.735V33.325C21.5 33.6101 21.6133 33.8835 21.8149 34.0851C22.0165 34.2867 22.2899 34.4 22.5751 34.4H35.475C35.7602 34.4 36.0336 34.2867 36.2352 34.0851C36.4368 33.8835 36.55 33.6101 36.55 33.325V20.425C36.55 20.1399 36.4368 19.8664 36.2352 19.6648C36.0336 19.4632 35.7602 19.35 35.475 19.35H29.885ZM27.6791 19.35H22.5751C22.2899 19.35 22.0165 19.4632 21.8149 19.6648C21.6133 19.8664 21.5 20.1399 21.5 20.425V25.5291C22.9874 25.1437 24.3447 24.3676 25.4312 23.2811C26.5177 22.1946 27.2938 20.8374 27.6791 19.35ZM9.8492 4.56871C10.0277 4.72481 10.1495 4.93552 10.1958 5.16805C10.2421 5.40058 10.2102 5.64189 10.105 5.85441C10.0868 5.91731 10.0774 5.98243 10.0771 6.04791C10.0771 6.18336 10.1115 6.44136 10.4361 6.76386C10.5931 6.92081 10.7135 7.03261 10.8446 7.15516C10.9521 7.25406 11.0661 7.35726 11.2101 7.49916C11.4896 7.76576 11.7842 8.07966 12.0486 8.47311C12.5969 9.29656 12.9 10.3264 12.9 11.825C12.9 13.6589 12.2206 15.222 11.1607 16.1809L11.2983 16.34C11.9003 17.0796 12.2507 18.0385 12.47 18.9845C12.9 20.855 12.9 23.1039 12.9 24.6712V24.725C12.9 30.717 12.0852 34.1162 11.1886 36.0598C10.7371 37.038 10.2577 37.6615 9.84275 38.0528C9.67405 38.2147 9.48803 38.3574 9.28805 38.4785C9.19648 38.5336 9.1009 38.5818 9.0021 38.6226C9.0021 38.6226 8.75915 38.7 8.60005 38.7C8.44095 38.7 8.198 38.6226 8.198 38.6226C8.09813 38.5842 8.00234 38.5359 7.91205 38.4785C7.71207 38.3574 7.52605 38.2147 7.35735 38.0528C6.9424 37.6594 6.46295 37.038 6.01145 36.0598C5.1149 34.1162 4.30005 30.717 4.30005 24.725V24.6712C4.30005 23.1017 4.30005 20.855 4.73005 18.9845C4.94935 18.0385 5.2998 17.0796 5.9018 16.34C5.9448 16.2862 5.9921 16.2325 6.0394 16.1809C4.97945 15.222 4.30005 13.6589 4.30005 11.825C4.30005 11.1241 4.4871 10.2877 4.7451 9.51586C5.0031 8.74186 5.3643 7.94206 5.7814 7.29706C6.27805 6.45856 6.9768 5.75551 7.5186 5.28251C7.81564 5.02128 8.12563 4.77515 8.4474 4.54506L8.5119 4.50206L8.53125 4.48701L8.5377 4.48271L8.542 4.48056C8.73915 4.34915 8.97419 4.28654 9.21058 4.30249C9.44698 4.31843 9.67148 4.41202 9.8492 4.56871ZM8.60005 15.05C9.4321 15.0478 10.75 14.1255 10.75 11.825C10.75 10.636 10.5157 10.0534 10.2577 9.66636C10.1008 9.44033 9.91989 9.23199 9.71805 9.04501L9.45145 8.79561C9.2773 8.63221 9.07305 8.44301 8.91395 8.28606C8.6788 8.05336 8.47694 7.78928 8.3141 7.50131C8.04043 7.78907 7.79958 8.10635 7.596 8.44731C7.295 8.90956 7.0026 9.54381 6.78545 10.1974C6.56185 10.8639 6.45005 11.453 6.45005 11.825C6.45005 14.1298 7.7723 15.05 8.60005 15.05H8.60435H8.60005ZM7.56805 17.6988C7.26275 18.0707 7.00905 18.6641 6.82415 19.4682C6.45435 21.0764 6.45005 23.0974 6.45005 24.725C6.45005 30.5579 7.2477 33.6088 7.96365 35.1589C8.20015 35.6685 8.4216 36.0082 8.60005 36.2339C8.85407 35.9021 9.06771 35.5412 9.23645 35.1589C9.9524 33.6088 10.75 30.5579 10.75 24.725C10.75 23.0974 10.7457 21.0764 10.3738 19.4682C10.1889 18.6641 9.9352 18.0707 9.63205 17.6988C9.51346 17.5381 9.35752 17.4087 9.17771 17.3218C8.99791 17.2349 8.79964 17.1931 8.60005 17.2H8.59575C8.39685 17.1936 8.19938 17.2357 8.02035 17.3225C7.84132 17.4094 7.68609 17.5386 7.56805 17.6988Z" fill="white"/>
</svg>
