<svg width="131" height="18" viewBox="0 0 131 18" fill="none" xmlns="http://www.w3.org/2000/svg">
<path d="M5.2627 17H1.85742L1.87891 14.4863H5.2627C6.10775 14.4863 6.82031 14.2965 7.40039 13.917C7.98047 13.5303 8.41732 12.9681 8.71094 12.2305C9.01172 11.4928 9.16211 10.6012 9.16211 9.55566V8.79297C9.16211 7.99089 9.07617 7.28548 8.9043 6.67676C8.73958 6.06803 8.49251 5.55599 8.16309 5.14062C7.83366 4.72526 7.42904 4.41374 6.94922 4.20605C6.4694 3.99121 5.91797 3.88379 5.29492 3.88379H1.79297V1.35938H5.29492C6.34049 1.35938 7.29655 1.53841 8.16309 1.89648C9.03678 2.2474 9.79232 2.75228 10.4297 3.41113C11.0671 4.06999 11.5576 4.85775 11.9014 5.77441C12.2523 6.68392 12.4277 7.69727 12.4277 8.81445V9.55566C12.4277 10.6657 12.2523 11.679 11.9014 12.5957C11.5576 13.5124 11.0671 14.3001 10.4297 14.959C9.79948 15.6107 9.04395 16.1156 8.16309 16.4736C7.28939 16.8245 6.32259 17 5.2627 17ZM3.68359 1.35938V17H0.460938V1.35938H3.68359ZM14.082 11.3066V11.0811C14.082 10.2288 14.2038 9.44466 14.4473 8.72852C14.6908 8.00521 15.0452 7.37858 15.5107 6.84863C15.9762 6.31868 16.5492 5.9069 17.2295 5.61328C17.9098 5.3125 18.6904 5.16211 19.5713 5.16211C20.4521 5.16211 21.2363 5.3125 21.9238 5.61328C22.6113 5.9069 23.1878 6.31868 23.6533 6.84863C24.126 7.37858 24.484 8.00521 24.7275 8.72852C24.971 9.44466 25.0928 10.2288 25.0928 11.0811V11.3066C25.0928 12.1517 24.971 12.9359 24.7275 13.6592C24.484 14.3753 24.126 15.002 23.6533 15.5391C23.1878 16.069 22.6149 16.4808 21.9346 16.7744C21.2542 17.068 20.4736 17.2148 19.5928 17.2148C18.7119 17.2148 17.9277 17.068 17.2402 16.7744C16.5599 16.4808 15.9834 16.069 15.5107 15.5391C15.0452 15.002 14.6908 14.3753 14.4473 13.6592C14.2038 12.9359 14.082 12.1517 14.082 11.3066ZM17.1758 11.0811V11.3066C17.1758 11.7936 17.2188 12.2484 17.3047 12.6709C17.3906 13.0934 17.5267 13.4658 17.7129 13.7881C17.9062 14.1032 18.1569 14.3503 18.4648 14.5293C18.7728 14.7083 19.1488 14.7979 19.5928 14.7979C20.0225 14.7979 20.3913 14.7083 20.6992 14.5293C21.0072 14.3503 21.2542 14.1032 21.4404 13.7881C21.6266 13.4658 21.7627 13.0934 21.8486 12.6709C21.9417 12.2484 21.9883 11.7936 21.9883 11.3066V11.0811C21.9883 10.6084 21.9417 10.1644 21.8486 9.74902C21.7627 9.3265 21.623 8.9541 21.4297 8.63184C21.2435 8.30241 20.9964 8.0446 20.6885 7.8584C20.3805 7.6722 20.0081 7.5791 19.5713 7.5791C19.1344 7.5791 18.762 7.6722 18.4541 7.8584C18.1533 8.0446 17.9062 8.30241 17.7129 8.63184C17.5267 8.9541 17.3906 9.3265 17.3047 9.74902C17.2188 10.1644 17.1758 10.6084 17.1758 11.0811ZM30.3135 13.9922L32.7305 5.37695H34.6963L34.0625 8.76074L31.6455 17H30.002L30.3135 13.9922ZM29.0889 5.37695L30.8184 13.9814L30.9795 17H29.0459L26.1025 5.37695H29.0889ZM36.9092 13.8418L38.5957 5.37695H41.5928L38.6494 17H36.7266L36.9092 13.8418ZM34.9648 5.37695L37.3711 13.9277L37.7041 17H36.0498L33.6328 8.77148L33.0205 5.37695H34.9648ZM46.1797 7.8584V17H43.0859V5.37695H45.9863L46.1797 7.8584ZM45.7285 10.7803H44.8906C44.8906 9.9209 45.0016 9.14746 45.2236 8.45996C45.4456 7.7653 45.7572 7.17448 46.1582 6.6875C46.5592 6.19336 47.0355 5.81738 47.5869 5.55957C48.1455 5.2946 48.7686 5.16211 49.4561 5.16211C50.0003 5.16211 50.498 5.24089 50.9492 5.39844C51.4004 5.55599 51.7871 5.80664 52.1094 6.15039C52.4388 6.49414 52.6895 6.94889 52.8613 7.51465C53.0404 8.0804 53.1299 8.77148 53.1299 9.58789V17H50.0146V9.57715C50.0146 9.06152 49.943 8.66048 49.7998 8.37402C49.6566 8.08757 49.4453 7.88704 49.166 7.77246C48.8939 7.65072 48.5573 7.58984 48.1562 7.58984C47.7409 7.58984 47.3792 7.6722 47.0713 7.83691C46.7705 8.00163 46.5199 8.23079 46.3193 8.52441C46.126 8.81087 45.9792 9.14746 45.8789 9.53418C45.7786 9.9209 45.7285 10.3363 45.7285 10.7803ZM58.748 0.5V17H55.6436V0.5H58.748ZM60.8105 11.3066V11.0811C60.8105 10.2288 60.9323 9.44466 61.1758 8.72852C61.4193 8.00521 61.7738 7.37858 62.2393 6.84863C62.7048 6.31868 63.2777 5.9069 63.958 5.61328C64.6383 5.3125 65.4189 5.16211 66.2998 5.16211C67.1807 5.16211 67.9648 5.3125 68.6523 5.61328C69.3398 5.9069 69.9163 6.31868 70.3818 6.84863C70.8545 7.37858 71.2126 8.00521 71.4561 8.72852C71.6995 9.44466 71.8213 10.2288 71.8213 11.0811V11.3066C71.8213 12.1517 71.6995 12.9359 71.4561 13.6592C71.2126 14.3753 70.8545 15.002 70.3818 15.5391C69.9163 16.069 69.3434 16.4808 68.6631 16.7744C67.9827 17.068 67.2021 17.2148 66.3213 17.2148C65.4404 17.2148 64.6562 17.068 63.9688 16.7744C63.2884 16.4808 62.7119 16.069 62.2393 15.5391C61.7738 15.002 61.4193 14.3753 61.1758 13.6592C60.9323 12.9359 60.8105 12.1517 60.8105 11.3066ZM63.9043 11.0811V11.3066C63.9043 11.7936 63.9473 12.2484 64.0332 12.6709C64.1191 13.0934 64.2552 13.4658 64.4414 13.7881C64.6348 14.1032 64.8854 14.3503 65.1934 14.5293C65.5013 14.7083 65.8773 14.7979 66.3213 14.7979C66.751 14.7979 67.1198 14.7083 67.4277 14.5293C67.7357 14.3503 67.9827 14.1032 68.1689 13.7881C68.3551 13.4658 68.4912 13.0934 68.5771 12.6709C68.6702 12.2484 68.7168 11.7936 68.7168 11.3066V11.0811C68.7168 10.6084 68.6702 10.1644 68.5771 9.74902C68.4912 9.3265 68.3516 8.9541 68.1582 8.63184C67.972 8.30241 67.7249 8.0446 67.417 7.8584C67.109 7.6722 66.7367 7.5791 66.2998 7.5791C65.863 7.5791 65.4906 7.6722 65.1826 7.8584C64.8818 8.0446 64.6348 8.30241 64.4414 8.63184C64.2552 8.9541 64.1191 9.3265 64.0332 9.74902C63.9473 10.1644 63.9043 10.6084 63.9043 11.0811ZM79.9961 14.3789V9.20117C79.9961 8.82878 79.9352 8.51009 79.8135 8.24512C79.6917 7.97298 79.502 7.76172 79.2441 7.61133C78.9935 7.46094 78.6676 7.38574 78.2666 7.38574C77.9229 7.38574 77.6257 7.44661 77.375 7.56836C77.1243 7.68294 76.931 7.85124 76.7949 8.07324C76.6589 8.28809 76.5908 8.54232 76.5908 8.83594H73.4971C73.4971 8.3418 73.6117 7.87272 73.8408 7.42871C74.07 6.9847 74.403 6.5944 74.8398 6.25781C75.2767 5.91406 75.7959 5.64551 76.3975 5.45215C77.0062 5.25879 77.6865 5.16211 78.4385 5.16211C79.3408 5.16211 80.1429 5.3125 80.8447 5.61328C81.5465 5.91406 82.098 6.36523 82.499 6.9668C82.9072 7.56836 83.1113 8.32031 83.1113 9.22266V14.1963C83.1113 14.8337 83.1507 15.3564 83.2295 15.7646C83.3083 16.1657 83.4229 16.5166 83.5732 16.8174V17H80.4473C80.2969 16.6849 80.1823 16.291 80.1035 15.8184C80.0319 15.3385 79.9961 14.8587 79.9961 14.3789ZM80.4043 9.9209L80.4258 11.6719H78.6963C78.2881 11.6719 77.9336 11.7184 77.6328 11.8115C77.332 11.9046 77.085 12.0371 76.8916 12.209C76.6982 12.3737 76.555 12.5671 76.4619 12.7891C76.376 13.0111 76.333 13.2546 76.333 13.5195C76.333 13.7845 76.3939 14.0244 76.5156 14.2393C76.6374 14.4469 76.8128 14.6117 77.042 14.7334C77.2712 14.848 77.5397 14.9053 77.8477 14.9053C78.3132 14.9053 78.7178 14.8122 79.0615 14.626C79.4053 14.4398 79.6702 14.2106 79.8564 13.9385C80.0498 13.6663 80.1501 13.4085 80.1572 13.165L80.9736 14.4756C80.859 14.7692 80.7015 15.0736 80.501 15.3887C80.3076 15.7038 80.0605 16.001 79.7598 16.2803C79.459 16.5524 79.0973 16.778 78.6748 16.957C78.2523 17.1289 77.751 17.2148 77.1709 17.2148C76.4333 17.2148 75.7637 17.068 75.1621 16.7744C74.5677 16.4736 74.0951 16.0618 73.7441 15.5391C73.4004 15.0091 73.2285 14.4076 73.2285 13.7344C73.2285 13.1257 73.3431 12.585 73.5723 12.1123C73.8014 11.6396 74.138 11.2422 74.582 10.9199C75.0332 10.5905 75.5954 10.3434 76.2686 10.1787C76.9417 10.0068 77.7223 9.9209 78.6104 9.9209H80.4043ZM92.3604 14.4648V0.5H95.4756V17H92.6719L92.3604 14.4648ZM85.0127 11.3281V11.1025C85.0127 10.2145 85.113 9.40885 85.3135 8.68555C85.514 7.95508 85.8076 7.32845 86.1943 6.80566C86.5811 6.28288 87.0573 5.87826 87.623 5.5918C88.1888 5.30534 88.8333 5.16211 89.5566 5.16211C90.237 5.16211 90.8314 5.30534 91.3398 5.5918C91.8555 5.87826 92.2923 6.28646 92.6504 6.81641C93.0156 7.33919 93.3092 7.95866 93.5312 8.6748C93.7533 9.38379 93.9144 10.1608 94.0146 11.0059V11.5C93.9144 12.3092 93.7533 13.0612 93.5312 13.7559C93.3092 14.4505 93.0156 15.0592 92.6504 15.582C92.2923 16.0977 91.8555 16.4987 91.3398 16.7852C90.8242 17.0716 90.2227 17.2148 89.5352 17.2148C88.8118 17.2148 88.1673 17.068 87.6016 16.7744C87.043 16.4808 86.5703 16.069 86.1836 15.5391C85.804 15.0091 85.514 14.3861 85.3135 13.6699C85.113 12.9538 85.0127 12.1732 85.0127 11.3281ZM88.1064 11.1025V11.3281C88.1064 11.8079 88.1423 12.2555 88.2139 12.6709C88.2926 13.0863 88.418 13.4551 88.5898 13.7773C88.7689 14.0924 88.998 14.3395 89.2773 14.5186C89.5638 14.6904 89.9111 14.7764 90.3193 14.7764C90.8493 14.7764 91.2861 14.6582 91.6299 14.4219C91.9736 14.1784 92.235 13.8454 92.4141 13.4229C92.6003 13.0003 92.7077 12.5133 92.7363 11.9619V10.5547C92.7148 10.1035 92.6504 9.69889 92.543 9.34082C92.4427 8.97559 92.2923 8.66406 92.0918 8.40625C91.8984 8.14844 91.6549 7.94792 91.3613 7.80469C91.0749 7.66146 90.7347 7.58984 90.3408 7.58984C89.9398 7.58984 89.596 7.68294 89.3096 7.86914C89.0231 8.04818 88.7904 8.29525 88.6113 8.61035C88.4395 8.92546 88.3105 9.29785 88.2246 9.72754C88.1458 10.1501 88.1064 10.6084 88.1064 11.1025ZM112.631 11.8115H115.843C115.778 12.8643 115.488 13.7988 114.973 14.6152C114.464 15.4316 113.752 16.069 112.835 16.5273C111.925 16.9857 110.83 17.2148 109.548 17.2148C108.545 17.2148 107.646 17.043 106.852 16.6992C106.057 16.3483 105.376 15.847 104.811 15.1953C104.252 14.5436 103.826 13.7559 103.532 12.832C103.239 11.9082 103.092 10.8734 103.092 9.72754V8.64258C103.092 7.49674 103.242 6.46191 103.543 5.53809C103.851 4.6071 104.288 3.81576 104.854 3.16406C105.426 2.51237 106.11 2.01107 106.905 1.66016C107.7 1.30924 108.588 1.13379 109.569 1.13379C110.873 1.13379 111.972 1.37012 112.867 1.84277C113.77 2.31543 114.468 2.96712 114.962 3.79785C115.463 4.62858 115.764 5.57389 115.864 6.63379H112.642C112.606 6.00358 112.48 5.47005 112.266 5.0332C112.051 4.58919 111.725 4.25618 111.288 4.03418C110.858 3.80501 110.285 3.69043 109.569 3.69043C109.032 3.69043 108.563 3.79069 108.162 3.99121C107.761 4.19173 107.424 4.49609 107.152 4.9043C106.88 5.3125 106.676 5.82812 106.54 6.45117C106.411 7.06706 106.347 7.79036 106.347 8.62109V9.72754C106.347 10.5368 106.408 11.2493 106.529 11.8652C106.651 12.474 106.837 12.9896 107.088 13.4121C107.346 13.8275 107.675 14.1426 108.076 14.3574C108.484 14.5651 108.975 14.6689 109.548 14.6689C110.221 14.6689 110.776 14.5615 111.213 14.3467C111.65 14.1318 111.983 13.8132 112.212 13.3906C112.448 12.9681 112.588 12.4417 112.631 11.8115ZM123.599 13.7344L127.283 1.35938H130.871L125.425 17H123.062L123.599 13.7344ZM120.204 1.35938L123.878 13.7344L124.437 17H122.052L116.638 1.35938H120.204Z" fill="white"/>
</svg>
